{
.appVersion = "3324";
.formatVersion = 3;
axes = (
{
name = Weight;
tag = wght;
}
);
classes = (
{
automatic = 1;
code = "A Aacute Abreve Acircumflex Adieresis Agrave Amacron Aogonek Aring Atilde AE B C Cacute Ccaron Ccedilla Cdotaccent D Dcaron Dcroat Eth E Eacute Ecaron Ecircumflex Edieresis Edotaccent Egrave Emacron Eogonek F G Gbreve Gcommaaccent Gdotaccent H Hbar I IJ Iacute Icircumflex Idieresis Idotaccent Igrave Imacron Iogonek J Jacute K Kcommaaccent L Lacute Lcaron Lcommaaccent Lslash M N Nacute Ncaron Ncommaaccent Ntilde O Oacute Ocircumflex Odieresis Ograve Ohungarumlaut Oslash Otilde OE P Thorn Q R Racute Rcaron S Sacute Scaron Scedilla Scommaaccent Germandbls T Tcaron Tcedilla Tcommaaccent U Uacute Ucircumflex Udieresis Ugrave Uhungarumlaut Umacron Uogonek Uring V W Wacute Wcircumflex Wdieresis Wgrave X Y Yacute Ycircumflex Ydieresis Ygrave Z Zacute Zcaron Zdotaccent Delta Omega";
name = Uppercase;
}
);
customParameters = (
{
name = unicodeRanges;
value = (
0,
1,
2,
3,
5,
6,
29,
31,
33,
35,
45,
46
);
},
{
name = "Enforce Compatibility Check";
value = 1;
},
{
name = fsType;
value = (
);
},
{
name = "Variable Font Origin";
value = "E15CF202-A01D-48E4-B2F5-B7F7AA5FDF32";
},
{
name = "Axis Mappings";
value = {
wght = {
200 = 60;
300 = 75;
400 = 91;
500 = 115;
600 = 130;
700 = 146;
800 = 170;
};
};
},
{
name = isFixedPitch;
value = 1;
},
{
name = panose;
value = (
2,
0,
0,
9,
0,
0,
0,
0,
0,
0
);
},
{
name = "Use Typo Metrics";
value = 1;
}
);
date = "2024-04-25 14:25:39 +0000";
familyName = "Atkinson Hyperlegible Mono";
featurePrefixes = (
{
automatic = 1;
code = "languagesystem DFLT dflt;

languagesystem latn dflt;
languagesystem latn AZE;
languagesystem latn CRT;
languagesystem latn KAZ;
languagesystem latn TAT;
languagesystem latn TRK;
languagesystem latn ROM;
languagesystem latn MOL;
languagesystem latn CAT;
languagesystem latn NLD;
";
name = Languagesystems;
}
);
features = (
{
automatic = 1;
code = "feature locl;
feature sups;
feature frac;

glyphs = (
{
glyphname = A;
kernLeft = A;
kernRight = A;
lastChange = "2024-11-01 12:01:51 +0000";
layers = (
{
anchors = (
{
name = bottom;
pos = (263,0);
},
{
name = ogonek;
pos = (546,10);
},
{
name = top;
pos = (405,668);
}
);
layerId = "E15CF202-A01D-48E4-B2F5-B7F7AA5FDF32";
shapes = (
{
closed = 1;
nodes = (
(41,0,l),
(138,168,l),
(464,168,l),
(490,0,l),
(544,0,l),
(435,668,l),
(376,668,l),
(-18,0,l)
);
},
{
closed = 1;
nodes = (
(393,609,l),
(397,609,l),
(457,216,l),
(166,216,l)
);
}
);
width = 632;
},
{
anchors = (
{
name = bottom;
pos = (263,0);
},
{
name = ogonek;
pos = (550,10);
},
{
name = top;
pos = (405,668);
}
);
layerId = "60972605-F5BD-4F6B-BF23-CBE59F8EA585";
name = "AHL Variable 05 Mono ExtraBold Mono";
shapes = (
{
closed = 1;
nodes = (
(133,0,l),
(187,114,l),
(391,114,l),
(397,0,l),
(548,0,l),
(495,668,l),
(315,668,l),
(-22,0,l)
);
},
{
closed = 1;
nodes = (
(368,495,l),
(372,495,l),
(384,251,l),
(252,251,l)
);
}
);
width = 632;
}
);
unicode = 65;
},
{
glyphname = Aogonek;
kernLeft = A;
kernRight = A;
lastChange = "2024-11-01 12:01:51 +0000";
layers = (
{
anchors = (
{
name = top;
pos = (405,668);
}
);
layerId = "E15CF202-A01D-48E4-B2F5-B7F7AA5FDF32";
shapes = (
{
closed = 1;
nodes = (
(41,0,l),
(138,168,l),
(464,168,l),
(489,7,l),
(441,-16,o),
(393,-49,o),
(393,-103,cs),
(393,-147,o),
(433,-168,o),
(477,-168,cs),
(486,-168,o),
(496,-167,o),
(509,-163,c),
(517,-123,l),
(510,-125,o),
(497,-127,o),
(492,-127,cs),
(462,-127,o),
(441,-119,o),
(441,-92,cs),
(441,-46,o),
(500,-13,o),
(544,0,c),
(435,668,l),
(376,668,l),
(-18,0,l)
);
},
{
closed = 1;
nodes = (
(393,609,l),
(397,609,l),
(457,216,l),
(166,216,l)
);
}
);
width = 632;
},
{
anchors = (
{
name = top;
pos = (405,668);
}
);
layerId = "60972605-F5BD-4F6B-BF23-CBE59F8EA585";
shapes = (
{
closed = 1;
nodes = (
(133,0,l),
(187,114,l),
(391,114,l),
(397,7,l),
(350,-9,o),
(295,-41,o),
(295,-90,cs),
(295,-152,o),
(390,-176,o),
(469,-176,cs),
(483,-176,o),
(499,-175,o),
(511,-172,c),
(528,-91,l),
(521,-92,o),
(500,-95,o),
(482,-95,cs),
(458,-95,o),
(437,-87,o),
(437,-67,cs),
(437,-36,o),
(501,-3,o),
(548,0,c),
(495,668,l),
(315,668,l),
(-22,0,l)
);
},
{
closed = 1;
nodes = (
(368,495,l),
(372,495,l),
(384,251,l),
(252,251,l)
);
}
);
width = 632;
}
);
metricLeft = A;
metricRight = A;
unicode = 260;
},
{
glyphname = Aring;
kernLeft = A;
kernRight = A;
lastChange = "2024-11-01 12:01:51 +0000";
layers = (
{
anchors = (
{
name = bottom;
pos = (263,0);
},
{
name = ogonek;
pos = (546,10);
},
{
name = top;
pos = (430,835);
}
);
layerId = "E15CF202-A01D-48E4-B2F5-B7F7AA5FDF32";
shapes = (
{
closed = 1;
nodes = (
(41,0,l),
(138,168,l),
(464,168,l),
(490,0,l),
(544,0,l),
(438,649,l),
(477,661,o),
(505,698,o),
(505,740,cs),
(505,792,o),
(463,835,o),
(410,835,cs),
(358,835,o),
(315,792,o),
(315,740,cs),
(315,703,o),
(337,670,o),
(368,655,c),
(-18,0,l)
);
},
{
closed = 1;
nodes = (
(393,609,l),
(397,609,l),
(457,216,l),
(166,216,l)
);
},
{
closed = 1;
nodes = (
(380,685,o),
(355,710,o),
(355,740,cs),
(355,770,o),
(380,795,o),
(410,795,cs),
(441,795,o),
(465,770,o),
(465,740,cs),
(465,710,o),
(441,685,o),
(410,685,cs)
);
}
);
width = 632;
},
{
anchors = (
{
name = bottom;
pos = (263,0);
},
{
name = ogonek;
pos = (550,10);
},
{
name = top;
pos = (440,865);
}
);
layerId = "60972605-F5BD-4F6B-BF23-CBE59F8EA585";
shapes = (
{
closed = 1;
nodes = (
(133,0,l),
(187,114,l),
(391,114,l),
(397,0,l),
(548,0,l),
(499,624,l),
(529,649,o),
(548,687,o),
(548,729,cs),
(548,805,o),
(485,865,o),
(410,865,cs),
(335,865,o),
(274,805,o),
(274,729,cs),
(274,697,o),
(285,668,o),
(303,644,c),
(-22,0,l)
);
},
{
closed = 1;
nodes = (
(368,495,l),
(372,495,l),
(384,251,l),
(252,251,l)
);
},
{
closed = 1;
nodes = (
(386,682,o),
(365,702,o),
(365,728,cs),
(365,754,o),
(386,774,o),
(411,774,cs),
(437,774,o),
(457,754,o),
(457,728,cs),
(457,702,o),
(437,682,o),
(411,682,cs)
);
}
);
width = 632;
}
);
metricLeft = A;
metricRight = A;
unicode = 197;
},
{
glyphname = AE;
kernLeft = AE;
kernRight = E;
lastChange = "2024-11-01 12:01:51 +0000";
layers = (
{
anchors = (
{
name = bottom;
pos = (261,0);
},
{
name = top;
pos = (403,668);
}
);
layerId = "E15CF202-A01D-48E4-B2F5-B7F7AA5FDF32";
shapes = (
{
closed = 1;
nodes = (
(10,0,l),
(110,168,l),
(290,168,l),
(254,0,l),
(567,0,l),
(577,48,l),
(320,48,l),
(378,320,l),
(583,320,l),
(593,368,l),
(388,368,l),
(442,620,l),
(695,620,l),
(705,668,l),
(358,668,l),
(-48,0,l)
);
},
{
closed = 1;
nodes = (
(382,623,l),
(386,623,l),
(300,216,l),
(139,216,l)
);
}
);
width = 632;
},
{
anchors = (
{
name = bottom;
pos = (296,0);
},
{
name = top;
pos = (438,668);
}
);
layerId = "60972605-F5BD-4F6B-BF23-CBE59F8EA585";
shapes = (
{
closed = 1;
nodes = (
(96,0,l),
(159,124,l),
(282,124,l),
(256,0,l),
(575,0,l),
(603,130,l),
(414,130,l),
(445,279,l),
(539,279,l),
(567,408,l),
(473,408,l),
(500,538,l),
(689,538,l),
(717,668,l),
(308,668,l),
(-48,0,l)
);
},
{
closed = 1;
nodes = (
(364,529,l),
(368,529,l),
(307,241,l),
(218,241,l)
);
}
);
width = 632;
}
);
unicode = 198;
},
{
glyphname = B;
kernLeft = B;
kernRight = B;
lastChange = "2024-11-01 12:01:51 +0000";
layers = (
{
anchors = (
{
name = bottom;
pos = (263,0);
},
{
name = center;
pos = (334,334);
},
{
name = top;
pos = (405,668);
}
);
layerId = "E15CF202-A01D-48E4-B2F5-B7F7AA5FDF32";
shapes = (
{
closed = 1;
nodes = (
(331,0,ls),
(496,0,o),
(547,122,o),
(547,207,cs),
(547,267,o),
(515,319,o),
(461,344,c),
(543,367,o),
(584,448,o),
(584,518,cs),
(584,599,o),
(528,668,o),
(408,668,cs),
(205,668,l),
(63,0,l)
);
},
{
closed = 1;
nodes = (
(187,322,l),
(355,322,ls),
(450,322,o),
(490,268,o),
(490,205,cs),
(490,132,o),
(442,48,o),
(328,48,cs),
(129,48,l)
);
},
{
closed = 1;
nodes = (
(251,620,l),
(398,620,ls),
(491,620,o),
(526,569,o),
(526,510,cs),
(526,439,o),
(486,370,o),
(391,370,cs),
(198,370,l)
);
}
);
width = 632;
},
{
anchors = (
{
name = bottom;
pos = (275,0);
},
{
name = center;
pos = (346,334);
},
{
name = top;
pos = (417,668);
}
);
layerId = "60972605-F5BD-4F6B-BF23-CBE59F8EA585";
name = "AHL Variable 05 Mono ExtraBold Mono";
shapes = (
{
closed = 1;
nodes = (
(344,0,ls),
(488,0,o),
(587,78,o),
(587,216,cs),
(587,278,o),
(552,323,o),
(507,344,c),
(601,381,o),
(625,452,o),
(625,513,cs),
(625,608,o),
(546,668,o),
(391,668,cs),
(155,668,l),
(13,0,l)
);
},
{
closed = 1;
nodes = (
(226,275,l),
(350,275,ls),
(399,275,o),
(429,250,o),
(429,213,cs),
(429,161,o),
(390,134,o),
(326,134,cs),
(196,134,l)
);
},
{
closed = 1;
nodes = (
(282,534,l),
(391,534,ls),
(439,534,o),
(464,510,o),
(464,480,cs),
(464,437,o),
(431,409,o),
(376,409,cs),
(255,409,l)
);
}
);
width = 632;
},
{
anchors = (
{
name = bottom;
pos = (322,0);
},
{
name = center;
pos = (322,334);
},
{
name = top;
pos = (322,668);
}
);
associatedMasterId = "60972605-F5BD-4F6B-BF23-CBE59F8EA585";
background = {
shapes = (
{
closed = 1;
nodes = (
(355,0,ls),
(499,0,o),
(581,70,o),
(581,191,cs),
(581,276,o),
(533,328,o),
(466,352,c),
(525,379,o),
(554,434,o),
(554,496,cs),
(554,603,o),
(481,668,o),
(340,668,cs),
(90,668,l),
(90,0,l)
);
},
{
closed = 1;
nodes = (
(198,297,l),
(349,297,ls),
(430,297,o),
(469,256,o),
(469,197,cs),
(469,137,o),
(432,93,o),
(350,93,cs),
(198,93,l)
);
},
{
closed = 1;
nodes = (
(198,575,l),
(337,575,ls),
(409,575,o),
(444,535,o),
(444,482,cs),
(444,429,o),
(412,391,o),
(344,391,cs),
(198,391,l)
);
}
);
};
layerId = "F1FB98E9-3351-47A5-AA7A-F0129B103C6A";
name = "18 Apr 24 at 15:54";
shapes = (
{
closed = 1;
nodes = (
(359,0,ls),
(503,0,o),
(585,70,o),
(585,191,cs),
(585,276,o),
(537,328,o),
(470,352,c),
(529,379,o),
(558,434,o),
(558,496,cs),
(558,603,o),
(485,668,o),
(344,668,cs),
(86,668,l),
(86,0,l)
);
},
{
closed = 1;
nodes = (
(202,297,l),
(345,297,ls),
(426,297,o),
(465,256,o),
(465,197,cs),
(465,137,o),
(428,93,o),
(346,93,cs),
(202,93,l)
);
},
{
closed = 1;
nodes = (
(202,575,l),
(333,575,ls),
(405,575,o),
(440,535,o),
(440,482,cs),
(440,429,o),
(408,391,o),
(340,391,cs),
(202,391,l)
);
}
);
width = 632;
}
);
unicode = 66;
},
{
glyphname = C;
kernLeft = O;
kernRight = C;
lastChange = "2024-11-01 12:01:51 +0000";
layers = (
{
anchors = (
{
name = bottom;
pos = (314,0);
},
{
name = top;
pos = (426,668);
}
);
layerId = "E15CF202-A01D-48E4-B2F5-B7F7AA5FDF32";
shapes = (
{
closed = 1;
nodes = (
(412,-12,o),
(499,30,o),
(563,132,c),
(514,153,l),
(469,87,o),
(407,36,o),
(318,36,cs),
(183,36,o),
(124,140,o),
(124,267,cs),
(124,413,o),
(212,632,o),
(402,632,cs),
(485,632,o),
(550,585,o),
(574,510,c),
(624,527,l),
(593,627,o),
(504,680,o),
(404,680,cs),
(182,680,o),
(67,443,o),
(67,263,cs),
(67,109,o),
(145,-12,o),
(314,-12,cs)
);
}
);
width = 632;
},
{
anchors = (
{
name = bottom;
pos = (313,0);
},
{
name = top;
pos = (428,668);
}
);
layerId = "60972605-F5BD-4F6B-BF23-CBE59F8EA585";
name = "AHL Variable 05 Mono ExtraBold Mono";
shapes = (
{
closed = 1;
nodes = (
(417,-12,o),
(511,47,o),
(572,142,c),
(443,195,l),
(409,135,o),
(365,123,o),
(334,123,cs),
(258,123,o),
(229,188,o),
(229,265,cs),
(229,360,o),
(278,545,o),
(400,545,cs),
(447,545,o),
(476,517,o),
(488,470,c),
(622,516,l),
(594,619,o),
(517,680,o),
(402,680,cs),
(168,680,o),
(64,437,o),
(64,256,cs),
(64,102,o),
(142,-12,o),
(312,-12,cs)
);
}
);
width = 632;
}
);
unicode = 67;
},
{
glyphname = Ccedilla;
kernLeft = O;
kernRight = C;
lastChange = "2024-11-01 12:01:51 +0000";
layers = (
{
anchors = (
{
name = top;
pos = (426,668);
}
);
layerId = "E15CF202-A01D-48E4-B2F5-B7F7AA5FDF32";
shapes = (
{
closed = 1;
nodes = (
(331,-177,o),
(371,-144,o),
(371,-97,cs),
(371,-68,o),
(347,-44,o),
(311,-44,cs),
(304,-44,o),
(297,-45,o),
(290,-47,c),
(320,-12,l),
(416,-10,o),
(500,32,o),
(563,132,c),
(514,153,l),
(469,87,o),
(407,36,o),
(318,36,cs),
(183,36,o),
(124,140,o),
(124,267,cs),
(124,413,o),
(212,632,o),
(402,632,cs),
(485,632,o),
(550,585,o),
(574,510,c),
(624,527,l),
(593,627,o),
(504,680,o),
(404,680,cs),
(182,680,o),
(67,443,o),
(67,263,cs),
(67,118,o),
(136,3,o),
(284,-11,c),
(250,-52,ls),
(239,-65,o),
(240,-79,o),
(258,-79,cs),
(265,-79,o),
(277,-77,o),
(285,-77,cs),
(309,-77,o),
(327,-85,o),
(327,-106,cs),
(327,-127,o),
(307,-145,o),
(277,-145,cs),
(261,-145,o),
(241,-141,o),
(214,-123,c),
(196,-147,l),
(223,-167,o),
(249,-177,o),
(279,-177,cs)
);
}
);
width = 632;
},
{
anchors = (
{
name = top;
pos = (428,668);
}
);
layerId = "60972605-F5BD-4F6B-BF23-CBE59F8EA585";
shapes = (
{
closed = 1;
nodes = (
(347,-188,o),
(404,-166,o),
(404,-108,cs),
(404,-67,o),
(359,-46,o),
(311,-46,cs),
(307,-46,o),
(301,-46,o),
(296,-47,c),
(325,-12,l),
(425,-7,o),
(514,51,o),
(572,142,c),
(443,195,l),
(409,135,o),
(365,123,o),
(334,123,cs),
(258,123,o),
(229,188,o),
(229,265,cs),
(229,360,o),
(278,545,o),
(400,545,cs),
(447,545,o),
(476,517,o),
(488,470,c),
(622,516,l),
(594,619,o),
(517,680,o),
(402,680,cs),
(168,680,o),
(64,437,o),
(64,256,cs),
(64,116,o),
(129,9,o),
(268,-9,c),
(232,-53,ls),
(218,-70,o),
(224,-92,o),
(250,-87,cs),
(256,-86,o),
(264,-85,o),
(275,-85,cs),
(292,-85,o),
(304,-95,o),
(304,-108,cs),
(304,-127,o),
(287,-136,o),
(268,-136,cs),
(241,-136,o),
(211,-125,o),
(200,-118,c),
(174,-168,l),
(201,-179,o),
(241,-188,o),
(283,-188,cs)
);
}
);
width = 632;
}
);
unicode = 199;
},
{
glyphname = D;
kernLeft = H;
kernRight = O;
lastChange = "2024-11-01 12:01:51 +0000";
layers = (
{
anchors = (
{
name = bottom;
pos = (265,0);
},
{
name = center;
pos = (199,351);
},
{
name = top;
pos = (417,668);
}
);
layerId = "E15CF202-A01D-48E4-B2F5-B7F7AA5FDF32";
shapes = (
{
closed = 1;
nodes = (
(248,0,ls),
(527,0,o),
(613,231,o),
(613,403,cs),
(613,579,o),
(493,668,o),
(277,668,cs),
(166,668,l),
(24,0,l)
);
},
{
closed = 1;
nodes = (
(212,620,l),
(276,620,ls),
(463,620,o),
(556,548,o),
(556,403,cs),
(556,244,o),
(482,48,o),
(248,48,cs),
(90,48,l)
);
}
);
width = 632;
},
{
anchors = (
{
name = bottom;
pos = (272,0);
},
{
name = center;
pos = (187,344);
},
{
name = top;
pos = (396,668);
}
);
layerId = "60972605-F5BD-4F6B-BF23-CBE59F8EA585";
shapes = (
{
closed = 1;
nodes = (
(275,0,ls),
(547,0,o),
(619,255,o),
(619,390,cs),
(619,585,o),
(496,668,o),
(295,668,cs),
(151,668,l),
(9,0,l)
);
},
{
closed = 1;
nodes = (
(277,532,l),
(297,532,ls),
(386,532,o),
(459,502,o),
(459,390,cs),
(459,276,o),
(409,138,o),
(281,138,cs),
(193,138,l)
);
}
);
width = 632;
},
{
anchors = (
{
name = bottom;
pos = (322,0);
},
{
name = center;
pos = (172,347);
},
{
name = top;
pos = (317,668);
}
);
associatedMasterId = "60972605-F5BD-4F6B-BF23-CBE59F8EA585";
background = {
shapes = (
{
closed = 1;
nodes = (
(250,0,ls),
(447,0,o),
(594,85,o),
(594,335,cs),
(594,584,o),
(447,668,o),
(250,668,cs),
(69,668,l),
(69,0,l)
);
},
{
closed = 1;
nodes = (
(177,574,l),
(244,574,ls),
(367,574,o),
(483,540,o),
(483,335,cs),
(483,130,o),
(367,95,o),
(244,95,cs),
(177,95,l)
);
}
);
};
layerId = "60FF4978-4D24-40A0-A589-087CC139AE5C";
name = "18 Apr 24 at 15:55";
shapes = (
{
closed = 1;
nodes = (
(254,0,ls),
(451,0,o),
(598,85,o),
(598,335,cs),
(598,584,o),
(451,668,o),
(254,668,cs),
(65,668,l),
(65,0,l)
);
},
{
closed = 1;
nodes = (
(181,574,l),
(240,574,ls),
(363,574,o),
(479,540,o),
(479,335,cs),
(479,130,o),
(363,95,o),
(240,95,cs),
(181,95,l)
);
}
);
width = 632;
}
);
unicode = 68;
},
{
glyphname = Dcroat;
kernLeft = H;
kernRight = O;
lastChange = "2024-11-01 12:01:51 +0000";
layers = (
{
layerId = "E15CF202-A01D-48E4-B2F5-B7F7AA5FDF32";
shapes = (
{
closed = 1;
nodes = (
(248,0,ls),
(527,0,o),
(613,231,o),
(613,403,cs),
(613,579,o),
(493,668,o),
(277,668,cs),
(166,668,l),
(104,375,l),
(49,375,l),
(39,327,l),
(94,327,l),
(24,0,l)
);
},
{
closed = 1;
nodes = (
(150,327,l),
(352,327,l),
(362,375,l),
(160,375,l),
(212,620,l),
(276,620,ls),
(463,620,o),
(556,548,o),
(556,403,cs),
(556,244,o),
(482,48,o),
(248,48,cs),
(90,48,l)
);
}
);
width = 632;
},
{
layerId = "60972605-F5BD-4F6B-BF23-CBE59F8EA585";
shapes = (
{
closed = 1;
nodes = (
(275,0,ls),
(547,0,o),
(619,255,o),
(619,390,cs),
(619,585,o),
(496,668,o),
(295,668,cs),
(151,668,l),
(97,413,l),
(52,413,l),
(22,274,l),
(67,274,l),
(9,0,l)
);
},
{
closed = 1;
nodes = (
(222,274,l),
(318,274,l),
(348,413,l),
(252,413,l),
(277,532,l),
(297,532,ls),
(386,532,o),
(459,502,o),
(459,390,cs),
(459,276,o),
(409,138,o),
(281,138,cs),
(193,138,l)
);
}
);
width = 632;
}
);
metricRight = D;
unicode = 272;
},
{
glyphname = Eth;
kernLeft = H;
kernRight = O;
lastChange = "2024-11-01 12:01:51 +0000";
layers = (
{
layerId = "E15CF202-A01D-48E4-B2F5-B7F7AA5FDF32";
shapes = (
{
closed = 1;
nodes = (
(248,0,ls),
(527,0,o),
(613,231,o),
(613,403,cs),
(613,579,o),
(493,668,o),
(277,668,cs),
(166,668,l),
(104,375,l),
(49,375,l),
(39,327,l),
(94,327,l),
(24,0,l)
);
},
{
closed = 1;
nodes = (
(150,327,l),
(352,327,l),
(362,375,l),
(160,375,l),
(212,620,l),
(276,620,ls),
(463,620,o),
(556,548,o),
(556,403,cs),
(556,244,o),
(482,48,o),
(248,48,cs),
(90,48,l)
);
}
);
width = 632;
},
{
layerId = "60972605-F5BD-4F6B-BF23-CBE59F8EA585";
shapes = (
{
closed = 1;
nodes = (
(275,0,ls),
(547,0,o),
(619,255,o),
(619,390,cs),
(619,585,o),
(496,668,o),
(295,668,cs),
(151,668,l),
(97,413,l),
(52,413,l),
(22,274,l),
(67,274,l),
(9,0,l)
);
},
{
closed = 1;
nodes = (
(222,274,l),
(318,274,l),
(348,413,l),
(252,413,l),
(277,532,l),
(297,532,ls),
(386,532,o),
(459,502,o),
(459,390,cs),
(459,276,o),
(409,138,o),
(281,138,cs),
(193,138,l)
);
}
);
width = 632;
}
);
metricRight = D;
unicode = 208;
},
{
glyphname = E;
kernLeft = B;
kernRight = E;
lastChange = "2024-11-01 12:01:51 +0000";
layers = (
{
anchors = (
{
name = bottom;
pos = (263,0);
},
{
name = ogonek;
pos = (486,10);
},
{
name = top;
pos = (426,668);
},
{
name = topleft;
pos = (156,668);
}
);
layerId = "E15CF202-A01D-48E4-B2F5-B7F7AA5FDF32";
shapes = (
{
closed = 1;
nodes = (
(484,0,l),
(494,48,l),
(150,48,l),
(208,320,l),
(485,320,l),
(495,368,l),
(218,368,l),
(272,620,l),
(612,620,l),
(622,668,l),
(226,668,l),
(84,0,l)
);
}
);
width = 632;
},
{
anchors = (
{
name = bottom;
pos = (265,0);
},
{
name = ogonek;
pos = (514,10);
},
{
name = top;
pos = (418,668);
},
{
name = topleft;
pos = (161,668);
}
);
layerId = "60972605-F5BD-4F6B-BF23-CBE59F8EA585";
name = "AHL Variable 05 Mono ExtraBold Mono";
shapes = (
{
closed = 1;
nodes = (
(512,0,l),
(544,150,l),
(237,150,l),
(262,269,l),
(435,269,l),
(467,418,l),
(294,418,l),
(315,518,l),
(618,518,l),
(650,668,l),
(177,668,l),
(35,0,l)
);
}
);
width = 632;
}
);
unicode = 69;
},
{
color = 6;
glyphname = Edieresis;
kernLeft = B;
kernRight = E;
lastChange = "2024-11-01 11:55:55 +0000";
layers = (
{
background = {
anchors = (
{
name = bottom;
pos = (263,0);
},
{
name = ogonek;
pos = (486,10);
},
{
name = top;
pos = (426,668);
},
{
name = topleft;
pos = (156,668);
}
);
shapes = (
{
closed = 1;
nodes = (
(484,0,l),
(494,48,l),
(150,48,l),
(208,320,l),
(485,320,l),
(495,368,l),
(218,368,l),
(272,620,l),
(612,620,l),
(622,668,l),
(226,668,l),
(84,0,l)
);
},
{
pos = (50,0);
ref = dieresiscomb.case;
}
);
};
layerId = "E15CF202-A01D-48E4-B2F5-B7F7AA5FDF32";
shapes = (
{
ref = E;
},
{
pos = (21,0);
ref = dieresiscomb.case;
}
);
width = 632;
},
{
background = {
shapes = (
{
closed = 1;
nodes = (
(589,0,l),
(589,150,l),
(234,150,l),
(234,269,l),
(442,269,l),
(442,418,l),
(234,418,l),
(234,518,l),
(585,518,l),
(585,668,l),
(64,668,l),
(64,0,l)
);
},
{
closed = 1;
nodes = (
(478,717,o),
(514,753,o),
(514,796,cs),
(514,839,o),
(478,875,o),
(435,875,cs),
(392,875,o),
(356,839,o),
(356,796,cs),
(356,753,o),
(392,717,o),
(435,717,cs)
);
},
{
closed = 1;
nodes = (
(266,717,o),
(302,753,o),
(302,796,cs),
(302,839,o),
(266,875,o),
(223,875,cs),
(180,875,o),
(144,839,o),
(144,796,cs),
(144,753,o),
(180,717,o),
(223,717,cs)
);
}
);
};
layerId = "60972605-F5BD-4F6B-BF23-CBE59F8EA585";
shapes = (
{
ref = E;
},
{
pos = (15,0);
ref = dieresiscomb.case;
}
);
width = 632;
}
);
metricLeft = E;
metricRight = E;
unicode = 203;
},
{
glyphname = Eogonek;
kernLeft = B;
kernRight = E;
lastChange = "2024-11-01 12:01:51 +0000";
layers = (
{
anchors = (
{
name = top;
pos = (281,668);
},
{
name = topleft;
pos = (156,668);
}
);
layerId = "E15CF202-A01D-48E4-B2F5-B7F7AA5FDF32";
shapes = (
{
closed = 1;
nodes = (
(416,0,l),
(373,-22,o),
(333,-54,o),
(333,-103,cs),
(333,-147,o),
(373,-168,o),
(417,-168,cs),
(426,-168,o),
(436,-167,o),
(449,-163,c),
(457,-123,l),
(450,-125,o),
(437,-127,o),
(432,-127,cs),
(402,-127,o),
(381,-119,o),
(381,-92,cs),
(381,-46,o),
(440,-13,o),
(484,0,c),
(494,48,l),
(150,48,l),
(208,320,l),
(485,320,l),
(495,368,l),
(218,368,l),
(272,620,l),
(612,620,l),
(622,668,l),
(226,668,l),
(84,0,l)
);
}
);
width = 632;
},
{
anchors = (
{
name = top;
pos = (291,668);
},
{
name = topleft;
pos = (161,668);
}
);
layerId = "60972605-F5BD-4F6B-BF23-CBE59F8EA585";
shapes = (
{
closed = 1;
nodes = (
(342,0,l),
(301,-18,o),
(259,-47,o),
(259,-90,cs),
(259,-152,o),
(354,-176,o),
(433,-176,cs),
(447,-176,o),
(463,-175,o),
(475,-172,c),
(492,-91,l),
(485,-92,o),
(464,-95,o),
(446,-95,cs),
(422,-95,o),
(401,-87,o),
(401,-67,cs),
(401,-36,o),
(465,-3,o),
(512,0,c),
(544,150,l),
(237,150,l),
(262,269,l),
(435,269,l),
(467,418,l),
(294,418,l),
(315,518,l),
(618,518,l),
(650,668,l),
(177,668,l),
(35,0,l)
);
}
);
width = 632;
}
);
metricLeft = E;
metricRight = E;
unicode = 280;
},
{
glyphname = F;
kernLeft = B;
kernRight = F;
lastChange = "2024-11-01 12:01:51 +0000";
layers = (
{
anchors = (
{
name = bottom;
pos = (256,0);
},
{
name = top;
pos = (398,668);
}
);
layerId = "E15CF202-A01D-48E4-B2F5-B7F7AA5FDF32";
shapes = (
{
closed = 1;
nodes = (
(140,0,l),
(208,320,l),
(548,320,l),
(558,368,l),
(218,368,l),
(272,620,l),
(616,620,l),
(626,668,l),
(226,668,l),
(84,0,l)
);
}
);
width = 632;
},
{
anchors = (
{
name = bottom;
pos = (259,0);
},
{
name = top;
pos = (401,668);
}
);
layerId = "60972605-F5BD-4F6B-BF23-CBE59F8EA585";
name = "AHL Variable 05 Mono ExtraBold Mono";
shapes = (
{
closed = 1;
nodes = (
(210,0,l),
(260,233,l),
(557,233,l),
(589,383,l),
(291,383,l),
(320,518,l),
(622,518,l),
(654,668,l),
(182,668,l),
(40,0,l)
);
}
);
width = 632;
}
);
unicode = 70;
},
{
glyphname = G;
kernLeft = O;
kernRight = G;
lastChange = "2024-11-01 12:01:51 +0000";
layers = (
{
anchors = (
{
name = bottom;
pos = (287,0);
},
{
name = top;
pos = (408,668);
}
);
guides = (
{
angle = 21.1941;
pos = (490,499);
}
);
layerId = "E15CF202-A01D-48E4-B2F5-B7F7AA5FDF32";
shapes = (
{
closed = 1;
nodes = (
(343,-12,o),
(431,12,o),
(493,93,c),
(485,0,l),
(525,0,l),
(595,327,l),
(342,327,l),
(332,279,l),
(531,279,l),
(526,254,ls),
(491,80,o),
(362,36,o),
(292,36,cs),
(168,36,o),
(111,143,o),
(111,267,cs),
(111,409,o),
(195,632,o),
(385,632,cs),
(466,632,o),
(536,592,o),
(558,505,c),
(608,522,l),
(578,629,o),
(488,680,o),
(386,680,cs),
(154,680,o),
(54,428,o),
(54,262,cs),
(54,112,o),
(133,-12,o),
(287,-12,cs)
);
}
);
width = 632;
},
{
anchors = (
{
name = bottom;
pos = (270,0);
},
{
name = top;
pos = (398,668);
}
);
layerId = "60972605-F5BD-4F6B-BF23-CBE59F8EA585";
name = "AHL Variable 05 Mono ExtraBold Mono";
shapes = (
{
closed = 1;
nodes = (
(322,-12,o),
(383,11,o),
(428,66,c),
(435,0,l),
(529,0,l),
(611,384,l),
(352,384,l),
(325,257,l),
(442,257,l),
(437,237,ls),
(415,150,o),
(371,123,o),
(317,123,cs),
(238,123,o),
(208,186,o),
(208,265,cs),
(208,368,o),
(258,545,o),
(379,545,cs),
(415,545,o),
(458,527,o),
(473,480,c),
(606,525,l),
(579,629,o),
(487,680,o),
(386,680,cs),
(150,680,o),
(48,429,o),
(48,249,cs),
(48,104,o),
(112,-12,o),
(260,-12,cs)
);
}
);
width = 632;
}
);
unicode = 71;
},
{
glyphname = H;
kernLeft = B;
kernRight = H;
lastChange = "2024-11-01 12:01:51 +0000";
layers = (
{
anchors = (
{
name = bottom;
pos = (262,0);
},
{
name = center;
pos = (378,540);
},
{
name = top;
pos = (404,668);
},
{
name = topleft;
pos = (77,668);
}
);
layerId = "E15CF202-A01D-48E4-B2F5-B7F7AA5FDF32";
shapes = (
{
closed = 1;
nodes = (
(68,0,l),
(136,321,l),
(526,321,l),
(458,0,l),
(514,0,l),
(656,668,l),
(600,668,l),
(536,369,l),
(146,369,l),
(210,668,l),
(154,668,l),
(12,0,l)
);
}
);
width = 632;
},
{
anchors = (
{
name = bottom;
pos = (264,0);
},
{
name = center;
pos = (380,546);
},
{
name = top;
pos = (406,668);
},
{
name = topleft;
pos = (71,668);
}
);
layerId = "60972605-F5BD-4F6B-BF23-CBE59F8EA585";
name = "AHL Variable 05 Mono ExtraBold Mono";
shapes = (
{
closed = 1;
nodes = (
(168,0,l),
(225,268,l),
(415,268,l),
(358,0,l),
(528,0,l),
(670,668,l),
(500,668,l),
(447,418,l),
(257,418,l),
(310,668,l),
(140,668,l),
(-2,0,l)
);
}
);
width = 632;
},
{
anchors = (
{
name = bottom;
pos = (316,0);
},
{
name = center;
pos = (317,543);
},
{
name = top;
pos = (316,668);
},
{
name = topleft;
pos = (-15,668);
}
);
associatedMasterId = "60972605-F5BD-4F6B-BF23-CBE59F8EA585";
layerId = "4AD1DCC4-16FE-452B-AE05-DA72F3DF7B6C";
name = "18 Apr 24 at 15:54";
shapes = (
{
closed = 1;
nodes = (
(174,0,l),
(174,293,l),
(458,293,l),
(458,0,l),
(574,0,l),
(574,668,l),
(458,668,l),
(458,395,l),
(174,395,l),
(174,668,l),
(58,668,l),
(58,0,l)
);
}
);
width = 632;
}
);
unicode = 72;
},
{
glyphname = Hbar;
kernLeft = H;
kernRight = H;
lastChange = "2024-11-01 12:01:51 +0000";
layers = (
{
layerId = "E15CF202-A01D-48E4-B2F5-B7F7AA5FDF32";
shapes = (
{
closed = 1;
nodes = (
(68,0,l),
(136,321,l),
(526,321,l),
(458,0,l),
(514,0,l),
(624,517,l),
(679,517,l),
(689,563,l),
(634,563,l),
(656,668,l),
(600,668,l),
(578,563,l),
(188,563,l),
(210,668,l),
(154,668,l),
(132,563,l),
(77,563,l),
(67,517,l),
(122,517,l),
(12,0,l)
);
},
{
closed = 1;
nodes = (
(178,517,l),
(568,517,l),
(536,369,l),
(146,369,l)
);
}
);
width = 632;
},
{
layerId = "60972605-F5BD-4F6B-BF23-CBE59F8EA585";
shapes = (
{
closed = 1;
nodes = (
(168,0,l),
(225,268,l),
(415,268,l),
(358,0,l),
(528,0,l),
(634,498,l),
(679,498,l),
(699,594,l),
(654,594,l),
(670,668,l),
(500,668,l),
(484,594,l),
(294,594,l),
(310,668,l),
(140,668,l),
(124,594,l),
(79,594,l),
(59,498,l),
(104,498,l),
(-2,0,l)
);
},
{
closed = 1;
nodes = (
(274,498,l),
(464,498,l),
(447,418,l),
(257,418,l)
);
}
);
width = 632;
}
);
unicode = 294;
},
{
glyphname = I;
kernLeft = I;
kernRight = I;
lastChange = "2024-11-01 12:01:51 +0000";
layers = (
{
anchors = (
{
name = bottom;
pos = (263,0);
},
{
name = ogonek;
pos = (438,10);
},
{
name = top;
pos = (405,668);
},
{
name = topleft;
pos = (232,668);
}
);
layerId = "E15CF202-A01D-48E4-B2F5-B7F7AA5FDF32";
shapes = (
{
closed = 1;
nodes = (
(436,0,l),
(445,42,l),
(300,42,l),
(424,626,l),
(569,626,l),
(578,668,l),
(232,668,l),
(223,626,l),
(368,626,l),
(244,42,l),
(99,42,l),
(90,0,l)
);
}
);
width = 632;
},
{
anchors = (
{
name = bottom;
pos = (263,0);
},
{
name = ogonek;
pos = (472,10);
},
{
name = top;
pos = (405,668);
},
{
name = topleft;
pos = (190,668);
}
);
layerId = "60972605-F5BD-4F6B-BF23-CBE59F8EA585";
name = "AHL Variable 05 Mono ExtraBold Mono";
shapes = (
{
closed = 1;
nodes = (
(470,0,l),
(496,124,l),
(374,124,l),
(464,544,l),
(586,544,l),
(612,668,l),
(198,668,l),
(172,544,l),
(294,544,l),
(204,124,l),
(82,124,l),
(56,0,l)
);
}
);
width = 632;
}
);
unicode = 73;
},
{
glyphname = IJ;
kernLeft = I;
kernRight = U;
lastChange = "2024-11-06 14:11:30 +0000";
layers = (
{
layerId = "E15CF202-A01D-48E4-B2F5-B7F7AA5FDF32";
shapes = (
{
closed = 1;
nodes = (
(470,-12,o),
(538,42,o),
(564,165,cs),
(671,668,l),
(615,668,l),
(510,174,ls),
(485,56,o),
(427,36,o),
(387,36,cs),
(302,36,o),
(285,116,o),
(304,205,c),
(248,196,l),
(225,71,o),
(272,-12,o),
(384,-12,cs)
);
},
{
closed = 1;
nodes = (
(173,0,l),
(182,42,l),
(102,42,l),
(226,626,l),
(306,626,l),
(315,668,l),
(99,668,l),
(90,626,l),
(170,626,l),
(46,42,l),
(-34,42,l),
(-43,0,l)
);
}
);
width = 632;
},
{
layerId = "60972605-F5BD-4F6B-BF23-CBE59F8EA585";
shapes = (
{
closed = 1;
nodes = (
(517,-12,o),
(583,64,o),
(610,190,cs),
(711,668,l),
(571,668,l),
(468,184,ls),
(455,125,o),
(439,108,o),
(417,108,cs),
(384,108,o),
(380,147,o),
(387,191,c),
(254,143,l),
(264,51,o),
(309,-12,o),
(407,-12,cs)
);
},
{
closed = 1;
nodes = (
(192,0,l),
(219,124,l),
(169,124,l),
(258,544,l),
(308,544,l),
(334,668,l),
(94,668,l),
(68,544,l),
(118,544,l),
(29,124,l),
(-21,124,l),
(-48,0,l)
);
}
);
width = 632;
}
);
unicode = 306;
},
{
glyphname = Iogonek;
kernLeft = I;
kernRight = I;
lastChange = "2024-11-01 12:01:51 +0000";
layers = (
{
anchors = (
{
name = top;
pos = (405,668);
},
{
name = topleft;
pos = (232,668);
}
);
layerId = "E15CF202-A01D-48E4-B2F5-B7F7AA5FDF32";
shapes = (
{
closed = 1;
nodes = (
(368,0,l),
(325,-22,o),
(285,-54,o),
(285,-103,cs),
(285,-147,o),
(325,-168,o),
(369,-168,cs),
(378,-168,o),
(388,-167,o),
(401,-163,c),
(409,-123,l),
(402,-125,o),
(389,-127,o),
(384,-127,cs),
(354,-127,o),
(333,-119,o),
(333,-92,cs),
(333,-46,o),
(392,-13,o),
(436,0,c),
(445,42,l),
(300,42,l),
(424,626,l),
(569,626,l),
(578,668,l),
(232,668,l),
(223,626,l),
(368,626,l),
(244,42,l),
(99,42,l),
(90,0,l)
);
}
);
width = 632;
},
{
anchors = (
{
name = top;
pos = (405,668);
},
{
name = topleft;
pos = (190,668);
}
);
layerId = "60972605-F5BD-4F6B-BF23-CBE59F8EA585";
shapes = (
{
closed = 1;
nodes = (
(300,0,l),
(259,-18,o),
(217,-47,o),
(217,-90,cs),
(217,-152,o),
(312,-176,o),
(391,-176,cs),
(405,-176,o),
(421,-175,o),
(433,-172,c),
(450,-91,l),
(443,-92,o),
(422,-95,o),
(404,-95,cs),
(380,-95,o),
(359,-87,o),
(359,-67,cs),
(359,-36,o),
(423,-3,o),
(470,0,c),
(496,124,l),
(374,124,l),
(464,544,l),
(586,544,l),
(612,668,l),
(198,668,l),
(172,544,l),
(294,544,l),
(204,124,l),
(82,124,l),
(56,0,l)
);
}
);
width = 632;
}
);
metricLeft = I;
metricRight = I;
unicode = 302;
},
{
glyphname = J;
kernLeft = J;
kernRight = U;
lastChange = "2024-11-01 12:01:51 +0000";
layers = (
{
anchors = (
{
name = bottom;
pos = (270,0);
},
{
name = top;
pos = (562,668);
}
);
layerId = "E15CF202-A01D-48E4-B2F5-B7F7AA5FDF32";
shapes = (
{
closed = 1;
nodes = (
(374,-12,o),
(458,43,o),
(483,162,cs),
(590,668,l),
(534,668,l),
(428,169,ls),
(405,59,o),
(328,36,o),
(267,36,cs),
(137,36,o),
(95,114,o),
(114,207,c),
(59,196,l),
(39,53,o),
(132,-12,o),
(265,-12,cs)
);
}
);
width = 632;
},
{
anchors = (
{
name = bottom;
pos = (257,0);
},
{
name = top;
pos = (572,668);
}
);
layerId = "60972605-F5BD-4F6B-BF23-CBE59F8EA585";
shapes = (
{
closed = 1;
nodes = (
(435,-12,o),
(532,79,o),
(565,236,cs),
(657,668,l),
(487,668,l),
(399,254,ls),
(379,160,o),
(343,122,o),
(279,122,cs),
(207,122,o),
(176,159,o),
(167,232,c),
(5,174,l),
(29,41,o),
(138,-12,o),
(272,-12,cs)
);
}
);
width = 632;
}
);
unicode = 74;
},
{
glyphname = K;
kernLeft = H;
kernRight = K;
lastChange = "2024-11-01 12:01:51 +0000";
layers = (
{
anchors = (
{
name = bottom;
pos = (263,0);
},
{
name = top;
pos = (395,668);
}
);
layerId = "E15CF202-A01D-48E4-B2F5-B7F7AA5FDF32";
shapes = (
{
closed = 1;
nodes = (
(101,0,l),
(147,215,l),
(298,351,l),
(482,0,l),
(547,0,l),
(339,388,l),
(652,668,l),
(576,668,l),
(163,293,l),
(243,668,l),
(187,668,l),
(45,0,l)
);
}
);
width = 632;
},
{
anchors = (
{
name = bottom;
pos = (267,0);
},
{
name = top;
pos = (414,668);
}
);
layerId = "60972605-F5BD-4F6B-BF23-CBE59F8EA585";
shapes = (
{
closed = 1;
nodes = (
(159,0,l),
(199,188,l),
(277,264,l),
(386,0,l),
(564,0,l),
(398,380,l),
(697,668,l),
(510,668,l),
(246,409,l),
(301,668,l),
(146,668,l),
(4,0,l)
);
}
);
width = 632;
},
{
anchors = (
{
name = bottom;
pos = (308,0);
},
{
name = top;
pos = (316,668);
}
);
associatedMasterId = "60972605-F5BD-4F6B-BF23-CBE59F8EA585";
background = {
shapes = (
{
closed = 1;
nodes = (
(-2646,0,l),
(-2646,195,l),
(-2209,668,l),
(-2416,668,l),
(-2646,416,l),
(-2646,668,l),
(-2816,668,l),
(-2816,0,l)
);
},
{
closed = 1;
nodes = (
(-2199,0,l),
(-2519,441,l),
(-2627,323,l),
(-2395,0,l)
);
},
{
closed = 1;
nodes = (
(-1685,0,l),
(-1685,195,l),
(-1289,668,l),
(-1477,668,l),
(-1685,416,l),
(-1685,668,l),
(-1839,668,l),
(-1839,0,l)
);
},
{
closed = 1;
nodes = (
(-1280,0,l),
(-1570,441,l),
(-1668,323,l),
(-1457,0,l)
);
},
{
closed = 1;
nodes = (
(-736,0,l),
(-736,195,l),
(-340,668,l),
(-528,668,l),
(-736,416,l),
(-736,668,l),
(-891,668,l),
(-891,0,l)
);
},
{
closed = 1;
nodes = (
(-331,0,l),
(-621,441,l),
(-719,323,l),
(-508,0,l)
);
},
{
closed = 1;
nodes = (
(185,0,l),
(185,206,l),
(587,668,l),
(455,668,l),
(185,355,l),
(185,668,l),
(76,668,l),
(76,0,l)
);
},
{
closed = 1;
nodes = (
(609,0,l),
(318,426,l),
(244,344,l),
(476,0,l)
);
}
);
};
layerId = "6FD05CD0-EEE9-4C3A-AD5B-4AFF7E58D172";
name = "18 Apr 24 at 15:56";
shapes = (
{
closed = 1;
nodes = (
(189,0,l),
(189,204,l),
(591,668,l),
(451,668,l),
(189,357,l),
(189,668,l),
(73,668,l),
(73,0,l)
);
},
{
closed = 1;
nodes = (
(613,0,l),
(322,426,l),
(240,344,l),
(472,0,l)
);
}
);
width = 632;
}
);
unicode = 75;
},
{
glyphname = L;
kernLeft = H;
kernRight = L;
lastChange = "2024-11-01 12:01:51 +0000";
layers = (
{
anchors = (
{
name = bottom;
pos = (290,0);
},
{
name = center;
pos = (235,330);
},
{
name = top;
pos = (409,668);
},
{
name = topright;
pos = (325,459);
}
);
layerId = "E15CF202-A01D-48E4-B2F5-B7F7AA5FDF32";
shapes = (
{
closed = 1;
nodes = (
(529,0,l),
(539,48,l),
(160,48,l),
(292,668,l),
(236,668,l),
(94,0,l)
);
}
);
width = 632;
},
{
anchors = (
{
name = bottom;
pos = (290,0);
},
{
name = center;
pos = (250,363);
},
{
name = top;
pos = (421,668);
},
{
name = topright;
pos = (360,459);
}
);
layerId = "60972605-F5BD-4F6B-BF23-CBE59F8EA585";
name = "AHL Variable 05 Mono ExtraBold Mono";
shapes = (
{
closed = 1;
nodes = (
(531,0,l),
(563,150,l),
(250,150,l),
(360,668,l),
(190,668,l),
(48,0,l)
);
}
);
width = 632;
}
);
unicode = 76;
},
{
color = 6;
glyphname = Lcaron;
kernLeft = H;
kernRight = L;
lastChange = "2024-11-01 11:55:55 +0000";
layers = (
{
background = {
anchors = (
{
name = _topright;
pos = (185,459);
},
{
name = bottom;
pos = (255,0);
},
{
name = center;
pos = (153,330);
},
{
name = top;
pos = (255,668);
},
{
name = topright;
pos = (185,459);
}
);
shapes = (
{
closed = 1;
nodes = (
(517,0,l),
(517,48,l),
(138,48,l),
(138,668,l),
(82,668,l),
(82,0,l)
);
},
{
closed = 1;
nodes = (
(238,503,l),
(277,616,ls),
(285,638,o),
(288,648,o),
(288,655,cs),
(288,675,o),
(272,681,o),
(259,681,cs),
(237,681,o),
(230,665,o),
(225,632,cs),
(205,503,l)
);
}
);
};
layerId = "E15CF202-A01D-48E4-B2F5-B7F7AA5FDF32";
shapes = (
{
ref = L;
},
{
pos = (14,-37);
ref = caroncomb.alt;
}
);
width = 632;
},
{
background = {
anchors = (
{
name = _topright;
pos = (238,459);
},
{
name = bottom;
pos = (285,0);
},
{
name = center;
pos = (179,363);
},
{
name = top;
pos = (285,668);
},
{
name = topright;
pos = (238,459);
}
);
shapes = (
{
closed = 1;
nodes = (
(537,0,l),
(537,150,l),
(224,150,l),
(224,668,l),
(54,668,l),
(54,0,l)
);
},
{
closed = 1;
nodes = (
(344,487,l),
(381,569,ls),
(394,597,o),
(399,609,o),
(399,624,cs),
(399,648,o),
(378,681,o),
(341,681,cs),
(318,681,o),
(288,665,o),
(282,631,cs),
(258,487,l)
);
}
);
};
layerId = "60972605-F5BD-4F6B-BF23-CBE59F8EA585";
shapes = (
{
ref = L;
},
{
pos = (76,-37);
ref = caroncomb.alt;
}
);
width = 632;
}
);
metricLeft = L;
metricRight = L;
unicode = 317;
},
{
glyphname = Lslash;
kernLeft = H;
kernRight = L;
lastChange = "2024-11-01 12:01:51 +0000";
layers = (
{
layerId = "E15CF202-A01D-48E4-B2F5-B7F7AA5FDF32";
shapes = (
{
closed = 1;
nodes = (
(529,0,l),
(539,48,l),
(160,48,l),
(212,291,l),
(438,406,l),
(451,466,l),
(224,351,l),
(292,668,l),
(236,668,l),
(162,319,l),
(32,253,l),
(19,193,l),
(149,259,l),
(94,0,l)
);
}
);
width = 632;
},
{
layerId = "60972605-F5BD-4F6B-BF23-CBE59F8EA585";
shapes = (
{
closed = 1;
nodes = (
(531,0,l),
(563,150,l),
(250,150,l),
(286,320,l),
(454,406,l),
(483,544,l),
(315,458,l),
(360,668,l),
(190,668,l),
(124,360,l),
(45,319,l),
(16,182,l),
(95,223,l),
(48,0,l)
);
}
);
width = 632;
}
);
metricRight = L;
unicode = 321;
},
{
glyphname = M;
kernLeft = H;
kernRight = H;
lastChange = "2024-11-01 12:01:51 +0000";
layers = (
{
anchors = (
{
name = bottom;
pos = (263,0);
},
{
name = top;
pos = (405,668);
}
);
layerId = "E15CF202-A01D-48E4-B2F5-B7F7AA5FDF32";
shapes = (
{
closed = 1;
nodes = (
(54,0,l),
(183,608,l),
(187,608,l),
(233,0,l),
(295,0,l),
(597,608,l),
(601,608,l),
(472,0,l),
(528,0,l),
(670,668,l),
(571,668,l),
(281,75,l),
(277,75,l),
(235,668,l),
(140,668,l),
(-2,0,l)
);
}
);
width = 632;
},
{
anchors = (
{
name = bottom;
pos = (263,0);
},
{
name = top;
pos = (405,668);
}
);
layerId = "60972605-F5BD-4F6B-BF23-CBE59F8EA585";
name = "AHL Variable 05 Mono ExtraBold Mono";
shapes = (
{
closed = 1;
nodes = (
(104,0,l),
(211,502,l),
(215,502,l),
(200,0,l),
(323,0,l),
(523,502,l),
(527,502,l),
(420,0,l),
(544,0,l),
(686,668,l),
(491,668,l),
(313,212,l),
(309,212,l),
(327,668,l),
(124,668,l),
(-18,0,l)
);
}
);
width = 632;
}
);
unicode = 77;
},
{
glyphname = N;
kernLeft = H;
kernRight = H;
lastChange = "2024-11-01 12:01:51 +0000";
layers = (
{
anchors = (
{
name = bottom;
pos = (250,0);
},
{
name = top;
pos = (405,668);
}
);
layerId = "E15CF202-A01D-48E4-B2F5-B7F7AA5FDF32";
shapes = (
{
closed = 1;
nodes = (
(88,0,l),
(217,606,l),
(221,606,l),
(410,0,l),
(494,0,l),
(636,668,l),
(580,668,l),
(451,62,l),
(447,62,l),
(258,668,l),
(174,668,l),
(32,0,l)
);
}
);
width = 632;
},
{
anchors = (
{
name = bottom;
pos = (255,0);
},
{
name = top;
pos = (405,668);
}
);
layerId = "60972605-F5BD-4F6B-BF23-CBE59F8EA585";
name = "AHL Variable 05 Mono ExtraBold Mono";
shapes = (
{
closed = 1;
nodes = (
(140,0,l),
(237,456,l),
(241,456,l),
(351,0,l),
(528,0,l),
(670,668,l),
(528,668,l),
(431,212,l),
(427,212,l),
(317,668,l),
(140,668,l),
(-2,0,l)
);
}
);
width = 632;
}
);
unicode = 78;
},
{
glyphname = O;
kernLeft = O;
kernRight = O;
lastChange = "2024-11-01 12:01:51 +0000";
layers = (
{
anchors = (
{
name = bottom;
pos = (264,0);
},
{
name = center;
pos = (335,334);
},
{
name = ogonek;
pos = (535,10);
},
{
name = top;
pos = (406,668);
},
{
name = topleft;
pos = (86,668);
},
{
name = topright;
pos = (724,668);
}
);
layerId = "E15CF202-A01D-48E4-B2F5-B7F7AA5FDF32";
shapes = (
{
closed = 1;
nodes = (
(509,-12,o),
(615,228,o),
(615,412,cs),
(615,562,o),
(543,680,o),
(380,680,cs),
(159,680,o),
(53,440,o),
(53,256,cs),
(53,106,o),
(125,-12,o),
(288,-12,cs)
);
},
{
closed = 1;
nodes = (
(163,36,o),
(110,134,o),
(110,257,cs),
(110,400,o),
(188,632,o),
(378,632,cs),
(505,632,o),
(558,534,o),
(558,411,cs),
(558,268,o),
(480,36,o),
(290,36,cs)
);
}
);
width = 632;
},
{
anchors = (
{
name = bottom;
pos = (264,0);
},
{
name = center;
pos = (335,334);
},
{
name = ogonek;
pos = (506,10);
},
{
name = top;
pos = (406,668);
},
{
name = topleft;
pos = (121,668);
},
{
name = topright;
pos = (691,668);
}
);
layerId = "60972605-F5BD-4F6B-BF23-CBE59F8EA585";
name = "AHL Variable 05 Mono ExtraBold Mono";
shapes = (
{
closed = 1;
nodes = (
(520,-12,o),
(620,229,o),
(620,417,cs),
(620,574,o),
(544,680,o),
(377,680,cs),
(148,680,o),
(48,439,o),
(48,251,cs),
(48,94,o),
(124,-12,o),
(291,-12,cs)
);
},
{
closed = 1;
nodes = (
(231,123,o),
(210,182,o),
(210,250,cs),
(210,345,o),
(255,545,o),
(369,545,cs),
(437,545,o),
(458,486,o),
(458,418,cs),
(458,323,o),
(413,123,o),
(299,123,cs)
);
}
);
width = 632;
}
);
unicode = 79;
},
{
glyphname = Oslash;
kernLeft = O;
kernRight = O;
lastChange = "2024-11-06 15:28:45 +0000";
layers = (
{
anchors = (
{
name = bottom;
pos = (264,0);
},
{
name = center;
pos = (335,334);
},
{
name = ogonek;
pos = (535,10);
},
{
name = top;
pos = (406,668);
},
{
name = topleft;
pos = (86,668);
},
{
name = topright;
pos = (724,668);
}
);
guides = (
{
angle = 78;
pos = (604,305);
},
{
angle = 78;
pos = (64,363);
}
);
layerId = "E15CF202-A01D-48E4-B2F5-B7F7AA5FDF32";
shapes = (
{
closed = 1;
nodes = (
(509,-12,o),
(615,228,o),
(615,412,cs),
(615,466,o),
(606,516,o),
(586,558,c),
(671,643,l),
(643,670,l),
(566,593,l),
(528,647,o),
(467,680,o),
(380,680,cs),
(159,680,o),
(53,440,o),
(53,256,cs),
(53,201,o),
(63,151,o),
(83,109,c),
(-1,25,l),
(26,-3,l),
(103,74,l),
(141,21,o),
(202,-12,o),
(288,-12,cs)
);
},
{
closed = 1;
nodes = (
(219,36,o),
(172,66,o),
(143,114,c),
(543,514,l),
(553,484,o),
(558,448,o),
(558,411,cs),
(558,268,o),
(480,36,o),
(290,36,cs)
);
},
{
closed = 1;
nodes = (
(115,183,o),
(110,219,o),
(110,257,cs),
(110,400,o),
(188,632,o),
(378,632,cs),
(449,632,o),
(497,601,o),
(526,552,c),
(126,152,l)
);
}
);
width = 632;
},
{
anchors = (
{
name = bottom;
pos = (264,0);
},
{
name = center;
pos = (335,334);
},
{
name = ogonek;
pos = (506,10);
},
{
name = top;
pos = (406,668);
},
{
name = topleft;
pos = (121,668);
},
{
name = topright;
pos = (691,668);
}
);
guides = (
{
angle = 78;
pos = (609,305);
},
{
angle = 78;
pos = (59,363);
}
);
layerId = "60972605-F5BD-4F6B-BF23-CBE59F8EA585";
shapes = (
{
closed = 1;
nodes = (
(520,-12,o),
(620,229,o),
(620,417,cs),
(620,473,o),
(610,522,o),
(590,563,c),
(650,630,l),
(591,680,l),
(543,626,l),
(503,661,o),
(449,680,o),
(377,680,cs),
(148,680,o),
(48,439,o),
(48,251,cs),
(48,195,o),
(58,145,o),
(78,105,c),
(18,37,l),
(77,-13,l),
(126,42,l),
(165,7,o),
(220,-12,o),
(291,-12,cs)
);
},
{
closed = 1;
nodes = (
(266,123,o),
(244,137,o),
(230,159,c),
(458,414,l),
(458,413,o),
(458,413,o),
(458,412,cs),
(458,315,o),
(410,123,o),
(299,123,cs)
);
},
{
closed = 1;
nodes = (
(210,253,o),
(210,254,o),
(210,254,cs),
(211,350,o),
(256,545,o),
(369,545,cs),
(402,545,o),
(424,531,o),
(438,509,c),
(210,253,l)
);
}
);
width = 632;
}
);
metricLeft = O;
metricRight = O;
unicode = 216;
},
{
glyphname = OE;
kernLeft = O;
kernRight = E;
lastChange = "2024-11-01 12:01:51 +0000";
layers = (
{
anchors = (
{
name = bottom;
pos = (263,0);
},
{
name = top;
pos = (405,668);
}
);
layerId = "E15CF202-A01D-48E4-B2F5-B7F7AA5FDF32";
shapes = (
{
closed = 1;
nodes = (
(227,-12,o),
(277,23,o),
(316,75,c),
(300,0,l),
(564,0,l),
(574,48,l),
(366,48,l),
(424,320,l),
(584,320,l),
(594,368,l),
(434,368,l),
(488,620,l),
(692,620,l),
(702,668,l),
(442,668,l),
(419,559,l),
(402,629,o),
(361,680,o),
(280,680,cs),
(89,680,o),
(12,361,o),
(12,208,cs),
(12,94,o),
(48,-12,o),
(164,-12,cs)
);
},
{
closed = 1;
nodes = (
(92,36,o),
(69,115,o),
(69,203,cs),
(69,331,o),
(131,632,o),
(280,632,cs),
(361,632,o),
(385,552,o),
(385,463,cs),
(385,326,o),
(320,36,o),
(173,36,cs)
);
}
);
width = 632;
},
{
anchors = (
{
name = bottom;
pos = (265,0);
},
{
name = top;
pos = (407,668);
}
);
layerId = "60972605-F5BD-4F6B-BF23-CBE59F8EA585";
shapes = (
{
closed = 1;
nodes = (
(205,-12,o),
(239,0,o),
(269,21,c),
(264,0,l),
(578,0,l),
(606,130,l),
(414,130,l),
(445,279,l),
(542,279,l),
(570,408,l),
(473,408,l),
(500,538,l),
(690,538,l),
(718,668,l),
(406,668,l),
(397,626,l),
(373,659,o),
(337,680,o),
(286,680,cs),
(93,680,o),
(10,382,o),
(10,207,cs),
(10,89,o),
(48,-12,o),
(168,-12,cs)
);
},
{
closed = 1;
nodes = (
(157,108,o),
(143,153,o),
(143,207,cs),
(143,287,o),
(188,560,o),
(288,560,cs),
(336,560,o),
(350,514,o),
(350,458,cs),
(350,370,o),
(305,108,o),
(205,108,cs)
);
}
);
width = 632;
}
);
unicode = 338;
},
{
glyphname = P;
kernLeft = H;
kernRight = P;
lastChange = "2024-11-01 12:01:51 +0000";
layers = (
{
anchors = (
{
name = bottom;
pos = (264,0);
},
{
name = top;
pos = (406,668);
}
);
layerId = "E15CF202-A01D-48E4-B2F5-B7F7AA5FDF32";
shapes = (
{
closed = 1;
nodes = (
(122,0,l),
(183,285,l),
(379,285,ls),
(524,285,o),
(613,368,o),
(613,500,cs),
(613,605,o),
(531,668,o),
(389,668,cs),
(208,668,l),
(66,0,l)
);
},
{
closed = 1;
nodes = (
(254,620,l),
(385,620,ls),
(492,620,o),
(556,579,o),
(556,496,cs),
(556,387,o),
(488,333,o),
(383,333,cs),
(193,333,l)
);
}
);
width = 632;
},
{
anchors = (
{
name = bottom;
pos = (276,0);
},
{
name = top;
pos = (418,668);
}
);
layerId = "60972605-F5BD-4F6B-BF23-CBE59F8EA585";
shapes = (
{
closed = 1;
nodes = (
(168,0,l),
(215,223,l),
(382,223,ls),
(547,223,o),
(651,329,o),
(651,473,cs),
(651,596,o),
(551,668,o),
(408,668,cs),
(155,668,l),
(13,0,l)
);
},
{
closed = 1;
nodes = (
(282,534,l),
(395,534,ls),
(452,534,o),
(490,506,o),
(490,457,cs),
(490,412,o),
(465,357,o),
(380,357,cs),
(244,357,l)
);
}
);
width = 632;
},
{
anchors = (
{
name = bottom;
pos = (323,0);
},
{
name = top;
pos = (323,668);
}
);
associatedMasterId = "60972605-F5BD-4F6B-BF23-CBE59F8EA585";
background = {
shapes = (
{
closed = 1;
nodes = (
(199,0,l),
(199,252,l),
(341,252,ls),
(481,252,o),
(588,317,o),
(588,461,cs),
(588,604,o),
(481,668,o),
(341,668,cs),
(91,668,l),
(91,0,l)
);
},
{
closed = 1;
nodes = (
(199,575,l),
(336,575,ls),
(418,575,o),
(476,544,o),
(476,461,cs),
(476,376,o),
(418,346,o),
(336,346,cs),
(199,346,l)
);
}
);
};
layerId = "F8A1EDE0-4861-4F2D-90E6-1C5EFBD2C1D6";
name = "18 Apr 24 at 15:56";
shapes = (
{
closed = 1;
nodes = (
(203,0,l),
(203,252,l),
(345,252,ls),
(485,252,o),
(592,317,o),
(592,461,cs),
(592,604,o),
(485,668,o),
(345,668,cs),
(87,668,l),
(87,0,l)
);
},
{
closed = 1;
nodes = (
(203,575,l),
(332,575,ls),
(414,575,o),
(472,544,o),
(472,461,cs),
(472,376,o),
(414,346,o),
(332,346,cs),
(203,346,l)
);
}
);
width = 632;
}
);
unicode = 80;
},
{
glyphname = Thorn;
kernLeft = H;
kernRight = Thorn;
lastChange = "2024-11-01 12:01:51 +0000";
layers = (
{
anchors = (
{
name = bottom;
pos = (245,0);
},
{
name = top;
pos = (387,668);
}
);
layerId = "E15CF202-A01D-48E4-B2F5-B7F7AA5FDF32";
shapes = (
{
closed = 1;
nodes = (
(122,0,l),
(153,148,l),
(349,148,ls),
(494,148,o),
(583,231,o),
(583,363,cs),
(583,468,o),
(501,531,o),
(359,531,cs),
(235,531,l),
(264,668,l),
(208,668,l),
(66,0,l)
);
},
{
closed = 1;
nodes = (
(225,483,l),
(355,483,ls),
(462,483,o),
(526,442,o),
(526,359,cs),
(526,250,o),
(458,196,o),
(353,196,cs),
(164,196,l)
);
}
);
width = 632;
},
{
anchors = (
{
name = bottom;
pos = (272,0);
},
{
name = top;
pos = (414,668);
}
);
layerId = "60972605-F5BD-4F6B-BF23-CBE59F8EA585";
shapes = (
{
closed = 1;
nodes = (
(168,0,l),
(193,119,l),
(358,119,ls),
(523,119,o),
(627,225,o),
(627,369,cs),
(627,492,o),
(527,564,o),
(384,564,cs),
(288,564,l),
(310,668,l),
(155,668,l),
(13,0,l)
);
},
{
closed = 1;
nodes = (
(259,430,l),
(371,430,ls),
(428,430,o),
(466,402,o),
(466,353,cs),
(466,308,o),
(441,253,o),
(356,253,cs),
(222,253,l)
);
}
);
width = 632;
},
{
anchors = (
{
name = bottom;
pos = (312,0);
},
{
name = top;
pos = (312,668);
}
);
associatedMasterId = "60972605-F5BD-4F6B-BF23-CBE59F8EA585";
background = {
shapes = (
{
closed = 1;
nodes = (
(341,133,ls),
(480,133,o),
(588,197,o),
(588,341,cs),
(588,484,o),
(480,548,o),
(341,548,cs),
(150,548,l),
(150,455,l),
(336,455,ls),
(419,455,o),
(476,424,o),
(476,341,cs),
(476,257,o),
(419,226,o),
(336,226,cs),
(150,226,l),
(150,133,l)
);
},
{
closed = 1;
nodes = (
(199,0,l),
(199,668,l),
(91,668,l),
(91,0,l)
);
}
);
};
layerId = "7DFD90DA-676A-45C8-AC5D-2D52AD2E33C8";
name = "18 Apr 24 at 15:57";
shapes = (
{
closed = 1;
nodes = (
(345,133,ls),
(484,133,o),
(592,197,o),
(592,341,cs),
(592,484,o),
(484,548,o),
(345,548,cs),
(150,548,l),
(150,455,l),
(332,455,ls),
(415,455,o),
(472,424,o),
(472,341,cs),
(472,257,o),
(415,226,o),
(332,226,cs),
(150,226,l),
(150,133,l)
);
},
{
closed = 1;
nodes = (
(203,0,l),
(203,668,l),
(87,668,l),
(87,0,l)
);
}
);
width = 632;
}
);
unicode = 222;
},
{
glyphname = Q;
kernLeft = O;
kernRight = O;
lastChange = "2024-11-01 12:01:51 +0000";
layers = (
{
layerId = "E15CF202-A01D-48E4-B2F5-B7F7AA5FDF32";
shapes = (
{
closed = 1;
nodes = (
(366,-12,o),
(430,18,o),
(480,65,c),
(543,-9,l),
(582,23,l),
(514,103,l),
(582,189,o),
(615,309,o),
(615,412,cs),
(615,562,o),
(543,680,o),
(380,680,cs),
(159,680,o),
(53,440,o),
(53,256,cs),
(53,106,o),
(125,-12,o),
(288,-12,cs)
);
},
{
closed = 1;
nodes = (
(163,36,o),
(110,134,o),
(110,257,cs),
(110,400,o),
(188,632,o),
(378,632,cs),
(505,632,o),
(558,534,o),
(558,411,cs),
(558,331,o),
(534,224,o),
(479,144,c),
(342,306,l),
(303,273,l),
(447,104,l),
(407,63,o),
(355,36,o),
(290,36,cs)
);
}
);
width = 632;
},
{
layerId = "60972605-F5BD-4F6B-BF23-CBE59F8EA585";
shapes = (
{
closed = 1;
nodes = (
(355,-12,o),
(409,7,o),
(453,38,c),
(494,-10,l),
(590,73,l),
(541,131,l),
(595,215,o),
(620,323,o),
(620,417,cs),
(620,574,o),
(544,680,o),
(377,680,cs),
(148,680,o),
(48,439,o),
(48,251,cs),
(48,94,o),
(124,-12,o),
(291,-12,cs)
);
},
{
closed = 1;
nodes = (
(231,123,o),
(210,182,o),
(210,250,cs),
(210,345,o),
(255,545,o),
(369,545,cs),
(437,545,o),
(458,486,o),
(458,418,cs),
(458,377,o),
(450,316,o),
(431,260,c),
(370,331,l),
(274,250,l),
(362,146,l),
(344,132,o),
(323,123,o),
(299,123,cs)
);
}
);
width = 632;
}
);
metricLeft = O;
unicode = 81;
},
{
glyphname = R;
kernLeft = H;
kernRight = R;
lastChange = "2024-11-01 12:01:51 +0000";
layers = (
{
anchors = (
{
name = bottom;
pos = (258,0);
},
{
name = top;
pos = (381,668);
}
);
layerId = "E15CF202-A01D-48E4-B2F5-B7F7AA5FDF32";
shapes = (
{
closed = 1;
nodes = (
(121,0,l),
(183,291,l),
(298,291,l),
(443,0,l),
(508,0,l),
(357,293,l),
(538,293,o),
(600,395,o),
(600,501,cs),
(600,606,o),
(518,668,o),
(387,668,cs),
(207,668,l),
(65,0,l)
);
},
{
closed = 1;
nodes = (
(253,620,l),
(381,620,ls),
(480,620,o),
(543,576,o),
(543,497,cs),
(543,390,o),
(470,339,o),
(369,339,cs),
(193,339,l)
);
}
);
width = 632;
},
{
anchors = (
{
name = bottom;
pos = (264,0);
},
{
name = top;
pos = (386,668);
}
);
layerId = "60972605-F5BD-4F6B-BF23-CBE59F8EA585";
name = "AHL Variable 05 Mono ExtraBold Mono";
shapes = (
{
closed = 1;
nodes = (
(153,0,l),
(205,245,l),
(276,245,l),
(377,0,l),
(549,0,l),
(432,256,l),
(549,280,o),
(615,371,o),
(615,482,cs),
(615,602,o),
(513,668,o),
(386,668,cs),
(140,668,l),
(-2,0,l)
);
},
{
closed = 1;
nodes = (
(267,534,l),
(368,534,ls),
(420,534,o),
(453,510,o),
(453,468,cs),
(453,426,o),
(432,379,o),
(354,379,cs),
(234,379,l)
);
}
);
width = 632;
},
{
anchors = (
{
name = bottom;
pos = (314,0);
},
{
name = top;
pos = (295,668);
}
);
associatedMasterId = "60972605-F5BD-4F6B-BF23-CBE59F8EA585";
background = {
shapes = (
{
closed = 1;
nodes = (
(191,0,l),
(191,267,l),
(298,267,l),
(312,270,l),
(323,270,ls),
(455,270,o),
(561,328,o),
(561,467,cs),
(561,607,o),
(456,668,o),
(320,668,cs),
(83,668,l),
(83,0,l)
);
},
{
closed = 1;
nodes = (
(583,0,l),
(372,311,l),
(250,311,l),
(454,0,l)
);
},
{
closed = 1;
nodes = (
(191,575,l),
(318,575,ls),
(393,575,o),
(449,544,o),
(449,467,cs),
(449,391,o),
(393,360,o),
(318,360,cs),
(191,360,l)
);
}
);
};
layerId = "C31FFE52-9809-4FC4-BABF-60A693D8FF04";
name = "18 Apr 24 at 15:58";
shapes = (
{
closed = 1;
nodes = (
(195,0,l),
(195,267,l),
(298,267,l),
(312,270,l),
(327,270,ls),
(459,270,o),
(565,328,o),
(565,467,cs),
(565,607,o),
(460,668,o),
(324,668,cs),
(79,668,l),
(79,0,l)
);
},
{
closed = 1;
nodes = (
(587,0,l),
(375,311,l),
(246,311,l),
(450,0,l)
);
},
{
closed = 1;
nodes = (
(195,575,l),
(314,575,ls),
(389,575,o),
(445,544,o),
(445,467,cs),
(445,391,o),
(389,360,o),
(314,360,cs),
(195,360,l)
);
}
);
width = 632;
}
);
unicode = 82;
},
{
glyphname = S;
kernLeft = S;
kernRight = S;
lastChange = "2024-11-01 12:01:51 +0000";
layers = (
{
anchors = (
{
name = bottom;
pos = (293,0);
},
{
name = top;
pos = (395,668);
}
);
layerId = "E15CF202-A01D-48E4-B2F5-B7F7AA5FDF32";
shapes = (
{
closed = 1;
nodes = (
(428,-12,o),
(546,65,o),
(546,196,cs),
(546,279,o),
(481,324,o),
(387,359,cs),
(298,392,ls),
(230,417,o),
(198,446,o),
(198,503,cs),
(198,584,o),
(282,632,o),
(370,632,cs),
(436,632,o),
(509,603,o),
(534,542,c),
(589,562,l),
(554,643,o),
(465,680,o),
(374,680,cs),
(254,680,o),
(141,606,o),
(141,495,cs),
(141,420,o),
(196,372,o),
(275,343,cs),
(364,310,ls),
(431,285,o),
(489,253,o),
(489,190,cs),
(489,99,o),
(406,36,o),
(299,36,cs),
(209,36,o),
(128,75,o),
(113,162,c),
(58,143,l),
(80,36,o),
(197,-12,o),
(293,-12,cs)
);
}
);
width = 632;
},
{
anchors = (
{
name = bottom;
pos = (293,0);
},
{
name = top;
pos = (395,668);
}
);
layerId = "60972605-F5BD-4F6B-BF23-CBE59F8EA585";
name = "AHL Variable 05 Mono ExtraBold Mono";
shapes = (
{
closed = 1;
nodes = (
(463,-12,o),
(585,92,o),
(585,225,cs),
(585,311,o),
(524,362,o),
(394,405,cs),
(333,425,ls),
(303,435,o),
(276,454,o),
(276,484,cs),
(276,524,o),
(320,544,o),
(363,544,cs),
(418,544,o),
(457,515,o),
(470,475,c),
(624,527,l),
(596,628,o),
(500,680,o),
(383,680,cs),
(235,680,o),
(103,595,o),
(103,459,cs),
(103,365,o),
(167,313,o),
(267,283,cs),
(316,268,ls),
(359,255,o),
(411,233,o),
(411,194,cs),
(411,152,o),
(372,124,o),
(317,124,cs),
(257,124,o),
(199,159,o),
(189,215,c),
(33,164,l),
(63,57,o),
(161,-12,o),
(298,-12,cs)
);
}
);
width = 632;
}
);
unicode = 83;
},
{
glyphname = Scedilla;
kernLeft = S;
kernRight = S;
lastChange = "2024-11-01 12:01:51 +0000";
layers = (
{
anchors = (
{
name = top;
pos = (395,668);
}
);
layerId = "E15CF202-A01D-48E4-B2F5-B7F7AA5FDF32";
shapes = (
{
closed = 1;
nodes = (
(310,-177,o),
(350,-144,o),
(350,-97,cs),
(350,-68,o),
(326,-44,o),
(290,-44,cs),
(283,-44,o),
(276,-45,o),
(269,-47,c),
(299,-12,l),
(432,-10,o),
(546,67,o),
(546,196,cs),
(546,279,o),
(481,324,o),
(387,359,cs),
(298,392,ls),
(230,417,o),
(198,446,o),
(198,503,cs),
(198,584,o),
(282,632,o),
(370,632,cs),
(436,632,o),
(509,603,o),
(534,542,c),
(589,562,l),
(554,643,o),
(465,680,o),
(374,680,cs),
(254,680,o),
(141,606,o),
(141,495,cs),
(141,420,o),
(196,372,o),
(275,343,cs),
(364,310,ls),
(431,285,o),
(489,253,o),
(489,190,cs),
(489,99,o),
(406,36,o),
(299,36,cs),
(209,36,o),
(128,75,o),
(113,162,c),
(58,143,l),
(78,47,o),
(174,-2,o),
(263,-10,c),
(229,-52,ls),
(218,-65,o),
(219,-79,o),
(237,-79,cs),
(244,-79,o),
(256,-77,o),
(264,-77,cs),
(288,-77,o),
(306,-85,o),
(306,-106,cs),
(306,-127,o),
(286,-145,o),
(256,-145,cs),
(240,-145,o),
(220,-141,o),
(193,-123,c),
(175,-147,l),
(202,-167,o),
(228,-177,o),
(258,-177,cs)
);
}
);
width = 632;
},
{
anchors = (
{
name = top;
pos = (395,668);
}
);
layerId = "60972605-F5BD-4F6B-BF23-CBE59F8EA585";
shapes = (
{
closed = 1;
nodes = (
(334,-188,o),
(391,-166,o),
(391,-108,cs),
(391,-67,o),
(346,-46,o),
(298,-46,cs),
(294,-46,o),
(288,-46,o),
(283,-47,c),
(312,-12,l),
(470,-6,o),
(585,96,o),
(585,225,cs),
(585,311,o),
(524,362,o),
(394,405,cs),
(333,425,ls),
(303,435,o),
(276,454,o),
(276,484,cs),
(276,524,o),
(320,544,o),
(363,544,cs),
(418,544,o),
(457,515,o),
(470,475,c),
(624,527,l),
(596,628,o),
(500,680,o),
(383,680,cs),
(235,680,o),
(103,595,o),
(103,459,cs),
(103,365,o),
(167,313,o),
(267,283,cs),
(316,268,ls),
(359,255,o),
(411,233,o),
(411,194,cs),
(411,152,o),
(372,124,o),
(317,124,cs),
(257,124,o),
(199,159,o),
(189,215,c),
(33,164,l),
(60,69,o),
(141,3,o),
(255,-10,c),
(219,-53,ls),
(205,-70,o),
(211,-92,o),
(237,-87,cs),
(243,-86,o),
(251,-85,o),
(262,-85,cs),
(279,-85,o),
(291,-95,o),
(291,-108,cs),
(291,-127,o),
(274,-136,o),
(255,-136,cs),
(228,-136,o),
(198,-125,o),
(187,-118,c),
(161,-168,l),
(188,-179,o),
(228,-188,o),
(270,-188,cs)
);
}
);
width = 632;
}
);
metricLeft = S;
metricRight = S;
unicode = 350;
},
{
glyphname = Germandbls;
kernLeft = H;
kernRight = Germandbls;
lastChange = "2024-11-01 12:01:51 +0000";
layers = (
{
guides = (
{
angle = 200.6744;
pos = (71,30);
}
);
layerId = "E15CF202-A01D-48E4-B2F5-B7F7AA5FDF32";
shapes = (
{
closed = 1;
nodes = (
(502,-12,o),
(580,88,o),
(580,195,cs),
(580,279,o),
(521,348,o),
(433,348,c),
(649,595,l),
(660,645,l),
(581,665,o),
(494,680,o),
(418,680,cs),
(284,680,o),
(166,648,o),
(129,473,cs),
(29,0,l),
(85,0,l),
(184,468,ls),
(214,612,o),
(295,632,o),
(417,632,cs),
(469,632,o),
(533,625,o),
(598,610,c),
(365,344,l),
(382,295,l),
(391,297,o),
(404,300,o),
(419,300,cs),
(487,300,o),
(525,254,o),
(525,193,cs),
(525,119,o),
(476,38,o),
(387,38,cs),
(335,38,o),
(289,58,o),
(281,120,c),
(230,102,l),
(246,18,o),
(315,-12,o),
(381,-12,cs)
);
}
);
width = 632;
},
{
layerId = "60972605-F5BD-4F6B-BF23-CBE59F8EA585";
shapes = (
{
closed = 1;
nodes = (
(508,-12,o),
(604,86,o),
(604,214,cs),
(604,289,o),
(561,340,o),
(496,364,c),
(644,516,l),
(673,656,l),
(586,674,o),
(496,680,o),
(413,680,cs),
(190,680,o),
(116,607,o),
(89,478,cs),
(-12,0,l),
(158,0,l),
(247,422,ls),
(264,504,o),
(322,550,o),
(421,550,cs),
(447,550,o),
(474,548,o),
(502,545,c),
(327,363,l),
(362,268,l),
(371,271,o),
(384,273,o),
(396,273,cs),
(436,273,o),
(451,244,o),
(451,211,cs),
(451,164,o),
(426,120,o),
(391,120,cs),
(364,120,o),
(347,134,o),
(341,157,c),
(217,114,l),
(231,54,o),
(275,-12,o),
(381,-12,cs)
);
}
);
width = 632;
}
);
unicode = 7838;
},
{
glyphname = T;
kernLeft = T;
kernRight = T;
lastChange = "2024-11-01 12:01:51 +0000";
layers = (
{
anchors = (
{
name = bottom;
pos = (263,0);
},
{
name = center;
pos = (334,334);
},
{
name = top;
pos = (405,668);
}
);
guides = (
{
angle = 270;
pos = (288,310);
},
{
angle = 90;
pos = (344,310);
},
{
angle = 90;
pos = (316,310);
}
);
layerId = "E15CF202-A01D-48E4-B2F5-B7F7AA5FDF32";
shapes = (
{
closed = 1;
nodes = (
(291,0,l),
(423,620,l),
(648,620,l),
(658,668,l),
(152,668,l),
(142,620,l),
(367,620,l),
(235,0,l)
);
}
);
width = 632;
},
{
anchors = (
{
name = bottom;
pos = (263,0);
},
{
name = center;
pos = (334,334);
},
{
name = top;
pos = (405,668);
}
);
layerId = "60972605-F5BD-4F6B-BF23-CBE59F8EA585";
name = "AHL Variable 05 Mono ExtraBold Mono";
shapes = (
{
closed = 1;
nodes = (
(348,0,l),
(458,518,l),
(640,518,l),
(672,668,l),
(138,668,l),
(106,518,l),
(288,518,l),
(178,0,l)
);
}
);
width = 632;
}
);
unicode = 84;
},
{
glyphname = Tcedilla;
kernLeft = T;
kernRight = T;
lastChange = "2024-11-01 12:01:51 +0000";
layers = (
{
anchors = (
{
name = center;
pos = (334,334);
},
{
name = top;
pos = (405,668);
}
);
layerId = "E15CF202-A01D-48E4-B2F5-B7F7AA5FDF32";
shapes = (
{
closed = 1;
nodes = (
(244,0,l),
(201,-52,ls),
(190,-66,o),
(191,-79,o),
(209,-79,cs),
(216,-79,o),
(228,-77,o),
(236,-77,cs),
(260,-77,o),
(278,-85,o),
(278,-106,cs),
(278,-127,o),
(258,-145,o),
(228,-145,cs),
(212,-145,o),
(192,-141,o),
(165,-123,c),
(147,-147,l),
(174,-167,o),
(200,-177,o),
(230,-177,cs),
(282,-177,o),
(322,-144,o),
(322,-97,cs),
(322,-68,o),
(298,-44,o),
(262,-44,cs),
(255,-44,o),
(248,-45,o),
(241,-47,c),
(282,0,l),
(291,0,l),
(423,620,l),
(648,620,l),
(658,668,l),
(152,668,l),
(142,620,l),
(367,620,l),
(235,0,l)
);
}
);
width = 632;
},
{
anchors = (
{
name = center;
pos = (334,334);
},
{
name = top;
pos = (405,668);
}
);
layerId = "60972605-F5BD-4F6B-BF23-CBE59F8EA585";
shapes = (
{
closed = 1;
nodes = (
(236,0,l),
(192,-53,ls),
(178,-70,o),
(184,-92,o),
(210,-87,cs),
(216,-86,o),
(224,-85,o),
(235,-85,cs),
(252,-85,o),
(264,-95,o),
(264,-108,cs),
(264,-127,o),
(247,-136,o),
(228,-136,cs),
(201,-136,o),
(171,-125,o),
(160,-118,c),
(134,-168,l),
(161,-179,o),
(201,-188,o),
(243,-188,cs),
(307,-188,o),
(364,-166,o),
(364,-108,cs),
(364,-67,o),
(319,-46,o),
(271,-46,cs),
(267,-46,o),
(261,-46,o),
(256,-47,c),
(295,0,l),
(348,0,l),
(458,518,l),
(640,518,l),
(672,668,l),
(138,668,l),
(106,518,l),
(288,518,l),
(178,0,l)
);
}
);
width = 632;
}
);
unicode = 354;
},
{
color = 6;
glyphname = Tcommaaccent;
kernLeft = T;
kernRight = T;
lastChange = "2024-11-01 11:55:55 +0000";
layers = (
{
background = {
shapes = (
{
closed = 1;
nodes = (
(291,0,l),
(423,620,l),
(648,620,l),
(658,668,l),
(152,668,l),
(142,620,l),
(367,620,l),
(235,0,l)
);
},
{
closed = 1;
nodes = (
(239,-234,o),
(298,-178,o),
(298,-117,cs),
(298,-93,o),
(289,-73,o),
(271,-53,c),
(229,-70,l),
(245,-84,o),
(252,-100,o),
(252,-119,cs),
(252,-178,o),
(199,-204,o),
(154,-203,c),
(179,-231,l)
);
}
);
};
layerId = "E15CF202-A01D-48E4-B2F5-B7F7AA5FDF32";
shapes = (
{
ref = T;
},
{
pos = (1,0);
ref = commaaccentcomb;
}
);
width = 632;
},
{
layerId = "60972605-F5BD-4F6B-BF23-CBE59F8EA585";
shapes = (
{
ref = T;
},
{
pos = (-1,0);
ref = commaaccentcomb;
}
);
width = 632;
}
);
unicode = 538;
},
{
glyphname = U;
kernLeft = U;
kernRight = U;
lastChange = "2024-11-01 12:01:51 +0000";
layers = (
{
anchors = (
{
name = top;
pos = (400,668);
},
{
name = topright;
pos = (735,668);
}
);
layerId = "E15CF202-A01D-48E4-B2F5-B7F7AA5FDF32";
shapes = (
{
closed = 1;
nodes = (
(434,-12,o),
(509,65,o),
(541,220,cs),
(636,668,l),
(580,668,l),
(485,222,ls),
(460,98,o),
(399,36,o),
(296,36,cs),
(156,36,o),
(113,119,o),
(143,259,cs),
(230,668,l),
(174,668,l),
(89,268,ls),
(49,80,o),
(120,-12,o),
(299,-12,cs)
);
}
);
width = 632;
},
{
anchors = (
{
name = top;
pos = (404,668);
},
{
name = topright;
pos = (714,668);
}
);
layerId = "60972605-F5BD-4F6B-BF23-CBE59F8EA585";
name = "AHL Variable 05 Mono ExtraBold Mono";
shapes = (
{
closed = 1;
nodes = (
(465,-12,o),
(544,69,o),
(580,240,cs),
(670,668,l),
(500,668,l),
(408,234,ls),
(394,170,o),
(373,126,o),
(308,126,cs),
(218,126,o),
(207,182,o),
(222,254,cs),
(310,668,l),
(140,668,l),
(61,295,ls),
(15,77,o),
(103,-12,o),
(310,-12,cs)
);
}
);
width = 632;
}
);
unicode = 85;
},
{
glyphname = Uogonek;
kernLeft = U;
kernRight = U;
lastChange = "2024-11-01 12:01:51 +0000";
layers = (
{
anchors = (
{
name = top;
pos = (400,668);
},
{
name = topright;
pos = (735,668);
}
);
layerId = "E15CF202-A01D-48E4-B2F5-B7F7AA5FDF32";
shapes = (
{
closed = 1;
nodes = (
(380,-168,o),
(391,-167,o),
(405,-163,c),
(414,-123,l),
(405,-126,o),
(397,-127,o),
(390,-127,cs),
(360,-127,o),
(337,-115,o),
(337,-86,cs),
(337,-52,o),
(363,-12,o),
(400,7,cs),
(471,43,o),
(518,109,o),
(541,220,cs),
(636,668,l),
(580,668,l),
(485,222,ls),
(460,98,o),
(399,36,o),
(296,36,cs),
(156,36,o),
(113,119,o),
(143,259,cs),
(230,668,l),
(174,668,l),
(89,268,ls),
(38,28,o),
(177,-22,o),
(337,-10,c),
(312,-35,o),
(288,-70,o),
(288,-104,cs),
(288,-145,o),
(321,-168,o),
(372,-168,cs)
);
}
);
width = 632;
},
{
anchors = (
{
name = top;
pos = (404,668);
},
{
name = topright;
pos = (714,668);
}
);
layerId = "60972605-F5BD-4F6B-BF23-CBE59F8EA585";
shapes = (
{
closed = 1;
nodes = (
(427,-174,o),
(439,-174,o),
(454,-172,c),
(471,-91,l),
(465,-92,o),
(447,-95,o),
(428,-95,cs),
(399,-95,o),
(381,-83,o),
(381,-61,cs),
(381,-32,o),
(410,0,o),
(447,19,cs),
(524,59,o),
(562,153,o),
(580,240,cs),
(670,668,l),
(500,668,l),
(408,234,ls),
(394,170,o),
(373,126,o),
(308,126,cs),
(218,126,o),
(207,182,o),
(222,254,cs),
(310,668,l),
(140,668,l),
(61,295,ls),
(32,159,o),
(36,-1,o),
(279,-11,c),
(257,-32,o),
(241,-57,o),
(241,-83,cs),
(241,-151,o),
(328,-174,o),
(418,-174,cs)
);
}
);
width = 632;
}
);
metricLeft = U;
metricRight = U;
unicode = 370;
},
{
glyphname = V;
kernLeft = V;
kernRight = V;
lastChange = "2024-11-01 12:01:51 +0000";
layers = (
{
anchors = (
{
name = bottom;
pos = (264,0);
},
{
name = top;
pos = (406,668);
}
);
layerId = "E15CF202-A01D-48E4-B2F5-B7F7AA5FDF32";
shapes = (
{
closed = 1;
nodes = (
(292,0,l),
(672,668,l),
(612,668,l),
(276,68,l),
(272,68,l),
(193,668,l),
(138,668,l),
(233,0,l)
);
}
);
width = 632;
},
{
anchors = (
{
name = bottom;
pos = (263,0);
},
{
name = top;
pos = (405,668);
}
);
layerId = "60972605-F5BD-4F6B-BF23-CBE59F8EA585";
name = "AHL Variable 05 Mono ExtraBold Mono";
shapes = (
{
closed = 1;
nodes = (
(353,0,l),
(690,668,l),
(527,668,l),
(299,173,l),
(295,173,l),
(277,668,l),
(120,668,l),
(173,0,l)
);
}
);
width = 632;
}
);
unicode = 86;
},
{
glyphname = W;
kernLeft = W;
kernRight = W;
lastChange = "2024-11-01 12:01:51 +0000";
layers = (
{
anchors = (
{
name = bottom;
pos = (265,0);
},
{
name = top;
pos = (405,668);
}
);
layerId = "E15CF202-A01D-48E4-B2F5-B7F7AA5FDF32";
shapes = (
{
closed = 1;
nodes = (
(156,0,l),
(382,566,l),
(386,566,l),
(371,0,l),
(442,0,l),
(709,668,l),
(652,668,l),
(423,75,l),
(419,75,l),
(436,668,l),
(374,668,l),
(137,75,l),
(133,75,l),
(156,668,l),
(102,668,l),
(85,0,l)
);
}
);
width = 632;
},
{
anchors = (
{
name = bottom;
pos = (264,0);
},
{
name = top;
pos = (402,668);
}
);
layerId = "60972605-F5BD-4F6B-BF23-CBE59F8EA585";
shapes = (
{
closed = 1;
nodes = (
(205,0,l),
(360,468,l),
(364,468,l),
(322,0,l),
(469,0,l),
(714,668,l),
(582,668,l),
(439,210,l),
(435,210,l),
(474,668,l),
(330,668,l),
(176,210,l),
(172,210,l),
(222,668,l),
(96,668,l),
(58,0,l)
);
}
);
width = 632;
}
);
unicode = 87;
},
{
glyphname = X;
kernLeft = X;
kernRight = X;
lastChange = "2024-11-01 12:01:51 +0000";
layers = (
{
anchors = (
{
name = bottom;
pos = (263,0);
},
{
name = top;
pos = (405,668);
}
);
layerId = "E15CF202-A01D-48E4-B2F5-B7F7AA5FDF32";
shapes = (
{
closed = 1;
nodes = (
(52,0,l),
(328,301,l),
(332,301,l),
(480,0,l),
(544,0,l),
(372,345,l),
(672,668,l),
(601,668,l),
(343,388,l),
(339,388,l),
(201,668,l),
(138,668,l),
(300,345,l),
(-18,0,l)
);
}
);
width = 632;
},
{
anchors = (
{
name = bottom;
pos = (264,0);
},
{
name = top;
pos = (406,668);
}
);
layerId = "60972605-F5BD-4F6B-BF23-CBE59F8EA585";
shapes = (
{
closed = 1;
nodes = (
(147,0,l),
(309,206,l),
(313,206,l),
(394,0,l),
(563,0,l),
(425,341,l),
(693,668,l),
(510,668,l),
(363,482,l),
(359,482,l),
(287,668,l),
(118,668,l),
(248,345,l),
(-36,0,l)
);
}
);
width = 632;
}
);
unicode = 88;
},
{
glyphname = Y;
kernLeft = Y;
kernRight = Y;
lastChange = "2024-11-01 12:01:51 +0000";
layers = (
{
anchors = (
{
name = bottom;
pos = (264,0);
},
{
name = top;
pos = (390,668);
},
{
name = topleft;
pos = (152,668);
}
);
guides = (
{
angle = 90;
pos = (317,564);
}
);
layerId = "E15CF202-A01D-48E4-B2F5-B7F7AA5FDF32";
shapes = (
{
closed = 1;
nodes = (
(292,0,l),
(349,268,l),
(685,668,l),
(614,668,l),
(331,327,l),
(327,327,l),
(186,668,l),
(125,668,l),
(293,268,l),
(236,0,l)
);
}
);
width = 632;
},
{
anchors = (
{
name = bottom;
pos = (264,0);
},
{
name = top;
pos = (390,668);
},
{
name = topleft;
pos = (104,668);
}
);
layerId = "60972605-F5BD-4F6B-BF23-CBE59F8EA585";
shapes = (
{
closed = 1;
nodes = (
(340,0,l),
(396,262,l),
(715,668,l),
(529,668,l),
(349,423,l),
(345,423,l),
(270,668,l),
(95,668,l),
(241,262,l),
(185,0,l)
);
}
);
width = 632;
},
{
anchors = (
{
name = bottom;
pos = (317,0);
},
{
name = top;
pos = (316,668);
},
{
name = topleft;
pos = (38,668);
}
);
associatedMasterId = "60972605-F5BD-4F6B-BF23-CBE59F8EA585";
background = {
guides = (
{
angle = 90;
pos = (315,284);
}
);
shapes = (
{
closed = 1;
nodes = (
(370,0,l),
(370,265,l),
(612,668,l),
(486,668,l),
(319,378,l),
(315,378,l),
(147,668,l),
(20,668,l),
(262,265,l),
(262,0,l)
);
}
);
};
guides = (
{
angle = 90;
pos = (315,284);
}
);
layerId = "90A4DD02-3948-4A2E-8AD5-B72A65C65E0D";
name = "18 Apr 24 at 16:00";
shapes = (
{
closed = 1;
nodes = (
(374,0,l),
(374,265,l),
(616,668,l),
(482,668,l),
(319,378,l),
(315,378,l),
(151,668,l),
(16,668,l),
(258,265,l),
(258,0,l)
);
}
);
width = 632;
}
);
unicode = 89;
},
{
glyphname = Z;
kernLeft = Z;
kernRight = Z;
lastChange = "2024-11-01 12:01:51 +0000";
layers = (
{
anchors = (
{
name = bottom;
pos = (263,0);
},
{
name = center;
pos = (334,334);
},
{
name = top;
pos = (409,668);
}
);
layerId = "E15CF202-A01D-48E4-B2F5-B7F7AA5FDF32";
shapes = (
{
closed = 1;
nodes = (
(524,0,l),
(535,50,l),
(79,50,l),
(638,608,l),
(651,668,l),
(158,668,l),
(147,618,l),
(573,618,l),
(14,60,l),
(1,0,l)
);
}
);
width = 632;
},
{
anchors = (
{
name = bottom;
pos = (264,0);
},
{
name = center;
pos = (335,334);
},
{
name = top;
pos = (406,668);
}
);
layerId = "60972605-F5BD-4F6B-BF23-CBE59F8EA585";
shapes = (
{
closed = 1;
nodes = (
(533,0,l),
(565,150,l),
(262,150,l),
(633,540,l),
(660,668,l),
(152,668,l),
(120,518,l),
(394,518,l),
(22,128,l),
(-5,0,l)
);
}
);
width = 632;
}
);
unicode = 90;
},
{
glyphname = a;
kernLeft = a;
kernRight = a;
lastChange = "2024-11-01 12:01:51 +0000";
layers = (
{
anchors = (
{
name = bottom;
pos = (257,0);
},
{
name = ogonek;
pos = (464,10);
},
{
name = top;
pos = (363,496);
}
);
layerId = "E15CF202-A01D-48E4-B2F5-B7F7AA5FDF32";
name = "AHL Variable 05 Mono Light Mono";
shapes = (
{
closed = 1;
nodes = (
(320,-12,o),
(385,34,o),
(416,80,c),
(418,0,l),
(462,0,l),
(462,44,o),
(466,100,o),
(486,194,cs),
(507,294,ls),
(538,443,o),
(467,506,o),
(334,506,cs),
(250,506,o),
(177,469,o),
(141,387,c),
(197,373,l),
(212,424,o),
(261,460,o),
(332,460,cs),
(446,460,o),
(473,387,o),
(458,314,cs),
(457,309,l),
(177,296,o),
(63,234,o),
(63,113,cs),
(63,30,o),
(143,-12,o),
(227,-12,cs)
);
},
{
closed = 1;
nodes = (
(165,35,o),
(118,68,o),
(118,119,cs),
(118,195,o),
(196,253,o),
(447,263,c),
(433,195,ls),
(410,89,o),
(321,35,o),
(235,35,cs)
);
}
);
width = 632;
},
{
anchors = (
{
name = bottom;
pos = (264,0);
},
{
name = ogonek;
pos = (515,10);
},
{
name = top;
pos = (369,496);
}
);
layerId = "60972605-F5BD-4F6B-BF23-CBE59F8EA585";
name = "AHL Variable 05 Mono ExtraBold Mono";
shapes = (
{
closed = 1;
nodes = (
(249,-12,o),
(308,-1,o),
(357,47,c),
(362,0,l),
(513,0,l),
(510,38,o),
(519,114,o),
(534,185,cs),
(556,287,ls),
(592,438,o),
(494,511,o),
(337,511,cs),
(227,511,o),
(142,463,o),
(103,398,c),
(239,347,l),
(252,381,o),
(292,403,o),
(334,403,cs),
(391,403,o),
(421,371,o),
(408,319,cs),
(407,315,l),
(158,305,o),
(33,253,o),
(33,121,cs),
(33,37,o),
(107,-12,o),
(203,-12,cs)
);
},
{
closed = 1;
nodes = (
(231,95,o),
(203,112,o),
(203,142,cs),
(203,178,o),
(238,214,o),
(386,220,c),
(379,189,ls),
(365,127,o),
(318,95,o),
(266,95,cs)
);
}
);
width = 632;
}
);
unicode = 97;
},
{
glyphname = aogonek;
kernLeft = a;
kernRight = a;
lastChange = "2024-11-01 12:01:51 +0000";
layers = (
{
anchors = (
{
name = top;
pos = (363,496);
}
);
layerId = "E15CF202-A01D-48E4-B2F5-B7F7AA5FDF32";
shapes = (
{
closed = 1;
nodes = (
(401,-168,o),
(413,-167,o),
(427,-164,c),
(436,-124,l),
(429,-126,o),
(417,-127,o),
(411,-127,cs),
(385,-127,o),
(358,-121,o),
(358,-93,cs),
(358,-49,o),
(416,-14,o),
(462,0,c),
(462,44,o),
(466,100,o),
(486,194,cs),
(507,294,ls),
(538,443,o),
(467,506,o),
(334,506,cs),
(250,506,o),
(177,469,o),
(141,387,c),
(197,373,l),
(212,424,o),
(261,460,o),
(332,460,cs),
(446,460,o),
(473,387,o),
(458,314,cs),
(457,309,l),
(177,296,o),
(63,234,o),
(63,113,cs),
(63,30,o),
(143,-12,o),
(227,-12,cs),
(320,-12,o),
(385,34,o),
(416,80,c),
(418,11,l),
(364,-13,o),
(311,-50,o),
(311,-105,cs),
(311,-144,o),
(344,-168,o),
(389,-168,cs)
);
},
{
closed = 1;
nodes = (
(165,35,o),
(118,68,o),
(118,119,cs),
(118,195,o),
(196,253,o),
(447,263,c),
(433,195,ls),
(410,89,o),
(321,35,o),
(235,35,cs)
);
}
);
width = 632;
},
{
anchors = (
{
name = top;
pos = (369,496);
}
);
layerId = "60972605-F5BD-4F6B-BF23-CBE59F8EA585";
shapes = (
{
closed = 1;
nodes = (
(448,-176,o),
(464,-175,o),
(476,-172,c),
(493,-91,l),
(482,-93,o),
(465,-95,o),
(447,-95,cs),
(423,-95,o),
(402,-87,o),
(402,-67,cs),
(402,-38,o),
(449,-9,o),
(513,0,c),
(510,38,o),
(519,114,o),
(534,185,cs),
(556,287,ls),
(592,438,o),
(494,511,o),
(337,511,cs),
(227,511,o),
(142,463,o),
(103,398,c),
(239,347,l),
(252,381,o),
(292,403,o),
(334,403,cs),
(391,403,o),
(421,371,o),
(408,319,cs),
(407,315,l),
(158,305,o),
(33,253,o),
(33,121,cs),
(33,37,o),
(107,-12,o),
(203,-12,cs),
(249,-12,o),
(308,-1,o),
(357,47,c),
(361,11,l),
(315,-8,o),
(260,-41,o),
(260,-89,cs),
(260,-152,o),
(354,-176,o),
(434,-176,cs)
);
},
{
closed = 1;
nodes = (
(231,95,o),
(203,112,o),
(203,142,cs),
(203,178,o),
(238,214,o),
(386,220,c),
(379,189,ls),
(365,127,o),
(318,95,o),
(266,95,cs)
);
}
);
width = 632;
}
);
metricLeft = a;
metricRight = a;
unicode = 261;
},
{
glyphname = ae;
kernLeft = a;
kernRight = e;
lastChange = "2024-11-01 12:01:51 +0000";
layers = (
{
anchors = (
{
name = bottom;
pos = (263,0);
},
{
name = top;
pos = (369,496);
}
);
layerId = "E15CF202-A01D-48E4-B2F5-B7F7AA5FDF32";
shapes = (
{
closed = 1;
nodes = (
(182,-12,o),
(236,26,o),
(275,103,c),
(291,35,o),
(335,-12,o),
(419,-12,cs),
(491,-12,o),
(537,31,o),
(572,79,c),
(527,97,l),
(491,53,o),
(461,32,o),
(422,32,cs),
(314,32,o),
(305,160,o),
(320,244,c),
(621,244,l),
(649,368,o),
(622,506,o),
(494,506,cs),
(433,506,o),
(377,470,o),
(336,406,c),
(327,466,o),
(291,506,o),
(221,506,cs),
(151,506,o),
(96,466,o),
(57,384,c),
(110,372,l),
(132,424,o),
(164,464,o),
(215,464,cs),
(292,464,o),
(301,389,o),
(283,305,cs),
(279,286,l),
(52,275,o),
(-18,203,o),
(-18,107,cs),
(-18,26,o),
(44,-12,o),
(112,-12,cs)
);
},
{
closed = 1;
nodes = (
(66,30,o),
(33,59,o),
(33,112,cs),
(33,186,o),
(92,235,o),
(271,244,c),
(258,177,ls),
(237,71,o),
(172,30,o),
(118,30,cs)
);
},
{
closed = 1;
nodes = (
(353,374,o),
(405,462,o),
(488,462,cs),
(572,462,o),
(591,369,o),
(576,286,c),
(329,286,l)
);
}
);
width = 632;
},
{
anchors = (
{
name = bottom;
pos = (263,0);
},
{
name = top;
pos = (368,496);
}
);
layerId = "60972605-F5BD-4F6B-BF23-CBE59F8EA585";
shapes = (
{
closed = 1;
nodes = (
(180,-12,o),
(228,21,o),
(260,66,c),
(281,19,o),
(322,-12,o),
(395,-12,cs),
(462,-12,o),
(525,20,o),
(582,99,c),
(485,140,l),
(469,113,o),
(443,95,o),
(412,95,cs),
(392,95,o),
(339,101,o),
(347,207,c),
(614,207,l),
(646,344,o),
(633,511,o),
(486,511,cs),
(435,511,o),
(392,490,o),
(359,451,c),
(340,492,o),
(300,511,o),
(245,511,cs),
(160,511,o),
(98,463,o),
(64,400,c),
(157,346,l),
(173,384,o),
(197,401,o),
(226,401,cs),
(275,401,o),
(275,357,o),
(267,321,cs),
(262,297,l),
(65,299,o),
(-8,231,o),
(-8,113,cs),
(-8,47,o),
(33,-12,o),
(117,-12,cs)
);
},
{
closed = 1;
nodes = (
(128,95,o),
(110,112,o),
(110,138,cs),
(110,175,o),
(130,207,o),
(243,207,c),
(242,200,ls),
(226,121,o),
(194,95,o),
(156,95,cs)
);
},
{
closed = 1;
nodes = (
(382,350,o),
(412,399,o),
(460,399,cs),
(512,399,o),
(518,347,o),
(510,297,c),
(365,297,l)
);
}
);
width = 632;
}
);
unicode = 230;
},
{
glyphname = b;
kernLeft = h;
kernRight = o;
lastChange = "2024-11-06 13:42:29 +0000";
layers = (
{
anchors = (
{
name = bottom;
pos = (251,0);
},
{
name = center;
pos = (304,248);
},
{
name = top;
pos = (356,496);
}
);
layerId = "E15CF202-A01D-48E4-B2F5-B7F7AA5FDF32";
name = "AHL Variable 05 Mono Light Mono";
shapes = (
{
closed = 1;
nodes = (
(481,-12,o),
(576,138,o),
(576,297,cs),
(576,422,o),
(501,506,o),
(379,506,cs),
(300,506,o),
(233,469,o),
(189,415,c),
(252,708,l),
(198,708,l),
(47,0,l),
(87,0,l),
(120,94,l),
(155,23,o),
(220,-12,o),
(305,-12,cs)
);
},
{
closed = 1;
nodes = (
(200,36,o),
(149,100,o),
(149,194,cs),
(149,306,o),
(218,458,o),
(369,458,cs),
(466,458,o),
(521,388,o),
(521,292,cs),
(521,192,o),
(465,36,o),
(300,36,cs)
);
}
);
width = 632;
},
{
anchors = (
{
name = bottom;
pos = (262,0);
},
{
name = center;
pos = (315,248);
},
{
name = top;
pos = (367,496);
}
);
layerId = "60972605-F5BD-4F6B-BF23-CBE59F8EA585";
name = "AHL Variable 05 Mono ExtraBold Mono";
shapes = (
{
closed = 1;
nodes = (
(499,-12,o),
(597,145,o),
(597,305,cs),
(597,423,o),
(533,511,o),
(422,511,cs),
(364,511,o),
(300,482,o),
(265,440,c),
(323,708,l),
(158,708,l),
(7,0,l),
(154,0,l),
(188,71,l),
(205,23,o),
(260,-12,o),
(330,-12,cs)
);
},
{
closed = 1;
nodes = (
(239,115,o),
(211,150,o),
(211,207,cs),
(211,271,o),
(246,385,o),
(345,385,cs),
(400,385,o),
(427,343,o),
(427,286,cs),
(427,225,o),
(390,115,o),
(296,115,cs)
);
}
);
width = 632;
}
);
unicode = 98;
},
{
glyphname = c;
kernLeft = o;
kernRight = c;
lastChange = "2024-11-01 12:01:51 +0000";
layers = (
{
anchors = (
{
name = bottom;
pos = (292,0);
},
{
name = top;
pos = (402,496);
}
);
layerId = "E15CF202-A01D-48E4-B2F5-B7F7AA5FDF32";
shapes = (
{
closed = 1;
nodes = (
(414,-12,o),
(486,33,o),
(526,89,c),
(476,111,l),
(444,60,o),
(386,36,o),
(323,36,cs),
(209,36,o),
(155,112,o),
(155,208,cs),
(155,337,o),
(237,458,o),
(375,458,cs),
(435,458,o),
(494,431,o),
(518,378,c),
(566,395,l),
(534,467,o),
(464,506,o),
(379,506,cs),
(208,506,o),
(100,358,o),
(100,208,cs),
(100,90,o),
(174,-12,o),
(320,-12,cs)
);
}
);
width = 632;
},
{
anchors = (
{
name = bottom;
pos = (289,0);
},
{
name = top;
pos = (390,496);
}
);
layerId = "60972605-F5BD-4F6B-BF23-CBE59F8EA585";
shapes = (
{
closed = 1;
nodes = (
(419,-12,o),
(511,26,o),
(563,105,c),
(430,157,l),
(414,128,o),
(380,114,o),
(341,114,cs),
(268,114,o),
(238,156,o),
(238,218,cs),
(238,286,o),
(271,385,o),
(370,385,cs),
(409,385,o),
(448,367,o),
(462,327,c),
(598,374,l),
(563,473,o),
(460,511,o),
(365,511,cs),
(190,511,o),
(70,383,o),
(70,208,cs),
(70,64,o),
(169,-12,o),
(324,-12,cs)
);
}
);
width = 632;
}
);
unicode = 99;
},
{
glyphname = ccedilla;
kernLeft = o;
kernRight = c;
lastChange = "2024-11-01 12:01:51 +0000";
layers = (
{
anchors = (
{
name = top;
pos = (402,496);
}
);
layerId = "E15CF202-A01D-48E4-B2F5-B7F7AA5FDF32";
shapes = (
{
closed = 1;
nodes = (
(309,-177,o),
(349,-144,o),
(349,-97,cs),
(349,-68,o),
(325,-44,o),
(289,-44,cs),
(282,-44,o),
(275,-45,o),
(268,-47,c),
(299,-11,l),
(393,-18,o),
(475,19,o),
(526,89,c),
(476,111,l),
(444,60,o),
(386,36,o),
(323,36,cs),
(209,36,o),
(155,112,o),
(155,208,cs),
(155,337,o),
(237,458,o),
(375,458,cs),
(435,458,o),
(494,431,o),
(518,378,c),
(566,395,l),
(534,467,o),
(464,506,o),
(379,506,cs),
(208,506,o),
(100,358,o),
(100,208,cs),
(100,106,o),
(155,16,o),
(265,-7,c),
(228,-52,ls),
(217,-65,o),
(218,-79,o),
(236,-79,cs),
(243,-79,o),
(255,-77,o),
(263,-77,cs),
(287,-77,o),
(305,-85,o),
(305,-106,cs),
(305,-127,o),
(285,-145,o),
(255,-145,cs),
(239,-145,o),
(219,-141,o),
(192,-123,c),
(174,-147,l),
(201,-167,o),
(227,-177,o),
(257,-177,cs)
);
}
);
width = 632;
},
{
anchors = (
{
name = top;
pos = (390,496);
}
);
layerId = "60972605-F5BD-4F6B-BF23-CBE59F8EA585";
shapes = (
{
closed = 1;
nodes = (
(330,-188,o),
(387,-166,o),
(387,-108,cs),
(387,-67,o),
(342,-46,o),
(294,-46,cs),
(290,-46,o),
(284,-46,o),
(279,-47,c),
(308,-12,l),
(445,-15,o),
(523,44,o),
(563,105,c),
(430,157,l),
(414,128,o),
(380,114,o),
(341,114,cs),
(268,114,o),
(238,156,o),
(238,218,cs),
(238,286,o),
(271,385,o),
(370,385,cs),
(409,385,o),
(448,367,o),
(462,327,c),
(598,374,l),
(563,473,o),
(460,511,o),
(365,511,cs),
(190,511,o),
(70,383,o),
(70,208,cs),
(70,87,o),
(140,14,o),
(254,-6,c),
(215,-53,ls),
(201,-70,o),
(207,-92,o),
(233,-87,cs),
(239,-86,o),
(247,-85,o),
(258,-85,cs),
(275,-85,o),
(287,-95,o),
(287,-108,cs),
(287,-127,o),
(270,-136,o),
(251,-136,cs),
(224,-136,o),
(194,-125,o),
(183,-118,c),
(157,-168,l),
(184,-179,o),
(224,-188,o),
(266,-188,cs)
);
}
);
width = 632;
}
);
unicode = 231;
},
{
glyphname = d;
kernLeft = o;
kernRight = d;
lastChange = "2024-11-01 12:01:51 +0000";
layers = (
{
anchors = (
{
name = bottom;
pos = (277,0);
},
{
name = center;
pos = (525,581);
},
{
name = top;
pos = (446,796);
},
{
name = topright;
pos = (621,498);
}
);
layerId = "E15CF202-A01D-48E4-B2F5-B7F7AA5FDF32";
shapes = (
{
closed = 1;
nodes = (
(330,-12,o),
(396,22,o),
(443,78,c),
(447,0,l),
(497,0,l),
(499,94,o),
(514,159,o),
(519,183,cs),
(631,708,l),
(577,708,l),
(510,396,l),
(480,467,o),
(418,506,o),
(329,506,cs),
(153,506,o),
(57,355,o),
(57,197,cs),
(57,72,o),
(132,-12,o),
(253,-12,cs)
);
},
{
closed = 1;
nodes = (
(167,36,o),
(112,106,o),
(112,202,cs),
(112,302,o),
(168,458,o),
(333,458,cs),
(433,458,o),
(484,394,o),
(484,300,cs),
(484,188,o),
(413,36,o),
(264,36,cs)
);
}
);
width = 632;
},
{
anchors = (
{
name = bottom;
pos = (265,0);
},
{
name = center;
pos = (532,584);
},
{
name = top;
pos = (434,796);
},
{
name = topright;
pos = (632,496);
}
);
layerId = "60972605-F5BD-4F6B-BF23-CBE59F8EA585";
shapes = (
{
closed = 1;
nodes = (
(262,-12,o),
(323,9,o),
(373,66,c),
(379,0,l),
(537,0,l),
(538,70,o),
(550,142,o),
(561,195,cs),
(671,708,l),
(506,708,l),
(445,424,l),
(425,482,o),
(365,511,o),
(302,511,cs),
(133,511,o),
(35,354,o),
(35,194,cs),
(35,76,o),
(99,-12,o),
(210,-12,cs)
);
},
{
closed = 1;
nodes = (
(232,115,o),
(205,157,o),
(205,214,cs),
(205,274,o),
(241,385,o),
(335,385,cs),
(392,385,o),
(420,350,o),
(420,292,cs),
(420,223,o),
(382,115,o),
(287,115,cs)
);
}
);
width = 632;
}
);
unicode = 100;
},
{
glyphname = dcaron;
kernLeft = o;
kernRight = dcaron;
lastChange = "2024-11-01 12:01:51 +0000";
layers = (
{
layerId = "E15CF202-A01D-48E4-B2F5-B7F7AA5FDF32";
shapes = (
{
closed = 1;
nodes = (
(287,-12,o),
(345,27,o),
(387,78,c),
(392,0,l),
(442,0,l),
(444,94,o),
(459,159,o),
(464,183,cs),
(575,708,l),
(521,708,l),
(455,396,l),
(430,469,o),
(372,506,o),
(295,506,cs),
(133,506,o),
(42,351,o),
(42,191,cs),
(42,76,o),
(104,-12,o),
(216,-12,cs)
);
},
{
closed = 1;
nodes = (
(142,36,o),
(97,102,o),
(97,195,cs),
(97,304,o),
(154,458,o),
(297,458,cs),
(388,458,o),
(429,398,o),
(429,311,cs),
(429,209,o),
(366,36,o),
(229,36,cs)
);
},
{
closed = 1;
nodes = (
(619,542,l),
(679,655,ls),
(686,668,o),
(698,687,o),
(698,702,cs),
(698,716,o),
(686,720,o),
(676,720,cs),
(656,720,o),
(646,704,o),
(634,671,cs),
(589,542,l)
);
}
);
width = 632;
},
{
layerId = "60972605-F5BD-4F6B-BF23-CBE59F8EA585";
shapes = (
{
closed = 1;
nodes = (
(200,-12,o),
(250,4,o),
(295,46,c),
(298,0,l),
(451,0,l),
(454,70,o),
(466,142,o),
(477,195,cs),
(586,708,l),
(426,708,l),
(372,440,l),
(348,487,o),
(300,511,o),
(252,511,cs),
(78,511,o),
(2,328,o),
(2,189,cs),
(2,77,o),
(54,-12,o),
(159,-12,cs)
);
},
{
closed = 1;
nodes = (
(183,115,o),
(166,160,o),
(166,209,cs),
(166,275,o),
(200,385,o),
(278,385,cs),
(325,385,o),
(343,347,o),
(343,299,cs),
(343,242,o),
(314,115,o),
(230,115,cs)
);
},
{
closed = 1;
nodes = (
(640,524,l),
(692,605,ls),
(708,629,o),
(723,662,o),
(723,685,cs),
(723,704,o),
(710,718,o),
(686,718,cs),
(661,718,o),
(637,702,o),
(621,658,cs),
(571,524,l)
);
}
);
width = 632;
}
);
unicode = 271;
},
{
glyphname = dcroat;
kernLeft = o;
kernRight = d;
lastChange = "2024-11-01 12:01:51 +0000";
layers = (
{
layerId = "E15CF202-A01D-48E4-B2F5-B7F7AA5FDF32";
shapes = (
{
closed = 1;
nodes = (
(330,-12,o),
(396,22,o),
(443,78,c),
(447,0,l),
(497,0,l),
(499,94,o),
(514,159,o),
(519,183,cs),
(600,561,l),
(665,561,l),
(673,601,l),
(608,601,l),
(631,708,l),
(577,708,l),
(554,601,l),
(385,601,l),
(377,561,l),
(545,561,l),
(510,396,l),
(480,467,o),
(418,506,o),
(329,506,cs),
(153,506,o),
(57,355,o),
(57,197,cs),
(57,72,o),
(132,-12,o),
(253,-12,cs)
);
},
{
closed = 1;
nodes = (
(167,36,o),
(112,106,o),
(112,202,cs),
(112,302,o),
(168,458,o),
(333,458,cs),
(433,458,o),
(484,394,o),
(484,300,cs),
(484,188,o),
(413,36,o),
(264,36,cs)
);
}
);
width = 632;
},
{
layerId = "60972605-F5BD-4F6B-BF23-CBE59F8EA585";
shapes = (
{
closed = 1;
nodes = (
(262,-12,o),
(323,9,o),
(373,66,c),
(379,0,l),
(537,0,l),
(538,70,o),
(550,142,o),
(561,195,cs),
(636,544,l),
(690,544,l),
(708,624,l),
(653,624,l),
(671,708,l),
(506,708,l),
(488,624,l),
(352,624,l),
(334,544,l),
(471,544,l),
(445,424,l),
(425,482,o),
(365,511,o),
(302,511,cs),
(133,511,o),
(35,354,o),
(35,194,cs),
(35,76,o),
(99,-12,o),
(210,-12,cs)
);
},
{
closed = 1;
nodes = (
(232,115,o),
(205,157,o),
(205,214,cs),
(205,274,o),
(241,385,o),
(335,385,cs),
(392,385,o),
(420,350,o),
(420,292,cs),
(420,223,o),
(382,115,o),
(287,115,cs)
);
}
);
width = 632;
}
);
metricLeft = d;
unicode = 273;
},
{
glyphname = eth;
kernLeft = o;
kernRight = eth;
lastChange = "2024-11-01 12:01:51 +0000";
layers = (
{
layerId = "E15CF202-A01D-48E4-B2F5-B7F7AA5FDF32";
shapes = (
{
closed = 1;
nodes = (
(516,-12,o),
(582,276,o),
(582,439,cs),
(582,502,o),
(570,565,o),
(531,621,c),
(588,668,l),
(563,699,l),
(502,650,l),
(455,690,o),
(387,722,o),
(295,725,c),
(287,681,l),
(374,680,o),
(434,646,o),
(466,617,c),
(402,566,l),
(427,535,l),
(493,588,l),
(548,507,o),
(538,399,o),
(524,311,c),
(504,409,o),
(416,464,o),
(317,464,cs),
(160,464,o),
(56,334,o),
(56,197,cs),
(56,72,o),
(150,-12,o),
(280,-12,cs)
);
},
{
closed = 1;
nodes = (
(182,36,o),
(111,99,o),
(111,202,cs),
(111,319,o),
(195,416,o),
(319,416,cs),
(420,416,o),
(488,345,o),
(488,253,cs),
(488,140,o),
(403,36,o),
(280,36,cs)
);
}
);
width = 632;
},
{
layerId = "60972605-F5BD-4F6B-BF23-CBE59F8EA585";
shapes = (
{
closed = 1;
nodes = (
(517,-12,o),
(609,227,o),
(609,407,cs),
(609,490,o),
(589,578,o),
(531,637,c),
(599,692,l),
(555,746,l),
(476,681,l),
(432,714,o),
(372,737,o),
(289,746,c),
(263,620,l),
(303,616,o),
(340,606,o),
(364,588,c),
(301,537,l),
(345,483,l),
(417,544,l),
(463,491,o),
(457,424,o),
(450,398,c),
(414,434,o),
(365,453,o),
(300,453,cs),
(154,453,o),
(39,344,o),
(39,196,cs),
(39,65,o),
(141,-12,o),
(282,-12,cs)
);
},
{
closed = 1;
nodes = (
(227,110,o),
(209,152,o),
(209,197,cs),
(209,254,o),
(240,332,o),
(322,332,cs),
(389,332,o),
(409,287,o),
(409,242,cs),
(409,174,o),
(368,110,o),
(296,110,cs)
);
}
);
width = 632;
}
);
unicode = 240;
},
{
glyphname = e;
kernLeft = o;
kernRight = e;
lastChange = "2024-11-01 12:01:51 +0000";
layers = (
{
anchors = (
{
name = bottom;
pos = (261,2);
},
{
name = ogonek;
pos = (420,-5);
},
{
name = top;
pos = (373,494);
}
);
layerId = "E15CF202-A01D-48E4-B2F5-B7F7AA5FDF32";
name = "AHL Variable 05 Mono Light Mono";
shapes = (
{
closed = 1;
nodes = (
(393,-12,o),
(451,22,o),
(497,76,c),
(442,98,l),
(410,59,o),
(370,36,o),
(309,36,cs),
(188,36,o),
(125,113,o),
(139,244,c),
(550,244,l),
(581,384,o),
(502,506,o),
(350,506,cs),
(183,506,o),
(82,354,o),
(82,199,cs),
(82,80,o),
(154,-12,o),
(306,-12,cs)
);
},
{
closed = 1;
nodes = (
(173,379,o),
(238,458,o),
(347,458,cs),
(450,458,o),
(512,380,o),
(501,289,c),
(148,289,l)
);
}
);
width = 632;
},
{
anchors = (
{
name = bottom;
pos = (268,0);
},
{
name = ogonek;
pos = (481,10);
},
{
name = top;
pos = (378,496);
}
);
layerId = "60972605-F5BD-4F6B-BF23-CBE59F8EA585";
name = "AHL Variable 05 Mono ExtraBold Mono";
shapes = (
{
closed = 1;
nodes = (
(393,-12,o),
(478,25,o),
(534,96,c),
(412,146,l),
(392,125,o),
(363,114,o),
(326,114,cs),
(256,114,o),
(217,146,o),
(211,205,c),
(579,205,l),
(614,374,o),
(537,511,o),
(353,511,cs),
(187,511,o),
(56,384,o),
(56,214,cs),
(56,70,o),
(165,-12,o),
(306,-12,cs)
);
},
{
closed = 1;
nodes = (
(242,348,o),
(279,390,o),
(347,390,cs),
(412,390,o),
(446,354,o),
(446,301,c),
(224,301,l)
);
}
);
width = 632;
}
);
unicode = 101;
},
{
glyphname = eogonek;
kernLeft = o;
kernRight = e;
lastChange = "2024-11-01 12:01:51 +0000";
layers = (
{
anchors = (
{
name = top;
pos = (261,496);
}
);
layerId = "E15CF202-A01D-48E4-B2F5-B7F7AA5FDF32";
shapes = (
{
closed = 1;
nodes = (
(359,-183,o),
(370,-182,o),
(384,-178,c),
(393,-138,l),
(384,-141,o),
(376,-142,o),
(369,-142,cs),
(339,-142,o),
(316,-130,o),
(316,-101,cs),
(316,-60,o),
(358,-17,o),
(400,3,cs),
(438,21,o),
(470,44,o),
(497,76,c),
(442,98,l),
(410,59,o),
(370,36,o),
(309,36,cs),
(188,36,o),
(125,113,o),
(139,244,c),
(550,244,l),
(581,384,o),
(502,506,o),
(350,506,cs),
(183,506,o),
(82,354,o),
(82,199,cs),
(82,49,o),
(192,-22,o),
(333,-11,c),
(296,-38,o),
(267,-78,o),
(267,-119,cs),
(267,-160,o),
(300,-183,o),
(351,-183,cs)
);
},
{
closed = 1;
nodes = (
(173,379,o),
(238,458,o),
(347,458,cs),
(450,458,o),
(512,380,o),
(501,289,c),
(148,289,l)
);
}
);
width = 632;
},
{
anchors = (
{
name = top;
pos = (261,496);
}
);
layerId = "60972605-F5BD-4F6B-BF23-CBE59F8EA585";
shapes = (
{
closed = 1;
nodes = (
(416,-174,o),
(428,-174,o),
(443,-172,c),
(460,-91,l),
(454,-92,o),
(436,-95,o),
(417,-95,cs),
(388,-95,o),
(370,-83,o),
(370,-61,cs),
(370,-32,o),
(400,-4,o),
(434,15,cs),
(471,36,o),
(507,61,o),
(534,96,c),
(412,146,l),
(392,125,o),
(363,114,o),
(326,114,cs),
(256,114,o),
(217,146,o),
(211,205,c),
(579,205,l),
(614,374,o),
(537,511,o),
(353,511,cs),
(187,511,o),
(56,384,o),
(56,214,cs),
(56,83,o),
(146,3,o),
(269,-10,c),
(246,-31,o),
(230,-57,o),
(230,-83,cs),
(230,-151,o),
(317,-174,o),
(407,-174,cs)
);
},
{
closed = 1;
nodes = (
(242,348,o),
(279,390,o),
(347,390,cs),
(412,390,o),
(446,354,o),
(446,301,c),
(224,301,l)
);
}
);
width = 632;
}
);
metricLeft = e;
metricRight = e;
unicode = 281;
},
{
glyphname = f;
kernLeft = f;
kernRight = f;
lastChange = "2024-11-01 12:01:51 +0000";
layers = (
{
anchors = (
{
name = bottom;
pos = (244,0);
},
{
name = top;
pos = (413,796);
}
);
layerId = "E15CF202-A01D-48E4-B2F5-B7F7AA5FDF32";
name = "AHL Variable 05 Mono Light Mono";
shapes = (
{
closed = 1;
nodes = (
(271,0,l),
(367,452,l),
(512,452,l),
(521,496,l),
(376,496,l),
(399,602,ls),
(412,661,o),
(422,668,o),
(458,668,cs),
(638,668,l),
(648,716,l),
(458,716,ls),
(391,716,o),
(366,702,o),
(346,608,cs),
(322,496,l),
(162,496,l),
(153,452,l),
(313,452,l),
(217,0,l)
);
}
);
width = 632;
},
{
anchors = (
{
name = bottom;
pos = (243,0);
},
{
name = top;
pos = (412,796);
}
);
layerId = "60972605-F5BD-4F6B-BF23-CBE59F8EA585";
name = "AHL Variable 05 Mono ExtraBold Mono";
shapes = (
{
closed = 1;
nodes = (
(326,0,l),
(405,372,l),
(525,372,l),
(551,496,l),
(431,496,l),
(443,552,ls),
(449,582,o),
(460,589,o),
(494,589,cs),
(675,589,l),
(702,718,l),
(485,718,ls),
(375,718,o),
(310,703,o),
(285,583,cs),
(266,496,l),
(136,496,l),
(110,372,l),
(240,372,l),
(161,0,l)
);
}
);
width = 632;
}
);
unicode = 102;
},
{
glyphname = g;
kernLeft = g;
kernRight = g;
lastChange = "2024-11-01 12:01:51 +0000";
layers = (
{
anchors = (
{
name = bottom;
pos = (213,-251);
},
{
name = top;
pos = (363,496);
}
);
layerId = "E15CF202-A01D-48E4-B2F5-B7F7AA5FDF32";
name = "AHL Variable 05 Mono Light Mono";
shapes = (
{
closed = 1;
nodes = (
(373,-186,o),
(454,-129,o),
(476,-26,cs),
(586,496,l),
(546,496,l),
(512,401,l),
(485,467,o),
(414,506,o),
(337,506,cs),
(171,506,o),
(65,367,o),
(65,208,cs),
(65,97,o),
(130,4,o),
(261,4,cs),
(340,4,o),
(402,40,o),
(446,85,c),
(424,-17,ls),
(407,-100,o),
(342,-137,o),
(264,-137,cs),
(196,-137,o),
(116,-114,o),
(103,-56,c),
(48,-70,l),
(65,-153,o),
(172,-186,o),
(254,-186,cs)
);
},
{
closed = 1;
nodes = (
(172,52,o),
(120,121,o),
(120,212,cs),
(120,340,o),
(197,458,o),
(337,458,cs),
(461,458,o),
(503,361,o),
(479,245,cs),
(454,127,o),
(374,52,o),
(271,52,cs)
);
}
);
width = 632;
},
{
anchors = (
{
name = bottom;
pos = (218,-251);
},
{
name = top;
pos = (377,496);
}
);
guides = (
{
angle = 78.1174;
pos = (415,256);
}
);
layerId = "60972605-F5BD-4F6B-BF23-CBE59F8EA585";
name = "AHL Variable 05 Mono ExtraBold Mono";
shapes = (
{
closed = 1;
nodes = (
(396,-205,o),
(494,-145,o),
(528,16,cs),
(629,496,l),
(485,496,l),
(448,426,l),
(419,482,o),
(355,511,o),
(296,511,cs),
(137,511,o),
(43,375,o),
(43,227,cs),
(43,115,o),
(108,20,o),
(217,20,cs),
(270,20,o),
(326,39,o),
(379,87,c),
(360,0,ls),
(347,-64,o),
(303,-82,o),
(263,-82,cs),
(231,-82,o),
(187,-72,o),
(163,-33,c),
(32,-87,l),
(71,-176,o),
(169,-205,o),
(263,-205,cs)
);
},
{
closed = 1;
nodes = (
(241,147,o),
(213,190,o),
(213,244,cs),
(213,298,o),
(241,385,o),
(335,385,cs),
(401,385,o),
(438,340,o),
(421,259,cs),
(404,177,o),
(354,147,o),
(303,147,cs)
);
}
);
width = 632;
}
);
unicode = 103;
},
{
color = 6;
glyphname = gcommaaccent;
kernLeft = g;
kernRight = g;
lastChange = "2024-11-01 11:55:55 +0000";
layers = (
{
background = {
anchors = (
{
name = _top;
pos = (391,523);
},
{
name = bottom;
pos = (213,-251);
},
{
name = top;
pos = (363,496);
}
);
shapes = (
{
closed = 1;
nodes = (
(373,-186,o),
(454,-129,o),
(476,-26,cs),
(586,496,l),
(546,496,l),
(512,401,l),
(485,467,o),
(414,506,o),
(337,506,cs),
(171,506,o),
(65,367,o),
(65,208,cs),
(65,97,o),
(130,4,o),
(261,4,cs),
(340,4,o),
(402,40,o),
(445,85,c),
(424,-17,ls),
(407,-100,o),
(342,-137,o),
(264,-137,cs),
(196,-137,o),
(116,-114,o),
(103,-56,c),
(48,-70,l),
(65,-153,o),
(172,-186,o),
(254,-186,cs)
);
},
{
closed = 1;
nodes = (
(172,52,o),
(120,121,o),
(120,212,cs),
(120,340,o),
(197,458,o),
(337,458,cs),
(461,458,o),
(503,361,o),
(479,245,cs),
(454,127,o),
(374,52,o),
(271,52,cs)
);
},
{
closed = 1;
nodes = (
(411,757,o),
(352,701,o),
(352,640,cs),
(352,616,o),
(361,596,o),
(379,576,c),
(421,593,l),
(405,607,o),
(398,623,o),
(398,642,cs),
(398,701,o),
(451,727,o),
(496,726,c),
(471,754,l)
);
}
);
};
layerId = "E15CF202-A01D-48E4-B2F5-B7F7AA5FDF32";
shapes = (
{
ref = g;
},
{
ref = commaturnedabovecomb;
}
);
width = 632;
},
{
background = {
anchors = (
{
name = _top;
pos = (382,523);
},
{
name = bottom;
pos = (219,-251);
},
{
name = top;
pos = (378,496);
}
);
shapes = (
{
closed = 1;
nodes = (
(397,-205,o),
(495,-145,o),
(529,16,cs),
(630,496,l),
(486,496,l),
(449,426,l),
(420,482,o),
(356,511,o),
(297,511,cs),
(137,511,o),
(43,375,o),
(43,227,cs),
(43,115,o),
(109,20,o),
(218,20,cs),
(271,20,o),
(327,39,o),
(379,87,c),
(361,0,ls),
(348,-64,o),
(304,-82,o),
(264,-82,cs),
(232,-82,o),
(188,-72,o),
(164,-33,c),
(33,-87,l),
(72,-176,o),
(170,-205,o),
(264,-205,cs)
);
},
{
closed = 1;
nodes = (
(242,147,o),
(214,190,o),
(214,244,cs),
(214,298,o),
(242,385,o),
(336,385,cs),
(402,385,o),
(439,340,o),
(422,259,cs),
(405,177,o),
(355,147,o),
(304,147,cs)
);
},
{
closed = 1;
nodes = (
(411,781,o),
(298,755,o),
(298,659,cs),
(298,626,o),
(317,594,o),
(369,568,c),
(473,604,l),
(445,615,o),
(424,635,o),
(424,661,cs),
(424,716,o),
(493,724,o),
(540,721,c),
(497,773,l)
);
}
);
};
layerId = "60972605-F5BD-4F6B-BF23-CBE59F8EA585";
shapes = (
{
ref = g;
},
{
pos = (-1,0);
ref = commaturnedabovecomb;
}
);
width = 632;
}
);
metricLeft = g;
metricRight = g;
unicode = 291;
},
{
glyphname = h;
kernLeft = h;
kernRight = h;
lastChange = "2024-11-06 13:43:01 +0000";
layers = (
{
anchors = (
{
name = bottom;
pos = (258,0);
},
{
name = center;
pos = (264,581);
},
{
name = top;
pos = (427,796);
}
);
layerId = "E15CF202-A01D-48E4-B2F5-B7F7AA5FDF32";
name = "AHL Variable 05 Mono Light Mono";
shapes = (
{
closed = 1;
nodes = (
(116,0,l),
(174,273,ls),
(198,387,o),
(286,458,o),
(370,458,cs),
(476,458,o),
(498,395,o),
(477,298,cs),
(414,0,l),
(468,0,l),
(534,309,ls),
(556,410,o),
(521,506,o),
(384,506,cs),
(301,506,o),
(234,454,o),
(205,419,c),
(266,708,l),
(212,708,l),
(62,0,l)
);
}
);
width = 632;
},
{
anchors = (
{
name = bottom;
pos = (267,0);
},
{
name = center;
pos = (282,584);
},
{
name = top;
pos = (436,796);
}
);
layerId = "60972605-F5BD-4F6B-BF23-CBE59F8EA585";
name = "AHL Variable 05 Mono ExtraBold Mono";
shapes = (
{
closed = 1;
nodes = (
(189,0,l),
(241,248,ls),
(259,334,o),
(298,385,o),
(353,385,cs),
(410,385,o),
(418,339,o),
(405,276,cs),
(346,0,l),
(511,0,l),
(575,300,ls),
(603,432,o),
(565,511,o),
(443,511,cs),
(370,511,o),
(308,466,o),
(281,432,c),
(339,708,l),
(174,708,l),
(24,0,l)
);
}
);
width = 632;
}
);
unicode = 104;
},
{
glyphname = hbar;
kernLeft = h;
kernRight = h;
lastChange = "2024-11-06 13:43:06 +0000";
layers = (
{
layerId = "E15CF202-A01D-48E4-B2F5-B7F7AA5FDF32";
shapes = (
{
closed = 1;
nodes = (
(116,0,l),
(174,273,ls),
(198,387,o),
(286,458,o),
(370,458,cs),
(476,458,o),
(498,395,o),
(477,298,cs),
(414,0,l),
(468,0,l),
(534,309,ls),
(556,410,o),
(521,506,o),
(384,506,cs),
(301,506,o),
(234,454,o),
(205,419,c),
(235,561,l),
(404,561,l),
(412,601,l),
(243,601,l),
(266,708,l),
(212,708,l),
(189,601,l),
(124,601,l),
(116,561,l),
(181,561,l),
(62,0,l)
);
}
);
width = 632;
},
{
layerId = "60972605-F5BD-4F6B-BF23-CBE59F8EA585";
shapes = (
{
closed = 1;
nodes = (
(189,0,l),
(241,248,ls),
(259,334,o),
(298,385,o),
(353,385,cs),
(410,385,o),
(418,339,o),
(405,276,cs),
(346,0,l),
(511,0,l),
(575,300,ls),
(603,432,o),
(565,511,o),
(443,511,cs),
(370,511,o),
(308,466,o),
(281,432,c),
(305,544,l),
(440,544,l),
(458,624,l),
(321,624,l),
(339,708,l),
(174,708,l),
(156,624,l),
(102,624,l),
(84,544,l),
(139,544,l),
(24,0,l)
);
}
);
width = 632;
}
);
unicode = 295;
},
{
color = 6;
glyphname = i;
kernLeft = i;
kernRight = i;
lastChange = "2024-11-01 11:55:55 +0000";
layers = (
{
background = {
shapes = (
{
closed = 1;
nodes = (
(483,0,l),
(483,44,l),
(333,44,l),
(333,496,l),
(154,496,l),
(154,452,l),
(279,452,l),
(279,44,l),
(129,44,l),
(129,0,l)
);
},
{
closed = 1;
nodes = (
(320,601,o),
(341,622,o),
(341,647,cs),
(341,672,o),
(320,693,o),
(295,693,cs),
(270,693,o),
(249,672,o),
(249,647,cs),
(249,622,o),
(270,601,o),
(295,601,cs)
);
}
);
};
guides = (
{
angle = 78;
pos = (401,496);
},
{
angle = 78;
pos = (411,496);
},
{
angle = 78;
pos = (339,496);
},
{
angle = 78;
pos = (347,496);
}
);
layerId = "E15CF202-A01D-48E4-B2F5-B7F7AA5FDF32";
name = "AHL Variable 05 Mono Light Mono";
shapes = (
{
ref = idotless;
},
{
pos = (-6,0);
ref = dotaccentcomb.large;
}
);
width = 632;
},
{
background = {
shapes = (
{
closed = 1;
nodes = (
(589,0,l),
(589,124,l),
(427,124,l),
(427,496,l),
(125,496,l),
(125,372,l),
(261,372,l),
(261,124,l),
(99,124,l),
(99,0,l)
);
},
{
closed = 1;
nodes = (
(388,576,o),
(430,618,o),
(430,671,cs),
(430,724,o),
(388,766,o),
(335,766,cs),
(282,766,o),
(240,724,o),
(240,671,cs),
(240,618,o),
(282,576,o),
(335,576,cs)
);
}
);
};
guides = (
{
angle = 78;
pos = (479,496);
},
{
angle = 78;
pos = (482,496);
},
{
angle = 78;
pos = (417,496);
},
{
angle = 78;
pos = (425,496);
}
);
layerId = "60972605-F5BD-4F6B-BF23-CBE59F8EA585";
name = "AHL Variable 05 Mono ExtraBold Mono";
shapes = (
{
ref = idotless;
},
{
pos = (17,0);
ref = dotaccentcomb.large;
}
);
width = 632;
}
);
unicode = 105;
},
{
glyphname = idotless;
kernLeft = i;
kernRight = i;
lastChange = "2024-11-01 12:01:51 +0000";
layers = (
{
anchors = (
{
name = bottom;
pos = (263,0);
},
{
name = ogonek;
pos = (478,10);
},
{
name = top;
pos = (364,496);
}
);
layerId = "E15CF202-A01D-48E4-B2F5-B7F7AA5FDF32";
shapes = (
{
closed = 1;
nodes = (
(476,0,l),
(486,44,l),
(306,44,l),
(402,496,l),
(193,496,l),
(183,452,l),
(338,452,l),
(252,44,l),
(72,44,l),
(62,0,l)
);
}
);
width = 632;
},
{
anchors = (
{
name = bottom;
pos = (241,0);
},
{
name = ogonek;
pos = (537,10);
},
{
name = top;
pos = (386,496);
}
);
layerId = "60972605-F5BD-4F6B-BF23-CBE59F8EA585";
shapes = (
{
closed = 1;
nodes = (
(535,0,l),
(562,124,l),
(400,124,l),
(479,496,l),
(178,496,l),
(151,372,l),
(287,372,l),
(235,124,l),
(73,124,l),
(46,0,l)
);
}
);
width = 632;
}
);
unicode = 305;
},
{
color = 6;
glyphname = iacute;
kernLeft = i;
kernRight = i;
lastChange = "2024-11-01 11:55:55 +0000";
layers = (
{
background = {
anchors = (
{
name = _top;
pos = (106,496);
},
{
name = bottom;
pos = (110,0);
},
{
name = ogonek;
pos = (137,10);
},
{
name = top;
pos = (105,496);
}
);
shapes = (
{
closed = 1;
nodes = (
(143,0,l),
(143,496,l),
(28,496,l),
(28,452,l),
(89,452,l),
(89,0,l)
);
},
{
closed = 1;
nodes = (
(133,569,l),
(190,620,ls),
(217,645,o),
(226,652,o),
(226,670,cs),
(226,684,o),
(216,696,o),
(200,696,cs),
(184,696,o),
(174,684,o),
(159,665,cs),
(87,569,l)
);
}
);
};
layerId = "E15CF202-A01D-48E4-B2F5-B7F7AA5FDF32";
shapes = (
{
ref = idotless;
},
{
pos = (43,0);
ref = acutecomb;
}
);
width = 632;
},
{
background = {
anchors = (
{
name = _top;
pos = (181,496);
},
{
name = bottom;
pos = (140,0);
},
{
name = ogonek;
pos = (272,10);
},
{
name = top;
pos = (181,496);
}
);
shapes = (
{
closed = 1;
nodes = (
(274,0,l),
(274,496,l),
(20,496,l),
(20,372,l),
(106,372,l),
(106,0,l)
);
},
{
closed = 1;
nodes = (
(244,575,l),
(302,616,ls),
(335,640,o),
(340,656,o),
(340,675,cs),
(340,705,o),
(316,731,o),
(281,731,cs),
(256,731,o),
(242,719,o),
(223,696,cs),
(122,575,l)
);
}
);
};
layerId = "60972605-F5BD-4F6B-BF23-CBE59F8EA585";
shapes = (
{
ref = idotless;
},
{
pos = (61,0);
ref = acutecomb;
}
);
width = 632;
}
);
unicode = 237;
},
{
color = 6;
glyphname = icircumflex;
kernLeft = i;
kernRight = i;
lastChange = "2024-11-01 11:55:55 +0000";
layers = (
{
background = {
anchors = (
{
name = _top;
pos = (86,496);
},
{
name = bottom;
pos = (110,0);
},
{
name = ogonek;
pos = (137,10);
},
{
name = top;
pos = (105,496);
}
);
shapes = (
{
closed = 1;
nodes = (
(143,0,l),
(143,496,l),
(28,496,l),
(28,452,l),
(89,452,l),
(89,0,l)
);
},
{
closed = 1;
nodes = (
(17,576,l),
(85,636,l),
(155,576,l),
(210,576,l),
(130,658,ls),
(116,672,o),
(103,679,o),
(87,679,cs),
(69,679,o),
(56,672,o),
(42,658,cs),
(-38,576,l)
);
}
);
};
layerId = "E15CF202-A01D-48E4-B2F5-B7F7AA5FDF32";
shapes = (
{
ref = idotless;
},
{
pos = (-5,0);
ref = circumflexcomb;
}
);
width = 632;
},
{
background = {
anchors = (
{
name = _top;
pos = (180,496);
},
{
name = bottom;
pos = (140,0);
},
{
name = ogonek;
pos = (272,10);
},
{
name = top;
pos = (181,496);
}
);
shapes = (
{
closed = 1;
nodes = (
(274,0,l),
(274,496,l),
(20,496,l),
(20,372,l),
(106,372,l),
(106,0,l)
);
},
{
closed = 1;
nodes = (
(112,574,l),
(181,635,l),
(249,574,l),
(383,574,l),
(231,712,ls),
(217,723,o),
(200,732,o),
(180,732,cs),
(161,732,o),
(143,723,o),
(130,712,cs),
(-23,574,l)
);
}
);
};
layerId = "60972605-F5BD-4F6B-BF23-CBE59F8EA585";
shapes = (
{
ref = idotless;
},
{
pos = (17,0);
ref = circumflexcomb;
}
);
width = 632;
}
);
unicode = 238;
},
{
color = 6;
glyphname = igrave;
kernLeft = i;
kernRight = i;
lastChange = "2024-11-01 11:55:55 +0000";
layers = (
{
background = {
anchors = (
{
name = _top;
pos = (107,496);
},
{
name = bottom;
pos = (110,0);
},
{
name = ogonek;
pos = (137,10);
},
{
name = top;
pos = (105,496);
}
);
shapes = (
{
closed = 1;
nodes = (
(143,0,l),
(143,496,l),
(28,496,l),
(28,452,l),
(89,452,l),
(89,0,l)
);
},
{
closed = 1;
nodes = (
(126,569,l),
(54,665,ls),
(39,684,o),
(29,696,o),
(13,696,cs),
(-3,696,o),
(-13,684,o),
(-13,670,cs),
(-13,652,o),
(-4,645,o),
(23,620,cs),
(80,569,l)
);
}
);
};
layerId = "E15CF202-A01D-48E4-B2F5-B7F7AA5FDF32";
shapes = (
{
ref = idotless;
},
{
pos = (-52,0);
ref = gravecomb;
}
);
width = 632;
},
{
background = {
anchors = (
{
name = _top;
pos = (181,496);
},
{
name = bottom;
pos = (140,0);
},
{
name = ogonek;
pos = (272,10);
},
{
name = top;
pos = (181,496);
}
);
shapes = (
{
closed = 1;
nodes = (
(274,0,l),
(274,496,l),
(20,496,l),
(20,372,l),
(106,372,l),
(106,0,l)
);
},
{
closed = 1;
nodes = (
(240,575,l),
(139,696,ls),
(120,719,o),
(106,731,o),
(81,731,cs),
(46,731,o),
(22,705,o),
(22,675,cs),
(22,656,o),
(27,640,o),
(60,616,cs),
(118,575,l)
);
}
);
};
layerId = "60972605-F5BD-4F6B-BF23-CBE59F8EA585";
shapes = (
{
ref = idotless;
},
{
pos = (-27,0);
ref = gravecomb;
}
);
width = 632;
}
);
unicode = 236;
},
{
color = 6;
glyphname = imacron;
kernLeft = i;
kernRight = i;
lastChange = "2024-11-01 11:55:55 +0000";
layers = (
{
background = {
anchors = (
{
name = _top;
pos = (101,496);
},
{
name = bottom;
pos = (110,0);
},
{
name = ogonek;
pos = (137,10);
},
{
name = top;
pos = (105,496);
}
);
shapes = (
{
closed = 1;
nodes = (
(143,0,l),
(143,496,l),
(28,496,l),
(28,452,l),
(89,452,l),
(89,0,l)
);
},
{
closed = 1;
nodes = (
(228,607,l),
(228,651,l),
(-26,651,l),
(-26,607,l)
);
}
);
};
layerId = "E15CF202-A01D-48E4-B2F5-B7F7AA5FDF32";
shapes = (
{
ref = idotless;
},
{
pos = (-5,0);
ref = macroncomb;
}
);
width = 632;
},
{
background = {
anchors = (
{
name = _top;
pos = (180,496);
},
{
name = bottom;
pos = (140,0);
},
{
name = ogonek;
pos = (272,10);
},
{
name = top;
pos = (181,496);
}
);
shapes = (
{
closed = 1;
nodes = (
(274,0,l),
(274,496,l),
(20,496,l),
(20,372,l),
(106,372,l),
(106,0,l)
);
},
{
closed = 1;
nodes = (
(331,564,l),
(331,668,l),
(28,668,l),
(28,564,l)
);
}
);
};
layerId = "60972605-F5BD-4F6B-BF23-CBE59F8EA585";
shapes = (
{
ref = idotless;
},
{
pos = (17,0);
ref = macroncomb;
}
);
width = 632;
}
);
unicode = 299;
},
{
glyphname = iogonek;
kernLeft = i;
kernRight = i;
lastChange = "2024-11-01 12:01:51 +0000";
layers = (
{
anchors = (
{
name = top;
pos = (406,695);
}
);
layerId = "E15CF202-A01D-48E4-B2F5-B7F7AA5FDF32";
shapes = (
{
closed = 1;
nodes = (
(409,0,l),
(364,-24,o),
(325,-58,o),
(325,-105,cs),
(325,-144,o),
(358,-168,o),
(403,-168,cs),
(415,-168,o),
(427,-167,o),
(441,-164,c),
(450,-124,l),
(443,-126,o),
(431,-127,o),
(425,-127,cs),
(399,-127,o),
(372,-121,o),
(372,-93,cs),
(372,-49,o),
(430,-14,o),
(476,0,c),
(486,44,l),
(306,44,l),
(402,496,l),
(193,496,l),
(183,452,l),
(338,452,l),
(252,44,l),
(72,44,l),
(62,0,l)
);
},
{
closed = 1;
nodes = (
(421,599,o),
(443,621,o),
(443,647,cs),
(443,673,o),
(421,695,o),
(395,695,cs),
(369,695,o),
(347,673,o),
(347,647,cs),
(347,621,o),
(369,599,o),
(395,599,cs)
);
}
);
width = 632;
},
{
anchors = (
{
name = top;
pos = (444,766);
}
);
layerId = "60972605-F5BD-4F6B-BF23-CBE59F8EA585";
shapes = (
{
closed = 1;
nodes = (
(359,0,l),
(320,-20,o),
(282,-49,o),
(282,-89,cs),
(282,-152,o),
(376,-176,o),
(456,-176,cs),
(470,-176,o),
(486,-175,o),
(498,-172,c),
(515,-91,l),
(504,-93,o),
(487,-95,o),
(469,-95,cs),
(445,-95,o),
(424,-87,o),
(424,-67,cs),
(424,-38,o),
(471,-9,o),
(535,0,c),
(562,124,l),
(400,124,l),
(479,496,l),
(178,496,l),
(151,372,l),
(287,372,l),
(235,124,l),
(73,124,l),
(46,0,l)
);
},
{
closed = 1;
nodes = (
(476,576,o),
(518,618,o),
(518,671,cs),
(518,724,o),
(476,766,o),
(423,766,cs),
(370,766,o),
(328,724,o),
(328,671,cs),
(328,618,o),
(370,576,o),
(423,576,cs)
);
}
);
width = 632;
}
);
unicode = 303;
},
{
glyphname = ij;
kernLeft = i;
kernRight = j;
lastChange = "2024-11-01 12:01:51 +0000";
layers = (
{
guides = (
{
angle = 78;
pos = (222,248);
},
{
angle = 78;
pos = (230,248);
},
{
angle = 78;
pos = (512,248);
},
{
angle = 78;
pos = (531,248);
},
{
pos = (474,601);
},
{
pos = (474,693);
},
{
angle = 78;
pos = (439,248);
},
{
angle = 78;
pos = (458,248);
}
);
layerId = "E15CF202-A01D-48E4-B2F5-B7F7AA5FDF32";
shapes = (
{
closed = 1;
nodes = (
(327,-161,ls),
(402,-161,o),
(431,-137,o),
(455,-24,cs),
(565,496,l),
(450,496,l),
(441,452,l),
(502,452,l),
(401,-19,ls),
(383,-104,o),
(367,-113,o),
(317,-113,cs),
(216,-113,l),
(206,-161,l)
);
},
{
closed = 1;
nodes = (
(172,0,l),
(278,496,l),
(163,496,l),
(154,452,l),
(215,452,l),
(118,0,l)
);
},
{
closed = 1;
nodes = (
(298,599,o),
(320,621,o),
(320,647,cs),
(320,673,o),
(298,695,o),
(272,695,cs),
(246,695,o),
(224,673,o),
(224,647,cs),
(224,621,o),
(246,599,o),
(272,599,cs)
);
},
{
closed = 1;
nodes = (
(585,599,o),
(607,621,o),
(607,647,cs),
(607,673,o),
(585,695,o),
(559,695,cs),
(533,695,o),
(511,673,o),
(511,647,cs),
(511,621,o),
(533,599,o),
(559,599,cs)
);
}
);
width = 632;
},
{
guides = (
{
angle = 78;
pos = (266,248);
},
{
angle = 78;
pos = (269,248);
},
{
angle = 78;
pos = (572,248);
},
{
angle = 78;
pos = (559,248);
},
{
angle = 78;
pos = (394,248);
},
{
angle = 78;
pos = (381,248);
}
);
layerId = "60972605-F5BD-4F6B-BF23-CBE59F8EA585";
shapes = (
{
closed = 1;
nodes = (
(280,-161,ls),
(416,-161,o),
(485,-147,o),
(511,-26,cs),
(622,496,l),
(387,496,l),
(361,372,l),
(431,372,l),
(354,8,ls),
(346,-28,o),
(334,-32,o),
(287,-32,cs),
(241,-32,l),
(213,-161,l)
);
},
{
closed = 1;
nodes = (
(203,0,l),
(308,496,l),
(73,496,l),
(47,372,l),
(117,372,l),
(38,0,l)
);
},
{
closed = 1;
nodes = (
(306,576,o),
(348,618,o),
(348,671,cs),
(348,724,o),
(306,766,o),
(253,766,cs),
(200,766,o),
(158,724,o),
(158,671,cs),
(158,618,o),
(200,576,o),
(253,576,cs)
);
},
{
closed = 1;
nodes = (
(620,576,o),
(662,618,o),
(662,671,cs),
(662,724,o),
(620,766,o),
(567,766,cs),
(514,766,o),
(472,724,o),
(472,671,cs),
(472,618,o),
(514,576,o),
(567,576,cs)
);
}
);
width = 632;
}
);
unicode = 307;
},
{
color = 6;
glyphname = j;
kernLeft = j;
kernRight = j;
lastChange = "2024-11-01 11:55:55 +0000";
layers = (
{
background = {
anchors = (
{
name = _top;
pos = (109,496);
},
{
name = bottom;
pos = (98,-251);
},
{
name = top;
pos = (109,496);
}
);
shapes = (
{
closed = 1;
nodes = (
(-10,-161,ls),
(122,-161,o),
(136,-123,o),
(136,-9,cs),
(136,496,l),
(82,496,l),
(82,-10,ls),
(82,-95,o),
(73,-113,o),
(-10,-113,cs),
(-51,-113,l),
(-51,-161,l)
);
},
{
closed = 1;
nodes = (
(134,601,o),
(155,622,o),
(155,647,cs),
(155,672,o),
(134,693,o),
(109,693,cs),
(84,693,o),
(63,672,o),
(63,647,cs),
(63,622,o),
(84,601,o),
(109,601,cs)
);
}
);
};
layerId = "E15CF202-A01D-48E4-B2F5-B7F7AA5FDF32";
shapes = (
{
ref = jdotless;
},
{
pos = (24,0);
ref = dotaccentcomb.large;
}
);
width = 632;
},
{
background = {
anchors = (
{
name = _top;
pos = (131,496);
},
{
name = bottom;
pos = (131,-251);
},
{
name = top;
pos = (131,496);
}
);
shapes = (
{
ref = i;
}
);
};
guides = (
{
angle = 78;
pos = (510,496);
},
{
angle = 78;
pos = (513,496);
},
{
angle = 78;
pos = (448,496);
},
{
angle = 78;
pos = (456,496);
}
);
layerId = "60972605-F5BD-4F6B-BF23-CBE59F8EA585";
shapes = (
{
ref = jdotless;
},
{
pos = (48,0);
ref = dotaccentcomb.large;
}
);
width = 632;
}
);
unicode = 106;
},
{
glyphname = jdotless;
kernLeft = j;
kernRight = j;
lastChange = "2024-11-01 12:01:51 +0000";
layers = (
{
anchors = (
{
name = bottom;
pos = (235,-251);
},
{
name = top;
pos = (394,496);
}
);
layerId = "E15CF202-A01D-48E4-B2F5-B7F7AA5FDF32";
shapes = (
{
closed = 1;
nodes = (
(189,-162,ls),
(280,-162,o),
(300,-123,o),
(321,-24,cs),
(432,496,l),
(223,496,l),
(213,452,l),
(368,452,l),
(268,-19,ls),
(252,-92,o),
(241,-114,o),
(185,-114,cs),
(23,-114,l),
(13,-162,l)
);
}
);
width = 632;
},
{
anchors = (
{
name = bottom;
pos = (239,-251);
},
{
name = top;
pos = (417,496);
}
);
layerId = "60972605-F5BD-4F6B-BF23-CBE59F8EA585";
shapes = (
{
closed = 1;
nodes = (
(222,-162,ls),
(323,-162,o),
(376,-131,o),
(398,-28,cs),
(510,496,l),
(208,496,l),
(181,372,l),
(318,372,l),
(241,3,ls),
(235,-24,o),
(225,-33,o),
(195,-33,cs),
(9,-33,l),
(-19,-162,l)
);
}
);
width = 632;
}
);
unicode = 567;
},
{
glyphname = k;
kernLeft = h;
kernRight = k;
lastChange = "2024-11-01 12:01:51 +0000";
layers = (
{
anchors = (
{
name = bottom;
pos = (277,0);
},
{
name = top;
pos = (441,796);
}
);
layerId = "E15CF202-A01D-48E4-B2F5-B7F7AA5FDF32";
shapes = (
{
closed = 1;
nodes = (
(154,0,l),
(191,178,l),
(294,261,l),
(451,0,l),
(514,0,l),
(333,292,l),
(588,496,l),
(514,496,l),
(206,246,l),
(304,708,l),
(250,708,l),
(100,0,l)
);
}
);
width = 632;
},
{
anchors = (
{
name = bottom;
pos = (275,0);
},
{
name = top;
pos = (444,796);
}
);
layerId = "60972605-F5BD-4F6B-BF23-CBE59F8EA585";
shapes = (
{
closed = 1;
nodes = (
(183,0,l),
(205,103,l),
(296,180,l),
(396,0,l),
(577,0,l),
(417,283,l),
(669,496,l),
(463,496,l),
(247,303,l),
(333,708,l),
(168,708,l),
(18,0,l)
);
}
);
width = 632;
}
);
unicode = 107;
},
{
glyphname = l;
kernLeft = h;
kernRight = l;
lastChange = "2024-11-13 12:41:08 +0000";
layers = (
{
anchors = (
{
name = bottom;
pos = (318,0);
},
{
name = center;
pos = (282,317);
},
{
name = top;
pos = (354,708);
},
{
name = topright;
pos = (418,499);
}
);
layerId = "E15CF202-A01D-48E4-B2F5-B7F7AA5FDF32";
shapes = (
{
closed = 1;
nodes = (
(476,0,l),
(486,48,l),
(314,48,ls),
(261,48,o),
(255,62,o),
(263,102,cs),
(391,708,l),
(222,708,l),
(213,664,l),
(328,664,l),
(209,105,ls),
(194,33,o),
(210,0,o),
(309,0,cs)
);
}
);
width = 632;
},
{
anchors = (
{
name = bottom;
pos = (338,0);
},
{
name = center;
pos = (326,374);
},
{
name = top;
pos = (371,708);
},
{
name = topright;
pos = (438,497);
}
);
layerId = "60972605-F5BD-4F6B-BF23-CBE59F8EA585";
shapes = (
{
closed = 1;
nodes = (
(532,0,l),
(559,129,l),
(400,129,ls),
(334,129,o),
(326,146,o),
(338,200,cs),
(446,708,l),
(166,708,l),
(140,584,l),
(255,584,l),
(166,162,ls),
(140,40,o),
(179,0,o),
(339,0,cs)
);
}
);
width = 632;
}
);
unicode = 108;
},
{
color = 6;
glyphname = lcaron;
kernLeft = h;
kernRight = dcaron;
lastChange = "2024-11-01 11:55:55 +0000";
layers = (
{
background = {
anchors = (
{
name = _topright;
pos = (177,499);
},
{
name = bottom;
pos = (98,0);
},
{
name = center;
pos = (100,317);
},
{
name = top;
pos = (98,796);
},
{
name = topright;
pos = (177,499);
}
);
shapes = (
{
closed = 1;
nodes = (
(192,0,l),
(192,46,l),
(176,46,ls),
(132,46,o),
(126,58,o),
(126,96,cs),
(126,708,l),
(72,708,l),
(72,95,ls),
(72,24,o),
(93,0,o),
(171,0,cs)
);
},
{
closed = 1;
nodes = (
(230,543,l),
(269,656,ls),
(277,678,o),
(280,688,o),
(280,695,cs),
(280,715,o),
(264,721,o),
(251,721,cs),
(229,721,o),
(222,705,o),
(217,672,cs),
(197,543,l)
);
}
);
};
layerId = "E15CF202-A01D-48E4-B2F5-B7F7AA5FDF32";
shapes = (
{
ref = l;
},
{
pos = (107,3);
ref = caroncomb.alt;
}
);
width = 632;
},
{
background = {
anchors = (
{
name = _topright;
pos = (164,497);
},
{
name = bottom;
pos = (109,0);
},
{
name = center;
pos = (106,374);
},
{
name = top;
pos = (109,796);
},
{
name = topright;
pos = (164,497);
}
);
shapes = (
{
closed = 1;
nodes = (
(249,0,l),
(249,132,l),
(222,132,ls),
(166,132,o),
(156,142,o),
(156,197,cs),
(156,708,l),
(-10,708,l),
(-10,145,ls),
(-10,23,o),
(35,0,o),
(162,0,cs)
);
},
{
closed = 1;
nodes = (
(270,525,l),
(307,607,ls),
(320,635,o),
(325,647,o),
(325,662,cs),
(325,686,o),
(304,719,o),
(267,719,cs),
(244,719,o),
(214,703,o),
(208,669,cs),
(184,525,l)
);
}
);
};
layerId = "60972605-F5BD-4F6B-BF23-CBE59F8EA585";
shapes = (
{
ref = l;
},
{
pos = (154,1);
ref = caroncomb.alt;
}
);
width = 632;
}
);
metricLeft = l;
unicode = 318;
},
{
glyphname = lslash;
kernLeft = h;
kernRight = l;
lastChange = "2024-11-01 12:01:51 +0000";
layers = (
{
layerId = "E15CF202-A01D-48E4-B2F5-B7F7AA5FDF32";
shapes = (
{
closed = 1;
nodes = (
(476,0,l),
(486,48,l),
(314,48,ls),
(261,48,o),
(255,62,o),
(263,102,cs),
(307,308,l),
(414,368,l),
(425,420,l),
(318,360,l),
(391,708,l),
(222,708,l),
(213,664,l),
(328,664,l),
(256,326,l),
(183,285,l),
(172,233,l),
(245,274,l),
(209,105,ls),
(194,33,o),
(210,0,o),
(309,0,cs)
);
}
);
width = 632;
},
{
layerId = "60972605-F5BD-4F6B-BF23-CBE59F8EA585";
shapes = (
{
closed = 1;
nodes = (
(532,0,l),
(559,129,l),
(400,129,ls),
(334,129,o),
(326,146,o),
(338,200,cs),
(367,338,l),
(508,406,l),
(534,529,l),
(394,461,l),
(446,708,l),
(166,708,l),
(140,584,l),
(255,584,l),
(211,373,l),
(148,343,l),
(122,220,l),
(185,250,l),
(166,162,ls),
(140,40,o),
(179,0,o),
(339,0,cs)
);
}
);
width = 632;
}
);
unicode = 322;
},
{
glyphname = m;
kernLeft = n;
kernRight = h;
lastChange = "2024-11-01 12:01:51 +0000";
layers = (
{
anchors = (
{
name = bottom;
pos = (264,0);
},
{
name = top;
pos = (365,496);
}
);
layerId = "E15CF202-A01D-48E4-B2F5-B7F7AA5FDF32";
name = "AHL Variable 05 Mono Light Mono";
shapes = (
{
closed = 1;
nodes = (
(72,0,l),
(143,335,ls),
(161,416,o),
(211,458,o),
(263,458,cs),
(316,458,o),
(326,419,o),
(314,359,cs),
(237,0,l),
(291,0,l),
(363,336,ls),
(380,417,o),
(428,458,o),
(480,458,cs),
(534,458,o),
(545,418,o),
(532,358,cs),
(456,0,l),
(510,0,l),
(590,375,ls),
(606,451,o),
(585,506,o),
(503,506,cs),
(444,506,o),
(397,471,o),
(376,438,c),
(370,480,o),
(341,506,o),
(285,506,cs),
(228,506,o),
(186,473,o),
(163,441,c),
(166,496,l),
(124,496,l),
(18,0,l)
);
}
);
width = 632;
},
{
anchors = (
{
name = bottom;
pos = (266,0);
},
{
name = top;
pos = (371,496);
}
);
layerId = "60972605-F5BD-4F6B-BF23-CBE59F8EA585";
name = "AHL Variable 05 Mono ExtraBold Mono";
shapes = (
{
closed = 1;
nodes = (
(123,0,l),
(188,309,ls),
(199,360,o),
(219,385,o),
(246,385,cs),
(269,385,o),
(276,367,o),
(267,327,cs),
(198,0,l),
(331,0,l),
(397,310,ls),
(407,360,o),
(427,385,o),
(454,385,cs),
(476,385,o),
(484,368,o),
(475,327,cs),
(406,0,l),
(539,0,l),
(619,376,ls),
(636,457,o),
(608,511,o),
(530,511,cs),
(482,511,o),
(439,488,o),
(409,455,c),
(399,492,o),
(373,511,o),
(326,511,cs),
(281,511,o),
(239,486,o),
(209,451,c),
(205,496,l),
(95,496,l),
(-10,0,l)
);
}
);
width = 632;
}
);
unicode = 109;
},
{
glyphname = n;
kernLeft = n;
kernRight = h;
lastChange = "2024-11-01 12:01:51 +0000";
layers = (
{
anchors = (
{
name = bottom;
pos = (257,0);
},
{
name = top;
pos = (369,496);
}
);
layerId = "E15CF202-A01D-48E4-B2F5-B7F7AA5FDF32";
name = "AHL Variable 05 Mono Light Mono";
shapes = (
{
closed = 1;
nodes = (
(115,0,l),
(173,273,ls),
(197,387,o),
(285,458,o),
(369,458,cs),
(475,458,o),
(497,395,o),
(476,298,cs),
(413,0,l),
(467,0,l),
(533,309,ls),
(555,410,o),
(520,506,o),
(383,506,cs),
(300,506,o),
(235,457,o),
(202,416,c),
(207,496,l),
(167,496,l),
(61,0,l)
);
}
);
width = 632;
},
{
anchors = (
{
name = bottom;
pos = (265,0);
},
{
name = top;
pos = (370,496);
}
);
layerId = "60972605-F5BD-4F6B-BF23-CBE59F8EA585";
name = "AHL Variable 05 Mono ExtraBold Mono";
shapes = (
{
closed = 1;
nodes = (
(187,0,l),
(239,248,ls),
(257,334,o),
(296,385,o),
(350,385,cs),
(408,385,o),
(416,339,o),
(403,276,cs),
(344,0,l),
(509,0,l),
(573,300,ls),
(601,432,o),
(563,511,o),
(441,511,cs),
(368,511,o),
(306,466,o),
(279,432,c),
(274,496,l),
(127,496,l),
(22,0,l)
);
}
);
width = 632;
}
);
unicode = 110;
},
{
glyphname = o;
kernLeft = o;
kernRight = o;
lastChange = "2024-11-01 12:01:51 +0000";
layers = (
{
anchors = (
{
name = bottom;
pos = (262,0);
},
{
name = center;
pos = (315,248);
},
{
name = ogonek;
pos = (504,10);
},
{
name = top;
pos = (365,496);
},
{
name = topright;
pos = (644,496);
}
);
layerId = "E15CF202-A01D-48E4-B2F5-B7F7AA5FDF32";
name = "AHL Variable 05 Mono Light Mono";
shapes = (
{
closed = 1;
nodes = (
(453,-12,o),
(565,124,o),
(565,288,cs),
(565,424,o),
(468,506,o),
(345,506,cs),
(179,506,o),
(67,370,o),
(67,206,cs),
(67,70,o),
(164,-12,o),
(287,-12,cs)
);
},
{
closed = 1;
nodes = (
(171,36,o),
(122,116,o),
(122,210,cs),
(122,337,o),
(205,458,o),
(342,458,cs),
(461,458,o),
(510,378,o),
(510,284,cs),
(510,157,o),
(427,36,o),
(290,36,cs)
);
}
);
width = 632;
},
{
anchors = (
{
name = bottom;
pos = (264,0);
},
{
name = center;
pos = (317,248);
},
{
name = ogonek;
pos = (497,10);
},
{
name = top;
pos = (366,496);
},
{
name = topright;
pos = (637,496);
}
);
guides = (
{
angle = 90;
pos = (563,475);
},
{
angle = 90;
pos = (583,475);
},
{
angle = 90;
pos = (49,475);
},
{
angle = 90;
pos = (69,475);
}
);
layerId = "60972605-F5BD-4F6B-BF23-CBE59F8EA585";
name = "AHL Variable 05 Mono ExtraBold Mono";
shapes = (
{
closed = 1;
nodes = (
(468,-12,o),
(587,113,o),
(587,286,cs),
(587,419,o),
(490,511,o),
(343,511,cs),
(166,511,o),
(47,386,o),
(47,213,cs),
(47,80,o),
(144,-12,o),
(291,-12,cs)
);
},
{
closed = 1;
nodes = (
(239,114,o),
(215,153,o),
(215,211,cs),
(215,275,o),
(244,385,o),
(336,385,cs),
(395,385,o),
(419,346,o),
(419,288,cs),
(419,224,o),
(390,114,o),
(298,114,cs)
);
}
);
width = 632;
}
);
unicode = 111;
},
{
glyphname = oslash;
kernLeft = o;
kernRight = o;
lastChange = "2024-11-06 15:28:35 +0000";
layers = (
{
anchors = (
{
name = bottom;
pos = (262,0);
},
{
name = center;
pos = (315,248);
},
{
name = ogonek;
pos = (504,10);
},
{
name = top;
pos = (365,496);
},
{
name = topright;
pos = (644,496);
}
);
layerId = "E15CF202-A01D-48E4-B2F5-B7F7AA5FDF32";
shapes = (
{
closed = 1;
nodes = (
(453,-12,o),
(565,124,o),
(565,288,cs),
(565,336,o),
(553,377,o),
(532,410,c),
(599,467,l),
(575,497,l),
(509,440,l),
(469,483,o),
(411,506,o),
(345,506,cs),
(179,506,o),
(67,370,o),
(67,206,cs),
(67,160,o),
(78,119,o),
(98,87,c),
(31,29,l),
(55,-1,l),
(121,56,l),
(161,12,o),
(220,-12,o),
(287,-12,cs)
);
},
{
closed = 1;
nodes = (
(230,36,o),
(187,57,o),
(160,89,c),
(491,374,l),
(504,348,o),
(510,317,o),
(510,284,cs),
(510,157,o),
(427,36,o),
(290,36,cs)
);
},
{
closed = 1;
nodes = (
(128,148,o),
(122,178,o),
(122,210,cs),
(122,337,o),
(205,458,o),
(342,458,cs),
(401,458,o),
(443,438,o),
(470,407,c),
(139,122,l)
);
}
);
width = 632;
},
{
anchors = (
{
name = bottom;
pos = (264,0);
},
{
name = center;
pos = (317,248);
},
{
name = ogonek;
pos = (497,10);
},
{
name = top;
pos = (366,496);
},
{
name = topright;
pos = (637,496);
}
);
layerId = "60972605-F5BD-4F6B-BF23-CBE59F8EA585";
shapes = (
{
closed = 1;
nodes = (
(468,-12,o),
(587,113,o),
(587,286,cs),
(587,335,o),
(574,378,o),
(550,413,c),
(612,470,l),
(559,526,l),
(496,468,l),
(456,495,o),
(404,511,o),
(343,511,cs),
(166,511,o),
(47,386,o),
(47,213,cs),
(47,164,o),
(60,121,o),
(84,85,c),
(20,26,l),
(73,-30,l),
(139,31,l),
(179,3,o),
(231,-12,o),
(291,-12,cs)
);
},
{
closed = 1;
nodes = (
(276,114,o),
(258,120,o),
(245,130,c),
(419,291,l),
(419,290,o),
(419,289,o),
(419,288,cs),
(419,224,o),
(390,114,o),
(298,114,cs)
);
},
{
closed = 1;
nodes = (
(215,208,o),
(215,210,o),
(215,211,cs),
(215,275,o),
(244,385,o),
(336,385,cs),
(359,385,o),
(376,379,o),
(389,369,c),
(215,207,l)
);
}
);
width = 632;
}
);
metricLeft = o;
metricRight = o;
unicode = 248;
},
{
glyphname = oe;
kernLeft = o;
kernRight = e;
lastChange = "2024-11-01 12:01:51 +0000";
layers = (
{
anchors = (
{
name = bottom;
pos = (247,0);
},
{
name = top;
pos = (353,496);
}
);
layerId = "E15CF202-A01D-48E4-B2F5-B7F7AA5FDF32";
shapes = (
{
closed = 1;
nodes = (
(495,-12,o),
(542,23,o),
(581,79,c),
(535,96,l),
(504,51,o),
(477,32,o),
(438,32,cs),
(333,32,o),
(332,160,o),
(348,244,c),
(630,244,l),
(661,368,o),
(632,506,o),
(512,506,cs),
(449,506,o),
(391,460,o),
(351,380,c),
(339,449,o),
(304,506,o),
(223,506,cs),
(68,506,o),
(0,299,o),
(0,171,cs),
(0,77,o),
(33,-12,o),
(134,-12,cs),
(189,-12,o),
(255,25,o),
(300,112,c),
(312,43,o),
(350,-12,o),
(435,-12,cs)
);
},
{
closed = 1;
nodes = (
(73,36,o),
(51,104,o),
(51,175,cs),
(51,275,o),
(103,458,o),
(216,458,cs),
(286,458,o),
(309,389,o),
(309,317,cs),
(309,215,o),
(255,36,o),
(141,36,cs)
);
},
{
closed = 1;
nodes = (
(382,375,o),
(432,462,o),
(508,462,cs),
(588,462,o),
(600,365,o),
(586,286,c),
(357,286,l)
);
}
);
width = 632;
},
{
anchors = (
{
name = bottom;
pos = (271,0);
},
{
name = top;
pos = (376,496);
}
);
guides = (
{
angle = 159.5901;
pos = (490,145);
}
);
layerId = "60972605-F5BD-4F6B-BF23-CBE59F8EA585";
shapes = (
{
closed = 1;
nodes = (
(463,-12,o),
(530,19,o),
(584,97,c),
(487,137,l),
(472,111,o),
(448,95,o),
(420,95,cs),
(384,95,o),
(356,122,o),
(363,207,c),
(619,207,l),
(651,349,o),
(632,511,o),
(489,511,cs),
(433,511,o),
(389,486,o),
(354,441,c),
(334,483,o),
(298,511,o),
(237,511,cs),
(73,511,o),
(12,295,o),
(12,168,cs),
(12,68,o),
(50,-12,o),
(154,-12,cs),
(200,-12,o),
(244,9,o),
(281,53,c),
(302,14,o),
(340,-12,o),
(402,-12,cs)
);
},
{
closed = 1;
nodes = (
(137,109,o),
(126,147,o),
(126,189,cs),
(126,250,o),
(156,390,o),
(225,390,cs),
(263,390,o),
(273,354,o),
(273,313,cs),
(273,250,o),
(245,109,o),
(174,109,cs)
);
},
{
closed = 1;
nodes = (
(397,350,o),
(424,399,o),
(470,399,cs),
(516,399,o),
(523,355,o),
(515,297,c),
(381,297,l)
);
}
);
width = 632;
}
);
unicode = 339;
},
{
glyphname = p;
kernLeft = p;
kernRight = o;
lastChange = "2024-11-01 12:01:51 +0000";
layers = (
{
anchors = (
{
name = bottom;
pos = (220,0);
},
{
name = top;
pos = (326,496);
}
);
layerId = "E15CF202-A01D-48E4-B2F5-B7F7AA5FDF32";
shapes = (
{
closed = 1;
nodes = (
(67,-162,l),
(120,94,l),
(151,30,o),
(213,-12,o),
(305,-12,cs),
(481,-12,o),
(576,139,o),
(576,297,cs),
(576,422,o),
(501,506,o),
(380,506,cs),
(303,506,o),
(237,472,o),
(190,416,c),
(193,496,l),
(153,496,l),
(13,-162,l)
);
},
{
closed = 1;
nodes = (
(200,36,o),
(149,100,o),
(149,194,cs),
(149,305,o),
(216,458,o),
(369,458,cs),
(466,458,o),
(521,388,o),
(521,292,cs),
(521,192,o),
(465,36,o),
(300,36,cs)
);
}
);
width = 632;
},
{
anchors = (
{
name = bottom;
pos = (263,0);
},
{
name = top;
pos = (368,496);
}
);
layerId = "60972605-F5BD-4F6B-BF23-CBE59F8EA585";
shapes = (
{
closed = 1;
nodes = (
(139,-162,l),
(189,75,l),
(209,17,o),
(269,-12,o),
(332,-12,cs),
(501,-12,o),
(599,145,o),
(599,305,cs),
(599,423,o),
(535,511,o),
(424,511,cs),
(366,511,o),
(309,485,o),
(264,430,c),
(259,496,l),
(113,496,l),
(-26,-162,l)
);
},
{
closed = 1;
nodes = (
(241,115,o),
(213,150,o),
(213,207,cs),
(213,271,o),
(249,385,o),
(347,385,cs),
(402,385,o),
(429,343,o),
(429,286,cs),
(429,225,o),
(392,115,o),
(298,115,cs)
);
}
);
width = 632;
}
);
unicode = 112;
},
{
glyphname = thorn;
kernLeft = p;
kernRight = o;
lastChange = "2024-11-01 12:01:51 +0000";
layers = (
{
anchors = (
{
name = bottom;
pos = (262,0);
},
{
name = top;
pos = (367,496);
}
);
layerId = "E15CF202-A01D-48E4-B2F5-B7F7AA5FDF32";
shapes = (
{
closed = 1;
nodes = (
(68,-162,l),
(122,92,l),
(156,23,o),
(222,-12,o),
(306,-12,cs),
(482,-12,o),
(577,139,o),
(577,297,cs),
(577,422,o),
(502,506,o),
(381,506,cs),
(301,506,o),
(234,469,o),
(190,415,c),
(252,708,l),
(198,708,l),
(14,-162,l)
);
},
{
closed = 1;
nodes = (
(201,36,o),
(150,100,o),
(150,194,cs),
(150,306,o),
(219,458,o),
(370,458,cs),
(467,458,o),
(522,388,o),
(522,292,cs),
(522,192,o),
(466,36,o),
(301,36,cs)
);
}
);
width = 632;
},
{
anchors = (
{
name = bottom;
pos = (262,0);
},
{
name = top;
pos = (368,496);
}
);
layerId = "60972605-F5BD-4F6B-BF23-CBE59F8EA585";
shapes = (
{
closed = 1;
nodes = (
(138,-162,l),
(188,75,l),
(208,17,o),
(268,-12,o),
(331,-12,cs),
(500,-12,o),
(598,145,o),
(598,305,cs),
(598,423,o),
(534,511,o),
(423,511,cs),
(365,511,o),
(308,485,o),
(264,430,c),
(322,708,l),
(157,708,l),
(-27,-162,l)
);
},
{
closed = 1;
nodes = (
(240,115,o),
(212,150,o),
(212,207,cs),
(212,271,o),
(248,385,o),
(346,385,cs),
(401,385,o),
(428,343,o),
(428,286,cs),
(428,225,o),
(391,115,o),
(297,115,cs)
);
}
);
width = 632;
}
);
unicode = 254;
},
{
glyphname = q;
kernLeft = o;
kernRight = q;
lastChange = "2024-11-01 12:01:51 +0000";
layers = (
{
anchors = (
{
name = bottom;
pos = (279,0);
},
{
name = top;
pos = (384,496);
}
);
layerId = "E15CF202-A01D-48E4-B2F5-B7F7AA5FDF32";
shapes = (
{
closed = 1;
nodes = (
(507,-174,o),
(526,-169,o),
(545,-160,c),
(555,-112,l),
(538,-122,o),
(521,-126,o),
(504,-126,cs),
(468,-126,o),
(457,-104,o),
(467,-55,cs),
(584,496,l),
(544,496,l),
(509,398,l),
(480,466,o),
(417,506,o),
(327,506,cs),
(151,506,o),
(55,355,o),
(55,197,cs),
(55,72,o),
(130,-12,o),
(251,-12,cs),
(328,-12,o),
(394,22,o),
(441,77,c),
(413,-56,ls),
(394,-147,o),
(428,-174,o),
(486,-174,cs)
);
},
{
closed = 1;
nodes = (
(165,36,o),
(110,106,o),
(110,202,cs),
(110,303,o),
(166,458,o),
(331,458,cs),
(431,458,o),
(482,394,o),
(482,300,cs),
(482,188,o),
(411,36,o),
(262,36,cs)
);
}
);
width = 632;
},
{
anchors = (
{
name = bottom;
pos = (267,0);
},
{
name = top;
pos = (373,496);
}
);
layerId = "60972605-F5BD-4F6B-BF23-CBE59F8EA585";
shapes = (
{
closed = 1;
nodes = (
(500,-174,o),
(529,-169,o),
(544,-165,c),
(573,-29,l),
(559,-33,o),
(546,-35,o),
(534,-35,cs),
(493,-35,o),
(488,-11,o),
(498,38,cs),
(595,496,l),
(449,496,l),
(415,426,l),
(394,482,o),
(340,511,o),
(285,511,cs),
(109,511,o),
(33,322,o),
(33,183,cs),
(33,66,o),
(93,-12,o),
(186,-12,cs),
(236,-12,o),
(299,12,o),
(338,62,c),
(326,11,ls),
(298,-113,o),
(347,-174,o),
(472,-174,cs)
);
},
{
closed = 1;
nodes = (
(228,115,o),
(203,158,o),
(203,210,cs),
(203,270,o),
(239,385,o),
(323,385,cs),
(365,385,o),
(391,354,o),
(391,298,cs),
(391,220,o),
(350,115,o),
(273,115,cs)
);
}
);
width = 632;
}
);
unicode = 113;
},
{
glyphname = r;
kernLeft = n;
kernRight = r;
lastChange = "2024-11-06 13:42:29 +0000";
layers = (
{
anchors = (
{
name = bottom;
pos = (137,0);
},
{
name = top;
pos = (368,496);
}
);
layerId = "E15CF202-A01D-48E4-B2F5-B7F7AA5FDF32";
name = "AHL Variable 05 Mono Light Mono";
shapes = (
{
closed = 1;
nodes = (
(164,0,l),
(210,218,ls),
(243,373,o),
(356,447,o),
(476,447,cs),
(503,447,o),
(533,442,o),
(560,434,c),
(573,494,l),
(556,498,o),
(524,502,o),
(500,502,cs),
(402,502,o),
(305,458,o),
(245,371,c),
(255,496,l),
(215,496,l),
(110,0,l)
);
}
);
width = 632;
},
{
anchors = (
{
name = bottom;
pos = (141,0);
},
{
name = top;
pos = (383,496);
}
);
layerId = "60972605-F5BD-4F6B-BF23-CBE59F8EA585";
name = "AHL Variable 05 Mono ExtraBold Mono";
shapes = (
{
closed = 1;
nodes = (
(224,0,l),
(262,180,ls),
(287,298,o),
(364,361,o),
(482,361,cs),
(526,361,o),
(570,353,o),
(601,340,c),
(635,500,l),
(606,507,o),
(576,511,o),
(544,511,cs),
(464,511,o),
(378,484,o),
(302,405,c),
(295,496,l),
(164,496,l),
(59,0,l)
);
}
);
width = 632;
}
);
unicode = 114;
},
{
glyphname = s;
kernLeft = s;
kernRight = s;
lastChange = "2024-11-01 12:01:51 +0000";
layers = (
{
anchors = (
{
name = bottom;
pos = (292,0);
},
{
name = top;
pos = (364,496);
}
);
layerId = "E15CF202-A01D-48E4-B2F5-B7F7AA5FDF32";
name = "AHL Variable 05 Mono Light Mono";
shapes = (
{
closed = 1;
nodes = (
(413,-12,o),
(500,48,o),
(500,144,cs),
(500,208,o),
(449,243,o),
(364,272,cs),
(290,297,ls),
(246,312,o),
(205,334,o),
(205,375,cs),
(205,429,o),
(268,458,o),
(335,458,cs),
(397,458,o),
(463,437,o),
(479,385,c),
(530,404,l),
(506,475,o),
(424,506,o),
(341,506,cs),
(245,506,o),
(152,458,o),
(152,370,cs),
(152,309,o),
(195,274,o),
(267,250,cs),
(341,225,ls),
(398,206,o),
(447,187,o),
(447,136,cs),
(447,70,o),
(385,36,o),
(307,36,cs),
(231,36,o),
(157,63,o),
(143,134,c),
(90,115,l),
(114,27,o),
(208,-12,o),
(302,-12,cs)
);
}
);
width = 632;
},
{
anchors = (
{
name = bottom;
pos = (288,0);
},
{
name = top;
pos = (360,496);
}
);
layerId = "60972605-F5BD-4F6B-BF23-CBE59F8EA585";
name = "AHL Variable 05 Mono ExtraBold Mono";
shapes = (
{
closed = 1;
nodes = (
(430,-12,o),
(542,47,o),
(542,163,cs),
(542,230,o),
(491,269,o),
(398,297,cs),
(307,324,ls),
(271,335,o),
(260,348,o),
(260,361,cs),
(260,388,o),
(293,395,o),
(323,395,cs),
(359,395,o),
(412,386,o),
(427,342,c),
(564,389,l),
(529,483,o),
(427,511,o),
(335,511,cs),
(217,511,o),
(102,456,o),
(102,344,cs),
(102,276,o),
(157,233,o),
(236,209,cs),
(321,184,ls),
(369,170,o),
(382,157,o),
(382,144,cs),
(382,112,o),
(340,105,o),
(308,105,cs),
(267,105,o),
(200,119,o),
(184,166,c),
(45,118,l),
(84,22,o),
(199,-12,o),
(308,-12,cs)
);
}
);
width = 632;
}
);
unicode = 115;
},
{
glyphname = scedilla;
kernLeft = s;
kernRight = s;
lastChange = "2024-11-01 12:01:51 +0000";
layers = (
{
anchors = (
{
name = top;
pos = (364,496);
}
);
layerId = "E15CF202-A01D-48E4-B2F5-B7F7AA5FDF32";
shapes = (
{
closed = 1;
nodes = (
(309,-177,o),
(349,-144,o),
(349,-97,cs),
(349,-68,o),
(325,-44,o),
(289,-44,cs),
(282,-44,o),
(275,-45,o),
(268,-47,c),
(298,-12,l),
(440,-12,o),
(500,68,o),
(500,144,cs),
(500,208,o),
(449,243,o),
(364,272,cs),
(290,297,ls),
(246,312,o),
(205,334,o),
(205,375,cs),
(205,429,o),
(268,458,o),
(335,458,cs),
(397,458,o),
(463,437,o),
(479,385,c),
(530,404,l),
(506,475,o),
(424,506,o),
(341,506,cs),
(245,506,o),
(152,458,o),
(152,370,cs),
(152,309,o),
(195,274,o),
(267,250,cs),
(341,225,ls),
(398,206,o),
(447,187,o),
(447,136,cs),
(447,70,o),
(385,36,o),
(307,36,cs),
(231,36,o),
(157,63,o),
(143,134,c),
(90,115,l),
(111,39,o),
(183,0,o),
(263,-10,c),
(228,-52,ls),
(217,-65,o),
(218,-79,o),
(236,-79,cs),
(243,-79,o),
(255,-77,o),
(263,-77,cs),
(287,-77,o),
(305,-85,o),
(305,-106,cs),
(305,-127,o),
(285,-145,o),
(255,-145,cs),
(239,-145,o),
(219,-141,o),
(192,-123,c),
(174,-147,l),
(201,-167,o),
(227,-177,o),
(257,-177,cs)
);
}
);
width = 632;
},
{
anchors = (
{
name = top;
pos = (360,496);
}
);
layerId = "60972605-F5BD-4F6B-BF23-CBE59F8EA585";
shapes = (
{
closed = 1;
nodes = (
(329,-188,o),
(386,-166,o),
(386,-108,cs),
(386,-67,o),
(341,-46,o),
(293,-46,cs),
(289,-46,o),
(283,-46,o),
(278,-47,c),
(307,-12,l),
(430,-12,o),
(542,47,o),
(542,163,cs),
(542,230,o),
(491,269,o),
(398,297,cs),
(307,324,ls),
(271,335,o),
(260,348,o),
(260,361,cs),
(260,388,o),
(293,395,o),
(323,395,cs),
(359,395,o),
(412,386,o),
(427,342,c),
(564,389,l),
(529,483,o),
(427,511,o),
(335,511,cs),
(217,511,o),
(102,456,o),
(102,344,cs),
(102,276,o),
(157,233,o),
(236,209,cs),
(321,184,ls),
(369,170,o),
(382,157,o),
(382,144,cs),
(382,112,o),
(340,105,o),
(308,105,cs),
(267,105,o),
(200,119,o),
(184,166,c),
(45,118,l),
(77,39,o),
(161,2,o),
(251,-9,c),
(214,-53,ls),
(200,-70,o),
(206,-92,o),
(232,-87,cs),
(238,-86,o),
(246,-85,o),
(257,-85,cs),
(274,-85,o),
(286,-95,o),
(286,-108,cs),
(286,-127,o),
(269,-136,o),
(250,-136,cs),
(223,-136,o),
(193,-125,o),
(182,-118,c),
(156,-168,l),
(183,-179,o),
(223,-188,o),
(265,-188,cs)
);
}
);
width = 632;
}
);
metricLeft = s;
metricRight = s;
unicode = 351;
},
{
glyphname = germandbls;
kernLeft = germandbls;
kernRight = germandbls;
lastChange = "2024-11-01 12:01:51 +0000";
layers = (
{
layerId = "E15CF202-A01D-48E4-B2F5-B7F7AA5FDF32";
shapes = (
{
closed = 1;
nodes = (
(484,-14,o),
(572,106,o),
(572,225,cs),
(572,304,o),
(528,378,o),
(429,407,c),
(506,427,o),
(556,477,o),
(556,546,cs),
(556,626,o),
(474,680,o),
(371,680,cs),
(247,680,o),
(174,605,o),
(150,493,cs),
(45,0,l),
(99,0,l),
(202,486,ls),
(227,599,o),
(296,632,o),
(369,632,cs),
(432,632,o),
(504,604,o),
(504,544,cs),
(504,462,o),
(402,430,o),
(329,436,c),
(318,387,l),
(323,387,ls),
(423,387,o),
(518,324,o),
(518,224,cs),
(518,119,o),
(447,33,o),
(317,33,cs),
(307,33,o),
(272,35,o),
(241,41,c),
(245,-8,l),
(263,-12,o),
(293,-14,o),
(312,-14,cs)
);
}
);
width = 632;
},
{
layerId = "60972605-F5BD-4F6B-BF23-CBE59F8EA585";
shapes = (
{
closed = 1;
nodes = (
(531,-13,o),
(611,106,o),
(611,225,cs),
(611,289,o),
(582,354,o),
(511,383,c),
(557,421,o),
(579,477,o),
(579,524,cs),
(579,634,o),
(466,680,o),
(344,680,cs),
(220,680,o),
(132,632,o),
(100,484,cs),
(-3,0,l),
(162,0,l),
(260,460,ls),
(274,525,o),
(295,559,o),
(358,559,cs),
(396,559,o),
(441,546,o),
(441,508,cs),
(441,452,o),
(392,443,o),
(333,449,c),
(307,322,l),
(309,322,ls),
(385,322,o),
(443,287,o),
(443,222,cs),
(443,162,o),
(401,122,o),
(334,122,cs),
(304,122,o),
(270,129,o),
(240,143,c),
(252,1,l),
(290,-8,o),
(323,-13,o),
(353,-13,cs)
);
}
);
width = 632;
}
);
unicode = 223;
},
{
glyphname = t;
kernLeft = t;
kernRight = t;
lastChange = "2024-11-01 12:01:51 +0000";
layers = (
{
anchors = (
{
name = bottom;
pos = (292,0);
},
{
name = center;
pos = (285,248);
},
{
name = top;
pos = (338,496);
},
{
name = topright;
pos = (386,542);
}
);
layerId = "E15CF202-A01D-48E4-B2F5-B7F7AA5FDF32";
name = "AHL Variable 05 Mono Light Mono";
shapes = (
{
closed = 1;
nodes = (
(406,0,l),
(416,48,l),
(314,48,ls),
(261,48,o),
(255,64,o),
(267,121,cs),
(337,452,l),
(552,452,l),
(562,496,l),
(347,496,l),
(373,620,l),
(319,620,l),
(293,496,l),
(183,496,l),
(173,452,l),
(283,452,l),
(214,126,ls),
(193,31,o),
(214,0,o),
(304,0,cs)
);
}
);
width = 632;
},
{
anchors = (
{
name = bottom;
pos = (280,0);
},
{
name = center;
pos = (288,248);
},
{
name = top;
pos = (341,496);
},
{
name = topright;
pos = (446,554);
}
);
layerId = "60972605-F5BD-4F6B-BF23-CBE59F8EA585";
name = "AHL Variable 05 Mono ExtraBold Mono";
shapes = (
{
closed = 1;
nodes = (
(448,0,l),
(476,129,l),
(403,129,ls),
(345,129,o),
(328,145,o),
(338,191,cs),
(377,372,l),
(577,372,l),
(604,496,l),
(404,496,l),
(430,620,l),
(265,620,l),
(239,496,l),
(141,496,l),
(114,372,l),
(212,372,l),
(167,160,ls),
(142,41,o),
(181,0,o),
(337,0,cs)
);
}
);
width = 632;
}
);
unicode = 116;
},
{
glyphname = tcedilla;
kernLeft = t;
kernRight = t;
lastChange = "2024-11-01 12:01:51 +0000";
layers = (
{
anchors = (
{
name = center;
pos = (285,248);
},
{
name = top;
pos = (338,496);
},
{
name = topright;
pos = (386,542);
}
);
layerId = "E15CF202-A01D-48E4-B2F5-B7F7AA5FDF32";
shapes = (
{
closed = 1;
nodes = (
(309,-177,o),
(349,-144,o),
(349,-97,cs),
(349,-68,o),
(325,-44,o),
(289,-44,cs),
(282,-44,o),
(275,-45,o),
(268,-47,c),
(309,0,l),
(406,0,l),
(416,48,l),
(314,48,ls),
(261,48,o),
(255,64,o),
(267,121,cs),
(337,452,l),
(552,452,l),
(562,496,l),
(347,496,l),
(373,620,l),
(319,620,l),
(293,496,l),
(183,496,l),
(173,452,l),
(283,452,l),
(214,126,ls),
(196,44,o),
(209,9,o),
(272,2,c),
(228,-52,ls),
(217,-65,o),
(218,-79,o),
(236,-79,cs),
(243,-79,o),
(255,-77,o),
(263,-77,cs),
(287,-77,o),
(305,-85,o),
(305,-106,cs),
(305,-127,o),
(285,-145,o),
(255,-145,cs),
(239,-145,o),
(219,-141,o),
(192,-123,c),
(174,-147,l),
(201,-167,o),
(227,-177,o),
(257,-177,cs)
);
}
);
width = 632;
},
{
anchors = (
{
name = center;
pos = (288,248);
},
{
name = top;
pos = (341,496);
},
{
name = topright;
pos = (446,554);
}
);
layerId = "60972605-F5BD-4F6B-BF23-CBE59F8EA585";
shapes = (
{
closed = 1;
nodes = (
(321,-188,o),
(378,-166,o),
(378,-108,cs),
(378,-67,o),
(333,-46,o),
(285,-46,cs),
(281,-46,o),
(275,-46,o),
(270,-47,c),
(309,0,l),
(448,0,l),
(476,129,l),
(403,129,ls),
(345,129,o),
(328,145,o),
(338,191,cs),
(377,372,l),
(577,372,l),
(604,496,l),
(404,496,l),
(430,620,l),
(265,620,l),
(239,496,l),
(141,496,l),
(114,372,l),
(212,372,l),
(167,160,ls),
(147,66,o),
(168,20,o),
(255,6,c),
(206,-53,ls),
(192,-70,o),
(198,-92,o),
(224,-87,cs),
(230,-86,o),
(238,-85,o),
(249,-85,cs),
(266,-85,o),
(278,-95,o),
(278,-108,cs),
(278,-127,o),
(261,-136,o),
(242,-136,cs),
(215,-136,o),
(185,-125,o),
(174,-118,c),
(148,-168,l),
(175,-179,o),
(215,-188,o),
(257,-188,cs)
);
}
);
width = 632;
}
);
unicode = 355;
},
{
color = 6;
glyphname = tcommaaccent;
kernLeft = t;
kernRight = t;
lastChange = "2024-11-01 11:55:55 +0000";
layers = (
{
background = {
anchors = (
{
name = _bottom;
pos = (176,0);
},
{
name = bottom;
pos = (179,0);
},
{
name = center;
pos = (149,248);
},
{
name = top;
pos = (149,496);
},
{
name = topright;
pos = (188,542);
}
);
shapes = (
{
closed = 1;
nodes = (
(258,0,l),
(258,48,l),
(213,48,ls),
(162,48,o),
(158,64,o),
(158,117,cs),
(158,452,l),
(259,452,l),
(259,496,l),
(158,496,l),
(158,622,l),
(104,622,l),
(104,496,l),
(19,496,l),
(19,452,l),
(104,452,l),
(104,116,ls),
(104,20,o),
(129,0,o),
(209,0,cs)
);
},
{
closed = 1;
nodes = (
(190,-229,o),
(241,-191,o),
(241,-127,cs),
(241,-97,o),
(229,-75,o),
(202,-52,c),
(159,-70,l),
(185,-86,o),
(196,-110,o),
(196,-135,cs),
(196,-186,o),
(148,-204,o),
(115,-207,c),
(145,-232,l)
);
}
);
};
layerId = "E15CF202-A01D-48E4-B2F5-B7F7AA5FDF32";
shapes = (
{
ref = t;
},
{
pos = (30,0);
ref = commaaccentcomb;
}
);
width = 632;
},
{
background = {
anchors = (
{
name = _bottom;
pos = (222,0);
},
{
name = bottom;
pos = (222,0);
},
{
name = center;
pos = (192,248);
},
{
name = topright;
pos = (285,554);
}
);
shapes = (
{
closed = 1;
nodes = (
(363,0,l),
(363,133,l),
(321,133,ls),
(272,133,o),
(255,142,o),
(255,188,cs),
(255,371,l),
(363,371,l),
(363,496,l),
(255,496,l),
(255,620,l),
(90,620,l),
(90,496,l),
(8,496,l),
(8,371,l),
(90,371,l),
(90,143,ls),
(90,23,o),
(135,0,o),
(263,0,cs)
);
},
{
closed = 1;
nodes = (
(275,-251,o),
(337,-202,o),
(337,-141,cs),
(337,-104,o),
(314,-69,o),
(248,-43,c),
(138,-86,l),
(176,-94,o),
(209,-116,o),
(209,-145,cs),
(209,-179,o),
(175,-204,o),
(106,-204,c),
(160,-251,l)
);
}
);
};
layerId = "60972605-F5BD-4F6B-BF23-CBE59F8EA585";
shapes = (
{
ref = t;
},
{
pos = (16,0);
ref = commaaccentcomb;
}
);
width = 632;
}
);
unicode = 539;
},
{
glyphname = u;
kernLeft = u;
kernRight = u;
lastChange = "2024-11-01 12:01:51 +0000";
layers = (
{
anchors = (
{
name = bottom;
pos = (251,0);
},
{
name = ogonek;
pos = (460,10);
},
{
name = top;
pos = (356,496);
},
{
name = topright;
pos = (606,496);
}
);
layerId = "E15CF202-A01D-48E4-B2F5-B7F7AA5FDF32";
name = "AHL Variable 05 Mono Light Mono";
shapes = (
{
closed = 1;
nodes = (
(325,-12,o),
(392,42,o),
(424,79,c),
(418,0,l),
(458,0,l),
(564,496,l),
(510,496,l),
(451,221,ls),
(426,105,o),
(343,36,o),
(262,36,cs),
(162,36,o),
(141,100,o),
(162,198,cs),
(225,496,l),
(171,496,l),
(105,187,ls),
(83,86,o),
(118,-12,o),
(249,-12,cs)
);
}
);
width = 632;
},
{
anchors = (
{
name = bottom;
pos = (262,0);
},
{
name = ogonek;
pos = (505,10);
},
{
name = top;
pos = (367,496);
},
{
name = topright;
pos = (635,496);
}
);
layerId = "60972605-F5BD-4F6B-BF23-CBE59F8EA585";
name = "AHL Variable 05 Mono ExtraBold Mono";
shapes = (
{
closed = 1;
nodes = (
(268,-12,o),
(313,20,o),
(352,70,c),
(359,0,l),
(503,0,l),
(608,496,l),
(443,496,l),
(391,251,ls),
(373,165,o),
(334,114,o),
(282,114,cs),
(228,114,o),
(219,160,o),
(232,220,cs),
(291,496,l),
(126,496,l),
(62,196,ls),
(35,67,o),
(72,-12,o),
(191,-12,cs)
);
}
);
width = 632;
}
);
unicode = 117;
},
{
glyphname = uogonek;
kernLeft = u;
kernRight = u;
lastChange = "2024-11-01 12:01:51 +0000";
layers = (
{
anchors = (
{
name = top;
pos = (356,496);
},
{
name = topright;
pos = (606,496);
}
);
layerId = "E15CF202-A01D-48E4-B2F5-B7F7AA5FDF32";
shapes = (
{
closed = 1;
nodes = (
(325,-12,o),
(392,42,o),
(424,79,c),
(419,14,l),
(363,-11,o),
(307,-49,o),
(307,-105,cs),
(307,-144,o),
(340,-168,o),
(385,-168,cs),
(397,-168,o),
(409,-167,o),
(423,-164,c),
(432,-124,l),
(425,-126,o),
(413,-127,o),
(407,-127,cs),
(381,-127,o),
(354,-121,o),
(354,-93,cs),
(354,-49,o),
(412,-14,o),
(458,0,c),
(564,496,l),
(510,496,l),
(451,221,ls),
(426,105,o),
(343,36,o),
(262,36,cs),
(162,36,o),
(141,100,o),
(162,198,cs),
(225,496,l),
(171,496,l),
(105,187,ls),
(83,86,o),
(118,-12,o),
(249,-12,cs)
);
}
);
width = 632;
},
{
anchors = (
{
name = top;
pos = (367,496);
},
{
name = topright;
pos = (635,496);
}
);
layerId = "60972605-F5BD-4F6B-BF23-CBE59F8EA585";
shapes = (
{
closed = 1;
nodes = (
(268,-12,o),
(313,20,o),
(352,70,c),
(358,14,l),
(310,-5,o),
(250,-39,o),
(250,-89,cs),
(250,-152,o),
(344,-176,o),
(424,-176,cs),
(438,-176,o),
(454,-175,o),
(466,-172,c),
(483,-91,l),
(472,-93,o),
(455,-95,o),
(437,-95,cs),
(413,-95,o),
(392,-87,o),
(392,-67,cs),
(392,-38,o),
(439,-9,o),
(503,0,c),
(608,496,l),
(443,496,l),
(391,251,ls),
(373,165,o),
(334,114,o),
(282,114,cs),
(228,114,o),
(219,160,o),
(232,220,cs),
(291,496,l),
(126,496,l),
(62,196,ls),
(35,67,o),
(72,-12,o),
(191,-12,cs)
);
}
);
width = 632;
}
);
metricLeft = u;
metricRight = u;
unicode = 371;
},
{
glyphname = v;
kernLeft = v;
kernRight = v;
lastChange = "2024-11-01 12:01:51 +0000";
layers = (
{
anchors = (
{
name = bottom;
pos = (264,0);
},
{
name = top;
pos = (370,496);
}
);
layerId = "E15CF202-A01D-48E4-B2F5-B7F7AA5FDF32";
name = "AHL Variable 05 Mono Light Mono";
shapes = (
{
closed = 1;
nodes = (
(284,0,l),
(619,496,l),
(556,496,l),
(278,72,l),
(274,72,l),
(173,496,l),
(119,496,l),
(242,0,l)
);
}
);
width = 632;
},
{
anchors = (
{
name = bottom;
pos = (263,0);
},
{
name = top;
pos = (369,496);
}
);
layerId = "60972605-F5BD-4F6B-BF23-CBE59F8EA585";
name = "AHL Variable 05 Mono ExtraBold Mono";
shapes = (
{
closed = 1;
nodes = (
(356,0,l),
(640,496,l),
(467,496,l),
(297,167,l),
(293,167,l),
(263,496,l),
(98,496,l),
(169,0,l)
);
}
);
width = 632;
}
);
unicode = 118;
},
{
glyphname = w;
kernLeft = v;
kernRight = v;
lastChange = "2024-11-01 12:01:51 +0000";
layers = (
{
anchors = (
{
name = bottom;
pos = (262,0);
},
{
name = top;
pos = (366,496);
}
);
layerId = "E15CF202-A01D-48E4-B2F5-B7F7AA5FDF32";
shapes = (
{
closed = 1;
nodes = (
(156,0,l),
(350,418,l),
(354,418,l),
(371,0,l),
(416,0,l),
(650,496,l),
(594,496,l),
(414,95,l),
(410,95,l),
(391,496,l),
(342,496,l),
(155,93,l),
(151,93,l),
(139,496,l),
(88,496,l),
(111,0,l)
);
}
);
width = 632;
},
{
anchors = (
{
name = bottom;
pos = (264,0);
},
{
name = top;
pos = (366,496);
}
);
guides = (
{
angle = 90;
pos = (315,400);
}
);
layerId = "60972605-F5BD-4F6B-BF23-CBE59F8EA585";
shapes = (
{
closed = 1;
nodes = (
(209,0,l),
(329,325,l),
(333,325,l),
(317,0,l),
(466,0,l),
(672,496,l),
(539,496,l),
(413,166,l),
(409,166,l),
(433,496,l),
(302,496,l),
(186,166,l),
(182,166,l),
(195,496,l),
(66,496,l),
(60,0,l)
);
}
);
width = 632;
}
);
unicode = 119;
},
{
glyphname = x;
kernLeft = x;
kernRight = x;
lastChange = "2024-11-01 12:01:51 +0000";
layers = (
{
anchors = (
{
name = bottom;
pos = (264,0);
},
{
name = top;
pos = (370,496);
}
);
layerId = "E15CF202-A01D-48E4-B2F5-B7F7AA5FDF32";
shapes = (
{
closed = 1;
nodes = (
(92,0,l),
(308,217,l),
(312,217,l),
(441,0,l),
(502,0,l),
(355,251,l),
(601,496,l),
(534,496,l),
(323,287,l),
(319,287,l),
(198,496,l),
(138,496,l),
(280,255,l),
(25,0,l)
);
}
);
width = 632;
},
{
anchors = (
{
name = bottom;
pos = (264,0);
},
{
name = top;
pos = (370,496);
}
);
layerId = "60972605-F5BD-4F6B-BF23-CBE59F8EA585";
shapes = (
{
closed = 1;
nodes = (
(171,0,l),
(295,135,l),
(299,135,l),
(365,0,l),
(539,0,l),
(408,260,l),
(629,496,l),
(446,496,l),
(344,385,l),
(340,385,l),
(284,496,l),
(109,496,l),
(231,260,l),
(-13,0,l)
);
}
);
width = 632;
}
);
unicode = 120;
},
{
glyphname = y;
kernLeft = v;
kernRight = v;
lastChange = "2024-11-01 12:01:51 +0000";
layers = (
{
anchors = (
{
name = bottom;
pos = (261,0);
},
{
name = top;
pos = (360,496);
}
);
layerId = "E15CF202-A01D-48E4-B2F5-B7F7AA5FDF32";
shapes = (
{
closed = 1;
nodes = (
(87,-162,ls),
(174,-162,o),
(190,-140,o),
(257,-40,cs),
(619,496,l),
(557,496,l),
(279,73,l),
(275,73,l),
(174,496,l),
(119,496,l),
(239,13,l),
(186,-63,ls),
(157,-104,o),
(145,-114,o),
(98,-114,cs),
(21,-114,l),
(11,-162,l)
);
}
);
width = 632;
},
{
anchors = (
{
name = bottom;
pos = (264,0);
},
{
name = top;
pos = (359,496);
}
);
layerId = "60972605-F5BD-4F6B-BF23-CBE59F8EA585";
shapes = (
{
closed = 1;
nodes = (
(85,-162,ls),
(219,-162,o),
(261,-127,o),
(339,2,cs),
(640,496,l),
(459,496,l),
(304,197,l),
(300,197,l),
(270,496,l),
(98,496,l),
(188,10,l),
(178,-7,ls),
(163,-33,o),
(140,-42,o),
(84,-42,cs),
(12,-42,l),
(-14,-162,l)
);
}
);
width = 632;
}
);
unicode = 121;
},
{
glyphname = z;
kernLeft = z;
kernRight = z;
lastChange = "2024-11-01 12:01:51 +0000";
layers = (
{
anchors = (
{
name = bottom;
pos = (258,0);
},
{
name = center;
pos = (311,248);
},
{
name = top;
pos = (380,496);
}
);
layerId = "E15CF202-A01D-48E4-B2F5-B7F7AA5FDF32";
shapes = (
{
closed = 1;
nodes = (
(483,0,l),
(493,48,l),
(136,48,l),
(570,448,l),
(580,496,l),
(166,496,l),
(156,448,l),
(496,448,l),
(62,48,l),
(52,0,l)
);
}
);
width = 632;
},
{
anchors = (
{
name = bottom;
pos = (263,0);
},
{
name = center;
pos = (316,248);
},
{
name = top;
pos = (380,496);
}
);
layerId = "60972605-F5BD-4F6B-BF23-CBE59F8EA585";
shapes = (
{
closed = 1;
nodes = (
(520,0,l),
(548,130,l),
(282,130,l),
(583,366,l),
(611,496,l),
(138,496,l),
(110,366,l),
(345,366,l),
(44,130,l),
(16,0,l)
);
}
);
width = 632;
}
);
unicode = 122;
},
{
export = 0;
glyphname = r.ss01;
kernLeft = n;
kernRight = r;
lastChange = "2024-11-06 13:42:29 +0000";
layers = (
{
anchors = (
{
name = bottom;
pos = (243,0);
},
{
name = top;
pos = (325,496);
}
);
layerId = "E15CF202-A01D-48E4-B2F5-B7F7AA5FDF32";
name = "AHL Variable 05 Mono Light Mono";
shapes = (
{
closed = 1;
nodes = (
(216,0,l),
(216,218,ls),
(216,373,o),
(319,447,o),
(429,447,cs),
(455,447,o),
(491,440,o),
(520,428,c),
(520,490,l),
(502,497,o),
(466,502,o),
(441,502,cs),
(349,502,o),
(252,452,o),
(218,371,c),
(202,496,l),
(162,496,l),
(162,0,l)
);
}
);
width = 632;
},
{
anchors = (
{
name = bottom;
pos = (254,0);
},
{
name = top;
pos = (340,496);
}
);
layerId = "60972605-F5BD-4F6B-BF23-CBE59F8EA585";
name = "AHL Variable 05 Mono ExtraBold Mono";
shapes = (
{
closed = 1;
nodes = (
(276,0,l),
(276,190,ls),
(276,298,o),
(337,362,o),
(450,362,cs),
(499,362,o),
(543,348,o),
(591,325,c),
(591,490,l),
(560,503,o),
(523,511,o),
(484,511,cs),
(407,511,o),
(324,481,o),
(268,405,c),
(242,496,l),
(111,496,l),
(111,0,l)
);
}
);
width = 632;
}
);
},
{
export = 0;
glyphname = r.ss02;
kernLeft = n;
kernRight = r;
lastChange = "2024-11-06 13:42:29 +0000";
layers = (
{
anchors = (
{
name = bottom;
pos = (241,0);
},
{
name = top;
pos = (323,496);
}
);
layerId = "E15CF202-A01D-48E4-B2F5-B7F7AA5FDF32";
name = "AHL Variable 05 Mono Light Mono";
shapes = (
{
closed = 1;
nodes = (
(214,0,l),
(214,218,ls),
(214,373,o),
(314,456,o),
(424,456,cs),
(490,456,o),
(543,421,o),
(559,359,c),
(528,356,l),
(625,379,l),
(615,374,l),
(586,467,o),
(515,506,o),
(430,506,cs),
(339,506,o),
(253,457,o),
(216,376,c),
(200,496,l),
(160,496,l),
(160,0,l)
);
}
);
width = 632;
},
{
anchors = (
{
name = bottom;
pos = (224,0);
},
{
name = top;
pos = (310,496);
}
);
layerId = "60972605-F5BD-4F6B-BF23-CBE59F8EA585";
name = "AHL Variable 05 Mono ExtraBold Mono";
shapes = (
{
closed = 1;
nodes = (
(246,0,l),
(246,175,ls),
(246,312,o),
(310,377,o),
(389,377,cs),
(450,377,o),
(483,337,o),
(480,271,c),
(409,301,l),
(685,399,l),
(630,357,l),
(611,444,o),
(550,511,o),
(437,511,cs),
(365,511,o),
(294,483,o),
(242,417,c),
(220,496,l),
(81,496,l),
(81,0,l)
);
}
);
width = 632;
}
);
},
{
glyphname = ordfeminine;
kernLeft = ordfeminine;
kernRight = ordfeminine;
lastChange = "2024-11-01 12:01:51 +0000";
layers = (
{
layerId = "E15CF202-A01D-48E4-B2F5-B7F7AA5FDF32";
shapes = (
{
closed = 1;
nodes = (
(356,335,o),
(394,346,o),
(431,384,c),
(434,343,l),
(481,343,l),
(471,374,o),
(479,411,o),
(486,443,cs),
(507,541,ls),
(526,629,o),
(491,693,o),
(392,693,cs),
(322,693,o),
(271,656,o),
(253,605,c),
(294,595,l),
(308,632,o),
(342,652,o),
(389,652,cs),
(459,652,o),
(475,612,o),
(464,550,c),
(294,538,o),
(206,508,o),
(206,421,cs),
(206,362,o),
(250,335,o),
(316,335,cs)
);
},
{
closed = 1;
nodes = (
(287,373,o),
(255,384,o),
(255,420,cs),
(255,479,o),
(324,503,o),
(456,510,c),
(449,477,ls),
(437,420,o),
(392,373,o),
(322,373,cs)
);
}
);
width = 632;
},
{
layerId = "60972605-F5BD-4F6B-BF23-CBE59F8EA585";
shapes = (
{
closed = 1;
nodes = (
(355,335,o),
(391,353,o),
(408,372,c),
(411,343,l),
(509,343,l),
(512,390,o),
(517,418,o),
(527,464,cs),
(543,537,ls),
(565,654,o),
(500,693,o),
(389,693,cs),
(317,693,o),
(263,667,o),
(237,620,c),
(332,584,l),
(342,603,o),
(361,613,o),
(387,613,cs),
(420,613,o),
(439,602,o),
(433,565,c),
(320,560,o),
(185,540,o),
(185,430,cs),
(185,363,o),
(247,335,o),
(312,335,cs)
);
},
{
closed = 1;
nodes = (
(323,415,o),
(301,422,o),
(301,445,cs),
(301,475,o),
(343,491,o),
(422,494,c),
(417,470,ls),
(410,435,o),
(379,415,o),
(345,415,cs)
);
}
);
width = 632;
}
);
unicode = 170;
},
{
glyphname = ordmasculine;
kernLeft = ordmasculine;
kernRight = ordmasculine;
lastChange = "2024-11-01 12:01:51 +0000";
layers = (
{
layerId = "E15CF202-A01D-48E4-B2F5-B7F7AA5FDF32";
shapes = (
{
closed = 1;
nodes = (
(464,335,o),
(534,442,o),
(534,548,cs),
(534,634,o),
(479,693,o),
(396,693,cs),
(281,693,o),
(211,585,o),
(211,479,cs),
(211,393,o),
(266,335,o),
(349,335,cs)
);
},
{
closed = 1;
nodes = (
(295,376,o),
(261,416,o),
(261,481,cs),
(261,537,o),
(293,652,o),
(393,652,cs),
(450,652,o),
(484,611,o),
(484,546,cs),
(484,490,o),
(452,376,o),
(352,376,cs)
);
}
);
width = 632;
},
{
layerId = "60972605-F5BD-4F6B-BF23-CBE59F8EA585";
shapes = (
{
closed = 1;
nodes = (
(492,335,o),
(559,437,o),
(559,541,cs),
(559,643,o),
(481,693,o),
(387,693,cs),
(254,693,o),
(187,591,o),
(187,487,cs),
(187,385,o),
(265,335,o),
(359,335,cs)
);
},
{
closed = 1;
nodes = (
(322,424,o),
(305,454,o),
(305,492,cs),
(305,534,o),
(328,605,o),
(386,605,cs),
(424,605,o),
(441,574,o),
(441,536,cs),
(441,494,o),
(418,424,o),
(360,424,cs)
);
}
);
width = 632;
}
);
unicode = 186;
},
{
glyphname = Delta;
kernLeft = A;
kernRight = A;
lastChange = "2024-11-01 12:01:51 +0000";
layers = (
{
layerId = "E15CF202-A01D-48E4-B2F5-B7F7AA5FDF32";
shapes = (
{
closed = 1;
nodes = (
(544,0,l),
(435,668,l),
(376,668,l),
(-18,0,l)
);
},
{
closed = 1;
nodes = (
(393,609,l),
(397,609,l),
(483,48,l),
(69,48,l)
);
}
);
width = 632;
},
{
layerId = "60972605-F5BD-4F6B-BF23-CBE59F8EA585";
shapes = (
{
closed = 1;
nodes = (
(548,0,l),
(495,668,l),
(315,668,l),
(-22,0,l)
);
},
{
closed = 1;
nodes = (
(368,495,l),
(372,495,l),
(390,137,l),
(198,137,l)
);
}
);
width = 632;
}
);
metricLeft = A;
metricRight = A;
unicode = 916;
},
{
glyphname = Omega;
kernLeft = Omega;
kernRight = Omega;
lastChange = "2024-11-01 12:01:51 +0000";
layers = (
{
layerId = "E15CF202-A01D-48E4-B2F5-B7F7AA5FDF32";
shapes = (
{
closed = 1;
nodes = (
(195,0,l),
(226,147,l),
(153,173,o),
(112,253,o),
(112,344,cs),
(112,495,o),
(226,632,o),
(377,632,cs),
(495,632,o),
(578,538,o),
(578,416,cs),
(578,284,o),
(498,189,o),
(362,147,c),
(331,0,l),
(550,0,l),
(560,48,l),
(389,48,l),
(402,112,l),
(577,186,o),
(627,318,o),
(627,425,cs),
(627,567,o),
(528,680,o),
(380,680,cs),
(208,680,o),
(62,522,o),
(62,340,cs),
(62,245,o),
(102,161,o),
(172,122,c),
(157,48,l),
(-14,48,l),
(-24,0,l)
);
}
);
width = 632;
},
{
layerId = "60972605-F5BD-4F6B-BF23-CBE59F8EA585";
shapes = (
{
closed = 1;
nodes = (
(244,0,l),
(293,232,l),
(226,249,o),
(182,305,o),
(182,375,cs),
(182,468,o),
(263,556,o),
(363,556,cs),
(443,556,o),
(508,505,o),
(508,408,cs),
(508,312,o),
(427,234,o),
(331,232,c),
(282,0,l),
(546,0,l),
(571,121,l),
(446,121,l),
(452,147,l),
(571,199,o),
(640,301,o),
(640,422,cs),
(640,563,o),
(538,680,o),
(380,680,cs),
(192,680,o),
(50,527,o),
(50,345,cs),
(50,265,o),
(82,198,o),
(138,154,c),
(130,121,l),
(5,121,l),
(-20,0,l)
);
}
);
width = 632;
}
);
unicode = 937;
},
{
glyphname = mu;
kernLeft = p;
kernRight = u;
lastChange = "2024-11-01 12:01:51 +0000";
layers = (
{
layerId = "E15CF202-A01D-48E4-B2F5-B7F7AA5FDF32";
shapes = (
{
closed = 1;
nodes = (
(96,-162,l),
(138,37,l),
(167,0,o),
(210,-12,o),
(250,-12,cs),
(310,-12,o),
(377,29,o),
(413,74,c),
(408,26,o),
(422,0,o),
(493,0,cs),
(505,0,l),
(514,46,l),
(504,46,ls),
(467,46,o),
(464,58,o),
(472,96,cs),
(557,496,l),
(503,496,l),
(444,221,ls),
(419,105,o),
(333,36,o),
(264,36,cs),
(176,36,o),
(152,100,o),
(173,198,cs),
(236,496,l),
(182,496,l),
(42,-162,l)
);
}
);
width = 632;
},
{
layerId = "60972605-F5BD-4F6B-BF23-CBE59F8EA585";
shapes = (
{
closed = 1;
nodes = (
(128,-162,l),
(161,-9,l),
(170,-11,o),
(181,-12,o),
(192,-12,cs),
(232,-12,o),
(288,-2,o),
(339,64,c),
(348,27,o),
(373,0,o),
(466,0,cs),
(560,0,l),
(588,132,l),
(568,132,ls),
(521,132,o),
(510,143,o),
(522,198,cs),
(586,496,l),
(420,496,l),
(368,251,ls),
(350,165,o),
(311,114,o),
(259,114,cs),
(205,114,o),
(196,160,o),
(209,220,cs),
(268,496,l),
(103,496,l),
(-37,-162,l)
);
}
);
width = 632;
}
);
unicode = 956;
},
{
glyphname = pi;
kernLeft = pi;
kernRight = pi;
lastChange = "2024-11-01 12:01:51 +0000";
layers = (
{
layerId = "E15CF202-A01D-48E4-B2F5-B7F7AA5FDF32";
shapes = (
{
closed = 1;
nodes = (
(145,0,l),
(241,452,l),
(450,452,l),
(380,123,ls),
(359,22,o),
(373,0,o),
(480,0,cs),
(491,0,l),
(501,48,l),
(468,48,ls),
(428,48,o),
(422,60,o),
(434,117,cs),
(505,452,l),
(587,452,l),
(597,496,l),
(126,496,l),
(116,452,l),
(187,452,l),
(91,0,l)
);
}
);
width = 632;
},
{
layerId = "60972605-F5BD-4F6B-BF23-CBE59F8EA585";
shapes = (
{
closed = 1;
nodes = (
(189,0,l),
(269,374,l),
(395,374,l),
(343,131,ls),
(323,34,o),
(357,0,o),
(478,0,cs),
(540,0,l),
(564,111,l),
(541,111,ls),
(490,111,o),
(477,123,o),
(485,158,cs),
(531,374,l),
(620,374,l),
(646,496,l),
(66,496,l),
(40,374,l),
(132,374,l),
(52,0,l)
);
}
);
width = 632;
}
);
unicode = 960;
},
{
glyphname = .notdef;
kernLeft = space;
kernRight = space;
lastChange = "2024-11-01 12:01:51 +0000";
layers = (
{
layerId = "E15CF202-A01D-48E4-B2F5-B7F7AA5FDF32";
shapes = (
{
closed = 1;
nodes = (
(477,0,l),
(625,700,l),
(198,700,l),
(50,0,l)
);
},
{
closed = 1;
nodes = (
(334,329,l),
(453,21,l),
(83,21,l)
);
},
{
closed = 1;
nodes = (
(209,650,l),
(325,350,l),
(81,49,l)
);
},
{
closed = 1;
nodes = (
(350,350,l),
(595,652,l),
(467,47,l)
);
},
{
closed = 1;
nodes = (
(222,680,l),
(593,680,l),
(341,371,l)
);
}
);
width = 632;
},
{
layerId = "60972605-F5BD-4F6B-BF23-CBE59F8EA585";
shapes = (
{
closed = 1;
nodes = (
(477,0,l),
(625,700,l),
(198,700,l),
(50,0,l)
);
},
{
closed = 1;
nodes = (
(334,329,l),
(453,21,l),
(83,21,l)
);
},
{
closed = 1;
nodes = (
(209,650,l),
(325,350,l),
(81,49,l)
);
},
{
closed = 1;
nodes = (
(350,350,l),
(595,652,l),
(467,47,l)
);
},
{
closed = 1;
nodes = (
(222,680,l),
(593,680,l),
(341,371,l)
);
}
);
width = 632;
}
);
},
{
glyphname = period;
kernLeft = period;
kernRight = period_2;
lastChange = "2024-11-01 12:01:51 +0000";
layers = (
{
layerId = "E15CF202-A01D-48E4-B2F5-B7F7AA5FDF32";
shapes = (
{
closed = 1;
nodes = (
(301,-12,o),
(324,11,o),
(324,40,cs),
(324,69,o),
(301,92,o),
(272,92,cs),
(243,92,o),
(220,69,o),
(220,40,cs),
(220,11,o),
(243,-12,o),
(272,-12,cs)
);
}
);
width = 632;
},
{
layerId = "60972605-F5BD-4F6B-BF23-CBE59F8EA585";
metricRight = "=199";
shapes = (
{
closed = 1;
nodes = (
(348,-12,o),
(400,40,o),
(400,103,cs),
(400,166,o),
(348,218,o),
(285,218,cs),
(222,218,o),
(170,166,o),
(170,103,cs),
(170,40,o),
(222,-12,o),
(285,-12,cs)
);
}
);
width = 632;
}
);
metricRight = "=|";
unicode = 46;
},
{
glyphname = comma;
kernLeft = period;
kernRight = period_2;
lastChange = "2024-11-01 12:01:51 +0000";
layers = (
{
layerId = "E15CF202-A01D-48E4-B2F5-B7F7AA5FDF32";
shapes = (
{
closed = 1;
nodes = (
(225,-138,l),
(313,6,ls),
(321,19,o),
(326,28,o),
(326,43,cs),
(326,65,o),
(308,92,o),
(275,92,cs),
(246,92,o),
(223,69,o),
(223,40,cs),
(223,15,o),
(238,-3,o),
(260,-12,c),
(182,-138,l)
);
}
);
width = 632;
},
{
layerId = "60972605-F5BD-4F6B-BF23-CBE59F8EA585";
shapes = (
{
closed = 1;
nodes = (
(248,-162,l),
(373,34,ls),
(389,59,o),
(399,81,o),
(399,110,cs),
(399,170,o),
(347,218,o),
(286,218,cs),
(222,218,o),
(170,167,o),
(170,103,cs),
(170,64,o),
(193,18,o),
(238,0,c),
(134,-162,l)
);
}
);
width = 632;
}
);
unicode = 44;
},
{
color = 6;
glyphname = colon;
kernLeft = colon;
kernRight = colon_2;
lastChange = "2024-11-01 11:55:55 +0000";
layers = (
{
background = {
shapes = (
{
closed = 1;
nodes = (
(119,-12,o),
(140,9,o),
(140,34,cs),
(140,60,o),
(119,82,o),
(92,82,cs),
(67,82,o),
(46,60,o),
(46,34,cs),
(46,9,o),
(67,-12,o),
(92,-12,cs)
);
},
{
closed = 1;
nodes = (
(119,406,o),
(140,428,o),
(140,455,cs),
(140,480,o),
(119,501,o),
(92,501,cs),
(67,501,o),
(46,480,o),
(46,455,cs),
(46,428,o),
(67,406,o),
(92,406,cs)
);
}
);
};
guides = (
{
angle = 78;
pos = (219,40);
}
);
layerId = "E15CF202-A01D-48E4-B2F5-B7F7AA5FDF32";
shapes = (
{
pos = (-1,0);
ref = period;
},
{
pos = (88,417);
ref = period;
}
);
width = 632;
},
{
background = {
shapes = (
{
closed = 1;
nodes = (
(207,-12,o),
(253,35,o),
(253,92,cs),
(253,150,o),
(207,195,o),
(150,195,cs),
(93,195,o),
(46,150,o),
(46,92,cs),
(46,35,o),
(93,-12,o),
(150,-12,cs)
);
},
{
closed = 1;
nodes = (
(207,305,o),
(253,351,o),
(253,407,cs),
(253,464,o),
(207,511,o),
(150,511,cs),
(93,511,o),
(46,464,o),
(46,407,cs),
(46,351,o),
(93,305,o),
(150,305,cs)
);
}
);
};
guides = (
{
angle = 78;
pos = (170,120);
}
);
layerId = "60972605-F5BD-4F6B-BF23-CBE59F8EA585";
shapes = (
{
ref = period;
},
{
pos = (66,310);
ref = period;
}
);
width = 632;
}
);
unicode = 58;
},
{
color = 6;
glyphname = semicolon;
kernLeft = colon;
kernRight = colon_2;
lastChange = "2024-11-01 11:55:55 +0000";
layers = (
{
background = {
guides = (
{
angle = 78;
pos = (200,66);
}
);
shapes = (
{
closed = 1;
nodes = (
(223,-138,l),
(311,6,ls),
(319,19,o),
(324,28,o),
(324,43,cs),
(324,65,o),
(306,92,o),
(273,92,cs),
(244,92,o),
(221,69,o),
(221,40,cs),
(221,15,o),
(236,-3,o),
(258,-12,c),
(180,-138,l)
);
},
{
pos = (89,417);
ref = period;
}
);
};
guides = (
{
angle = 78;
pos = (217,30);
}
);
layerId = "E15CF202-A01D-48E4-B2F5-B7F7AA5FDF32";
shapes = (
{
pos = (-2,0);
ref = comma;
},
{
pos = (89,417);
ref = period;
}
);
width = 632;
},
{
background = {
guides = (
{
angle = 90;
pos = (264,189);
}
);
shapes = (
{
ref = colon;
}
);
};
guides = (
{
angle = 78;
pos = (154,40);
}
);
layerId = "60972605-F5BD-4F6B-BF23-CBE59F8EA585";
shapes = (
{
ref = comma;
},
{
pos = (66,310);
ref = period;
}
);
width = 632;
}
);
metricLeft = colon;
unicode = 59;
},
{
color = 6;
glyphname = ellipsis;
kernLeft = period;
kernRight = period_2;
lastChange = "2024-11-01 11:55:55 +0000";
layers = (
{
background = {
shapes = (
{
closed = 1;
nodes = (
(558,-12,o),
(580,9,o),
(580,34,cs),
(580,60,o),
(558,81,o),
(533,81,cs),
(507,81,o),
(486,60,o),
(486,34,cs),
(486,9,o),
(507,-12,o),
(533,-12,cs)
);
},
{
closed = 1;
nodes = (
(132,-12,o),
(153,9,o),
(153,34,cs),
(153,60,o),
(132,81,o),
(105,81,cs),
(80,81,o),
(59,60,o),
(59,34,cs),
(59,9,o),
(80,-12,o),
(105,-12,cs)
);
},
{
closed = 1;
nodes = (
(346,-12,o),
(367,9,o),
(367,34,cs),
(367,60,o),
(346,81,o),
(320,81,cs),
(293,81,o),
(273,60,o),
(273,34,cs),
(273,9,o),
(293,-12,o),
(320,-12,cs)
);
}
);
};
layerId = "E15CF202-A01D-48E4-B2F5-B7F7AA5FDF32";
shapes = (
{
pos = (-210,0);
ref = period;
},
{
ref = period;
},
{
pos = (210,0);
ref = period;
}
);
width = 632;
},
{
background = {
shapes = (
{
closed = 1;
nodes = (
(751,-12,o),
(796,35,o),
(796,92,cs),
(796,150,o),
(751,197,o),
(693,197,cs),
(636,197,o),
(589,150,o),
(589,92,cs),
(589,35,o),
(636,-12,o),
(693,-12,cs)
);
},
{
closed = 1;
nodes = (
(212,-12,o),
(258,35,o),
(258,92,cs),
(258,150,o),
(212,197,o),
(155,197,cs),
(98,197,o),
(51,150,o),
(51,92,cs),
(51,35,o),
(98,-12,o),
(155,-12,cs)
);
},
{
closed = 1;
nodes = (
(481,-12,o),
(527,35,o),
(527,92,cs),
(527,150,o),
(481,197,o),
(423,197,cs),
(366,197,o),
(321,150,o),
(321,92,cs),
(321,35,o),
(366,-12,o),
(423,-12,cs)
);
}
);
};
layerId = "60972605-F5BD-4F6B-BF23-CBE59F8EA585";
shapes = (
{
pos = (-142,-3);
ref = period;
scale = (0.78,0.78);
},
{
pos = (59,-3);
ref = period;
scale = (0.78,0.78);
},
{
pos = (261,-3);
ref = period;
scale = (0.78,0.78);
}
);
width = 632;
}
);
unicode = 8230;
},
{
glyphname = exclam;
kernLeft = exclam;
kernRight = exclam;
lastChange = "2024-11-01 12:01:51 +0000";
layers = (
{
layerId = "E15CF202-A01D-48E4-B2F5-B7F7AA5FDF32";
shapes = (
{
closed = 1;
nodes = (
(314,170,l),
(396,497,l),
(432,668,l),
(378,668,l),
(342,497,l),
(284,170,l)
);
},
{
closed = 1;
nodes = (
(297,-12,o),
(318,9,o),
(318,35,cs),
(318,61,o),
(297,82,o),
(271,82,cs),
(245,82,o),
(224,61,o),
(224,35,cs),
(224,9,o),
(245,-12,o),
(271,-12,cs)
);
}
);
width = 632;
},
{
layerId = "60972605-F5BD-4F6B-BF23-CBE59F8EA585";
shapes = (
{
closed = 1;
nodes = (
(373,252,l),
(457,495,l),
(494,668,l),
(316,668,l),
(279,495,l),
(261,252,l)
);
},
{
closed = 1;
nodes = (
(341,-12,o),
(387,35,o),
(387,92,cs),
(387,149,o),
(341,196,o),
(283,196,cs),
(225,196,o),
(179,149,o),
(179,92,cs),
(179,35,o),
(225,-12,o),
(283,-12,cs)
);
}
);
width = 632;
}
);
unicode = 33;
},
{
glyphname = exclamdown;
kernLeft = exclamdown;
kernRight = exclamdown;
lastChange = "2024-11-01 12:01:51 +0000";
layers = (
{
layerId = "E15CF202-A01D-48E4-B2F5-B7F7AA5FDF32";
shapes = (
{
closed = 1;
nodes = (
(255,-170,l),
(291,1,l),
(349,328,l),
(319,328,l),
(237,1,l),
(201,-170,l)
);
},
{
closed = 1;
nodes = (
(388,416,o),
(409,437,o),
(409,463,cs),
(409,489,o),
(388,510,o),
(362,510,cs),
(336,510,o),
(315,489,o),
(315,463,cs),
(315,437,o),
(336,416,o),
(362,416,cs)
);
}
);
width = 632;
},
{
layerId = "60972605-F5BD-4F6B-BF23-CBE59F8EA585";
metricRight = "=exclam";
shapes = (
{
closed = 1;
nodes = (
(317,-170,l),
(354,3,l),
(372,246,l),
(260,246,l),
(176,3,l),
(139,-170,l)
);
},
{
closed = 1;
nodes = (
(408,302,o),
(454,349,o),
(454,406,cs),
(454,463,o),
(408,510,o),
(350,510,cs),
(292,510,o),
(246,463,o),
(246,406,cs),
(246,349,o),
(292,302,o),
(350,302,cs)
);
}
);
width = 632;
}
);
metricLeft = exclam;
metricRight = exclam;
unicode = 161;
},
{
glyphname = question;
kernLeft = question;
kernRight = question;
lastChange = "2024-11-01 12:01:51 +0000";
layers = (
{
layerId = "E15CF202-A01D-48E4-B2F5-B7F7AA5FDF32";
shapes = (
{
closed = 1;
nodes = (
(307,162,l),
(317,206,ls),
(327,252,o),
(340,272,o),
(405,314,cs),
(495,372,o),
(574,430,o),
(574,532,cs),
(574,626,o),
(488,680,o),
(400,680,cs),
(298,680,o),
(212,623,o),
(187,519,c),
(241,510,l),
(253,562,o),
(301,632,o),
(390,632,cs),
(468,632,o),
(520,586,o),
(520,527,cs),
(520,456,o),
(457,403,o),
(393,363,cs),
(302,305,o),
(279,277,o),
(262,202,cs),
(253,162,l)
);
},
{
closed = 1;
nodes = (
(279,-12,o),
(300,9,o),
(300,35,cs),
(300,61,o),
(279,82,o),
(253,82,cs),
(227,82,o),
(206,61,o),
(206,35,cs),
(206,9,o),
(227,-12,o),
(253,-12,cs)
);
}
);
width = 632;
},
{
layerId = "60972605-F5BD-4F6B-BF23-CBE59F8EA585";
shapes = (
{
closed = 1;
nodes = (
(354,241,l),
(356,253,ls),
(361,283,o),
(382,304,o),
(467,330,cs),
(573,362,o),
(635,412,o),
(635,506,cs),
(635,627,o),
(490,680,o),
(371,680,cs),
(239,680,o),
(138,631,o),
(90,540,c),
(237,481,l),
(262,530,o),
(314,549,o),
(363,549,cs),
(415,549,o),
(462,528,o),
(462,495,cs),
(462,461,o),
(420,448,o),
(355,430,cs),
(260,403,o),
(214,353,o),
(192,258,cs),
(188,241,l)
);
},
{
closed = 1;
nodes = (
(299,-12,o),
(346,35,o),
(346,92,cs),
(346,150,o),
(299,195,o),
(243,195,cs),
(186,195,o),
(139,150,o),
(139,92,cs),
(139,35,o),
(186,-12,o),
(243,-12,cs)
);
}
);
width = 632;
}
);
unicode = 63;
},
{
glyphname = questiondown;
kernLeft = questiondown;
kernRight = questiondown;
lastChange = "2024-11-01 12:01:51 +0000";
layers = (
{
layerId = "E15CF202-A01D-48E4-B2F5-B7F7AA5FDF32";
metricLeft = "=115";
metricRight = "=|question";
shapes = (
{
closed = 1;
nodes = (
(335,-182,o),
(421,-125,o),
(446,-21,c),
(392,-12,l),
(380,-64,o),
(332,-134,o),
(243,-134,cs),
(165,-134,o),
(113,-88,o),
(113,-29,cs),
(113,42,o),
(176,95,o),
(240,135,cs),
(331,193,o),
(354,221,o),
(371,296,cs),
(380,336,l),
(326,336,l),
(316,292,ls),
(306,246,o),
(293,226,o),
(228,184,cs),
(138,126,o),
(59,68,o),
(59,-34,cs),
(59,-128,o),
(145,-182,o),
(233,-182,cs)
);
},
{
closed = 1;
nodes = (
(406,416,o),
(427,437,o),
(427,463,cs),
(427,489,o),
(406,510,o),
(380,510,cs),
(354,510,o),
(333,489,o),
(333,463,cs),
(333,437,o),
(354,416,o),
(380,416,cs)
);
}
);
width = 632;
},
{
layerId = "60972605-F5BD-4F6B-BF23-CBE59F8EA585";
metricRight = "=27";
shapes = (
{
closed = 1;
nodes = (
(394,-182,o),
(495,-133,o),
(543,-42,c),
(396,17,l),
(371,-32,o),
(319,-51,o),
(270,-51,cs),
(218,-51,o),
(171,-30,o),
(171,3,cs),
(171,37,o),
(213,50,o),
(278,68,cs),
(373,95,o),
(419,145,o),
(441,240,cs),
(445,257,l),
(279,257,l),
(277,245,ls),
(272,215,o),
(251,194,o),
(166,168,cs),
(60,136,o),
(-2,86,o),
(-2,-8,cs),
(-2,-129,o),
(143,-182,o),
(262,-182,cs)
);
},
{
closed = 1;
nodes = (
(447,303,o),
(494,348,o),
(494,406,cs),
(494,463,o),
(447,510,o),
(390,510,cs),
(334,510,o),
(287,463,o),
(287,406,cs),
(287,348,o),
(334,303,o),
(390,303,cs)
);
}
);
width = 632;
}
);
metricLeft = "=|question";
metricRight = "=|question";
unicode = 191;
},
{
color = 6;
glyphname = periodcentered;
kernLeft = anoteleia;
kernRight = anoteleia;
lastChange = "2024-11-01 11:55:55 +0000";
layers = (
{
background = {
shapes = (
{
closed = 1;
nodes = (
(158,200,o),
(179,222,o),
(179,248,cs),
(179,273,o),
(158,294,o),
(131,294,cs),
(106,294,o),
(85,273,o),
(85,248,cs),
(85,222,o),
(106,200,o),
(131,200,cs)
);
}
);
};
layerId = "E15CF202-A01D-48E4-B2F5-B7F7AA5FDF32";
shapes = (
{
pos = (45,213);
ref = period;
}
);
width = 632;
},
{
background = {
shapes = (
{
closed = 1;
nodes = (
(235,145,o),
(281,191,o),
(281,248,cs),
(281,306,o),
(235,351,o),
(178,351,cs),
(121,351,o),
(74,306,o),
(74,248,cs),
(74,191,o),
(121,145,o),
(178,145,cs)
);
}
);
};
layerId = "60972605-F5BD-4F6B-BF23-CBE59F8EA585";
shapes = (
{
pos = (34,159);
ref = period;
}
);
width = 632;
}
);
metricRight = "=|";
unicode = 183;
},
{
glyphname = bullet;
kernLeft = bullet;
kernRight = bullet;
lastChange = "2024-11-01 12:01:51 +0000";
layers = (
{
layerId = "E15CF202-A01D-48E4-B2F5-B7F7AA5FDF32";
shapes = (
{
closed = 1;
nodes = (
(409,88,o),
(483,163,o),
(483,254,cs),
(483,346,o),
(409,420,o),
(317,420,cs),
(225,420,o),
(151,346,o),
(151,254,cs),
(151,163,o),
(225,88,o),
(317,88,cs)
);
}
);
width = 632;
},
{
layerId = "60972605-F5BD-4F6B-BF23-CBE59F8EA585";
shapes = (
{
closed = 1;
nodes = (
(409,88,o),
(483,163,o),
(483,254,cs),
(483,346,o),
(409,420,o),
(317,420,cs),
(225,420,o),
(151,346,o),
(151,254,cs),
(151,163,o),
(225,88,o),
(317,88,cs)
);
}
);
width = 632;
}
);
unicode = 8226;
},
{
glyphname = asterisk;
kernLeft = asterisk;
kernRight = asterisk;
lastChange = "2024-11-01 12:01:51 +0000";
layers = (
{
guides = (
{
pos = (438,334);
}
);
layerId = "E15CF202-A01D-48E4-B2F5-B7F7AA5FDF32";
shapes = (
{
closed = 1;
nodes = (
(362,451,l),
(420,334,l),
(457,357,l),
(400,475,l),
(546,503,l),
(543,547,l),
(395,517,l),
(426,666,l),
(383,666,l),
(353,520,l),
(224,580,l),
(201,539,l),
(332,483,l),
(211,362,l),
(244,334,l)
);
}
);
width = 632;
},
{
guides = (
{
pos = (438,316);
}
);
layerId = "60972605-F5BD-4F6B-BF23-CBE59F8EA585";
shapes = (
{
closed = 1;
nodes = (
(354,410,l),
(400,316,l),
(481,359,l),
(435,456,l),
(554,482,l),
(542,571,l),
(426,546,l),
(452,670,l),
(360,670,l),
(336,555,l),
(232,604,l),
(186,522,l),
(290,472,l),
(195,378,l),
(257,316,l)
);
}
);
width = 632;
}
);
unicode = 42;
},
{
glyphname = numbersign;
kernLeft = numbersign;
kernRight = numbersign;
lastChange = "2024-11-01 12:01:51 +0000";
layers = (
{
layerId = "E15CF202-A01D-48E4-B2F5-B7F7AA5FDF32";
shapes = (
{
closed = 1;
nodes = (
(129,0,l),
(198,198,l),
(377,198,l),
(308,0,l),
(357,0,l),
(426,198,l),
(545,198,l),
(561,241,l),
(441,241,l),
(506,427,l),
(625,427,l),
(641,470,l),
(520,470,l),
(589,668,l),
(540,668,l),
(471,470,l),
(292,470,l),
(361,668,l),
(312,668,l),
(243,470,l),
(123,470,l),
(107,427,l),
(228,427,l),
(163,241,l),
(43,241,l),
(27,198,l),
(149,198,l),
(80,0,l)
);
},
{
closed = 1;
nodes = (
(277,427,l),
(457,427,l),
(392,241,l),
(212,241,l)
);
}
);
width = 632;
},
{
layerId = "60972605-F5BD-4F6B-BF23-CBE59F8EA585";
shapes = (
{
closed = 1;
nodes = (
(178,0,l),
(225,144,l),
(322,144,l),
(275,0,l),
(427,0,l),
(474,144,l),
(547,144,l),
(593,285,l),
(520,285,l),
(551,383,l),
(623,383,l),
(669,524,l),
(595,524,l),
(642,668,l),
(490,668,l),
(443,524,l),
(346,524,l),
(393,668,l),
(241,668,l),
(194,524,l),
(121,524,l),
(75,383,l),
(148,383,l),
(117,285,l),
(45,285,l),
(-1,144,l),
(73,144,l),
(26,0,l)
);
},
{
closed = 1;
nodes = (
(300,383,l),
(399,383,l),
(368,285,l),
(269,285,l)
);
}
);
width = 632;
}
);
unicode = 35;
},
{
glyphname = slash;
kernLeft = slash;
kernRight = slash;
lastChange = "2024-11-01 12:01:51 +0000";
layers = (
{
layerId = "E15CF202-A01D-48E4-B2F5-B7F7AA5FDF32";
shapes = (
{
closed = 1;
nodes = (
(44,-90,l),
(670,708,l),
(614,708,l),
(-12,-90,l)
);
}
);
width = 632;
},
{
layerId = "60972605-F5BD-4F6B-BF23-CBE59F8EA585";
shapes = (
{
closed = 1;
nodes = (
(145,-90,l),
(690,708,l),
(513,708,l),
(-32,-90,l)
);
}
);
width = 632;
}
);
unicode = 47;
},
{
glyphname = backslash;
kernLeft = backslash;
kernRight = backslash;
lastChange = "2024-11-01 12:01:51 +0000";
layers = (
{
layerId = "E15CF202-A01D-48E4-B2F5-B7F7AA5FDF32";
shapes = (
{
closed = 1;
nodes = (
(208,708,l),
(158,708,l),
(450,-90,l),
(500,-90,l)
);
}
);
width = 632;
},
{
layerId = "60972605-F5BD-4F6B-BF23-CBE59F8EA585";
shapes = (
{
closed = 1;
nodes = (
(300,708,l),
(138,708,l),
(358,-90,l),
(520,-90,l)
);
}
);
width = 632;
}
);
metricLeft = "=|slash";
metricRight = "=|slash";
unicode = 92;
},
{
glyphname = hyphen;
kernLeft = hyphen;
kernRight = hyphen_2;
lastChange = "2024-11-01 12:01:51 +0000";
layers = (
{
layerId = "E15CF202-A01D-48E4-B2F5-B7F7AA5FDF32";
shapes = (
{
closed = 1;
nodes = (
(447,221,l),
(459,276,l),
(185,276,l),
(173,221,l)
);
}
);
width = 632;
},
{
layerId = "60972605-F5BD-4F6B-BF23-CBE59F8EA585";
shapes = (
{
closed = 1;
nodes = (
(467,179,l),
(497,318,l),
(165,318,l),
(135,179,l)
);
}
);
width = 632;
}
);
unicode = 45;
},
{
glyphname = endash;
kernLeft = hyphen;
kernRight = hyphen_2;
lastChange = "2024-11-01 12:01:51 +0000";
layers = (
{
layerId = "E15CF202-A01D-48E4-B2F5-B7F7AA5FDF32";
shapes = (
{
closed = 1;
nodes = (
(521,220,l),
(533,273,l),
(111,273,l),
(99,220,l)
);
}
);
width = 632;
},
{
layerId = "60972605-F5BD-4F6B-BF23-CBE59F8EA585";
shapes = (
{
closed = 1;
nodes = (
(523,181,l),
(553,318,l),
(111,318,l),
(81,181,l)
);
}
);
width = 632;
}
);
unicode = 8211;
},
{
glyphname = emdash;
kernLeft = hyphen;
kernRight = hyphen_2;
lastChange = "2024-11-01 12:01:51 +0000";
layers = (
{
layerId = "E15CF202-A01D-48E4-B2F5-B7F7AA5FDF32";
shapes = (
{
closed = 1;
nodes = (
(591,220,l),
(603,273,l),
(41,273,l),
(29,220,l)
);
}
);
width = 632;
},
{
layerId = "60972605-F5BD-4F6B-BF23-CBE59F8EA585";
shapes = (
{
closed = 1;
nodes = (
(593,181,l),
(623,318,l),
(41,318,l),
(11,181,l)
);
}
);
width = 632;
}
);
unicode = 8212;
},
{
glyphname = underscore;
kernLeft = underscore;
kernRight = underscore;
lastChange = "2024-11-01 12:01:51 +0000";
layers = (
{
layerId = "E15CF202-A01D-48E4-B2F5-B7F7AA5FDF32";
shapes = (
{
closed = 1;
nodes = (
(569,-53,l),
(581,0,l),
(-54,0,l),
(-66,-53,l)
);
}
);
width = 632;
},
{
layerId = "60972605-F5BD-4F6B-BF23-CBE59F8EA585";
shapes = (
{
closed = 1;
nodes = (
(551,-137,l),
(581,0,l),
(-54,0,l),
(-84,-137,l)
);
}
);
width = 632;
}
);
unicode = 95;
},
{
glyphname = parenleft;
kernLeft = parenleft;
kernRight = parenleft;
lastChange = "2024-11-01 12:01:51 +0000";
layers = (
{
layerId = "E15CF202-A01D-48E4-B2F5-B7F7AA5FDF32";
shapes = (
{
closed = 1;
nodes = (
(394,-162,l),
(301,-50,o),
(250,76,o),
(250,199,cs),
(250,413,o),
(406,593,o),
(589,708,c),
(511,708,l),
(328,590,o),
(195,404,o),
(195,194,cs),
(195,69,o),
(241,-56,o),
(328,-162,c)
);
}
);
width = 632;
},
{
layerId = "60972605-F5BD-4F6B-BF23-CBE59F8EA585";
shapes = (
{
closed = 1;
nodes = (
(405,-162,l),
(326,-48,o),
(283,72,o),
(283,187,cs),
(283,399,o),
(442,584,o),
(623,708,c),
(420,708,l),
(229,564,o),
(124,383,o),
(124,183,cs),
(124,65,o),
(161,-53,o),
(232,-162,c)
);
}
);
width = 632;
}
);
unicode = 40;
},
{
glyphname = parenright;
kernLeft = parenright;
kernRight = parenright;
lastChange = "2024-11-01 12:01:51 +0000";
layers = (
{
layerId = "E15CF202-A01D-48E4-B2F5-B7F7AA5FDF32";
shapes = (
{
closed = 1;
nodes = (
(132,-162,l),
(315,-44,o),
(448,142,o),
(448,352,cs),
(448,477,o),
(402,602,o),
(315,708,c),
(249,708,l),
(342,596,o),
(393,470,o),
(393,347,cs),
(393,133,o),
(237,-47,o),
(54,-162,c)
);
}
);
width = 632;
},
{
layerId = "60972605-F5BD-4F6B-BF23-CBE59F8EA585";
shapes = (
{
closed = 1;
nodes = (
(223,-162,l),
(414,-18,o),
(519,163,o),
(519,363,cs),
(519,481,o),
(482,599,o),
(411,708,c),
(238,708,l),
(317,594,o),
(360,474,o),
(360,359,cs),
(360,147,o),
(201,-38,o),
(20,-162,c)
);
}
);
width = 632;
}
);
metricLeft = "=|parenleft";
metricRight = "=|parenleft";
unicode = 41;
},
{
glyphname = braceleft;
kernLeft = braceleft;
kernRight = braceleft;
lastChange = "2024-11-01 12:01:51 +0000";
layers = (
{
layerId = "E15CF202-A01D-48E4-B2F5-B7F7AA5FDF32";
shapes = (
{
closed = 1;
nodes = (
(382,-162,l),
(390,-120,l),
(272,-120,ls),
(235,-120,o),
(223,-109,o),
(230,-76,cs),
(275,133,ls),
(292,213,o),
(277,248,o),
(235,266,c),
(236,272,l),
(283,280,o),
(310,309,o),
(328,390,cs),
(380,630,ls),
(386,659,o),
(398,666,o),
(420,666,cs),
(558,666,l),
(566,708,l),
(421,708,ls),
(354,708,o),
(340,690,o),
(326,623,cs),
(275,386,ls),
(259,313,o),
(236,293,o),
(160,292,c),
(152,254,l),
(226,249,o),
(240,222,o),
(226,155,cs),
(180,-59,ls),
(166,-125,o),
(172,-162,o),
(279,-162,cs)
);
}
);
width = 632;
},
{
layerId = "60972605-F5BD-4F6B-BF23-CBE59F8EA585";
shapes = (
{
closed = 1;
nodes = (
(415,-162,l),
(442,-33,l),
(350,-33,ls),
(299,-33,o),
(285,-20,o),
(293,16,cs),
(317,126,ls),
(334,202,o),
(315,244,o),
(247,270,c),
(249,276,l),
(323,288,o),
(357,323,o),
(374,400,cs),
(405,539,ls),
(413,574,o),
(425,579,o),
(466,579,cs),
(572,579,l),
(599,708,l),
(447,708,ls),
(333,708,o),
(278,672,o),
(253,558,cs),
(226,434,ls),
(211,367,o),
(192,341,o),
(116,339,c),
(88,207,l),
(153,204,o),
(172,179,o),
(158,112,cs),
(139,24,ls),
(114,-91,o),
(156,-162,o),
(305,-162,cs)
);
}
);
width = 632;
}
);
unicode = 123;
},
{
glyphname = braceright;
kernLeft = braceright;
kernRight = braceright;
lastChange = "2024-11-01 12:01:51 +0000";
layers = (
{
layerId = "E15CF202-A01D-48E4-B2F5-B7F7AA5FDF32";
metricRight = "=|braceleft-1";
shapes = (
{
closed = 1;
nodes = (
(222,-162,ls),
(289,-162,o),
(303,-144,o),
(317,-77,cs),
(368,160,ls),
(384,233,o),
(407,253,o),
(483,254,c),
(491,292,l),
(417,297,o),
(403,324,o),
(417,391,cs),
(463,605,ls),
(477,671,o),
(471,708,o),
(364,708,cs),
(261,708,l),
(253,666,l),
(371,666,ls),
(408,666,o),
(420,655,o),
(413,622,cs),
(368,413,ls),
(351,333,o),
(366,298,o),
(408,280,c),
(407,274,l),
(360,266,o),
(333,237,o),
(315,156,cs),
(263,-84,ls),
(257,-113,o),
(245,-120,o),
(223,-120,cs),
(85,-120,l),
(77,-162,l)
);
}
);
width = 632;
},
{
layerId = "60972605-F5BD-4F6B-BF23-CBE59F8EA585";
metricRight = "=|braceleft-1";
shapes = (
{
closed = 1;
nodes = (
(196,-162,ls),
(310,-162,o),
(365,-126,o),
(390,-12,cs),
(417,112,ls),
(432,179,o),
(451,205,o),
(527,207,c),
(555,339,l),
(490,342,o),
(471,367,o),
(485,434,cs),
(504,522,ls),
(529,637,o),
(487,708,o),
(338,708,cs),
(228,708,l),
(201,579,l),
(293,579,ls),
(344,579,o),
(358,566,o),
(350,530,cs),
(326,420,ls),
(309,344,o),
(328,302,o),
(396,276,c),
(394,270,l),
(320,258,o),
(286,223,o),
(269,146,cs),
(238,7,ls),
(230,-28,o),
(218,-33,o),
(177,-33,cs),
(71,-33,l),
(44,-162,l)
);
}
);
width = 632;
}
);
metricLeft = "=|braceleft";
metricRight = "=|braceleft";
unicode = 125;
},
{
glyphname = bracketleft;
kernLeft = bracketleft;
kernRight = bracketleft;
lastChange = "2024-11-01 12:01:51 +0000";
layers = (
{
layerId = "E15CF202-A01D-48E4-B2F5-B7F7AA5FDF32";
shapes = (
{
closed = 1;
nodes = (
(383,-162,l),
(391,-122,l),
(188,-122,l),
(356,668,l),
(559,668,l),
(567,708,l),
(310,708,l),
(126,-162,l)
);
}
);
width = 632;
},
{
layerId = "60972605-F5BD-4F6B-BF23-CBE59F8EA585";
shapes = (
{
closed = 1;
nodes = (
(403,-162,l),
(429,-38,l),
(242,-38,l),
(373,584,l),
(561,584,l),
(587,708,l),
(262,708,l),
(78,-162,l)
);
}
);
width = 632;
}
);
unicode = 91;
},
{
glyphname = bracketright;
kernLeft = bracketright;
kernRight = bracketright;
lastChange = "2024-11-01 12:01:51 +0000";
layers = (
{
layerId = "E15CF202-A01D-48E4-B2F5-B7F7AA5FDF32";
shapes = (
{
closed = 1;
nodes = (
(333,-162,l),
(517,708,l),
(260,708,l),
(252,668,l),
(455,668,l),
(287,-122,l),
(84,-122,l),
(76,-162,l)
);
}
);
width = 632;
},
{
layerId = "60972605-F5BD-4F6B-BF23-CBE59F8EA585";
shapes = (
{
closed = 1;
nodes = (
(381,-162,l),
(565,708,l),
(240,708,l),
(214,584,l),
(401,584,l),
(270,-38,l),
(82,-38,l),
(56,-162,l)
);
}
);
width = 632;
}
);
metricLeft = "=|bracketleft";
metricRight = "=|bracketleft";
unicode = 93;
},
{
color = 6;
glyphname = quotesinglbase;
kernLeft = period;
kernRight = period_2;
lastChange = "2024-11-01 11:55:55 +0000";
layers = (
{
background = {
shapes = (
{
closed = 1;
nodes = (
(-1591,-138,l),
(-1534,11,ls),
(-1528,26,o),
(-1527,34,o),
(-1527,40,cs),
(-1527,69,o),
(-1550,92,o),
(-1579,92,cs),
(-1608,92,o),
(-1631,69,o),
(-1631,40,cs),
(-1631,12,o),
(-1610,-10,o),
(-1583,-12,c),
(-1632,-138,l)
);
},
{
closed = 1;
nodes = (
(-723,-138,l),
(-635,6,ls),
(-628,18,o),
(-624,26,o),
(-623,32,cs),
(-616,56,o),
(-634,92,o),
(-673,92,cs),
(-702,92,o),
(-725,69,o),
(-725,40,cs),
(-725,15,o),
(-710,-3,o),
(-688,-12,c),
(-766,-138,l)
);
},
{
closed = 1;
nodes = (
(225,-138,l),
(313,6,ls),
(320,18,o),
(324,26,o),
(325,32,cs),
(332,56,o),
(314,92,o),
(275,92,cs),
(246,92,o),
(223,69,o),
(223,40,cs),
(223,15,o),
(238,-3,o),
(260,-12,c),
(182,-138,l)
);
}
);
};
layerId = "E15CF202-A01D-48E4-B2F5-B7F7AA5FDF32";
shapes = (
{
pos = (-2,0);
ref = comma;
}
);
width = 632;
},
{
background = {
shapes = (
{
closed = 1;
nodes = (
(-613,-161,l),
(-524,61,ls),
(-519,74,o),
(-517,89,o),
(-517,103,cs),
(-517,167,o),
(-568,218,o),
(-632,218,cs),
(-695,218,o),
(-747,167,o),
(-747,103,cs),
(-747,51,o),
(-709,3,o),
(-660,-8,c),
(-719,-161,l)
);
},
{
closed = 1;
nodes = (
(251,-162,l),
(376,34,ls),
(391,58,o),
(397,72,o),
(400,86,cs),
(415,156,o),
(359,218,o),
(289,218,cs),
(225,218,o),
(173,167,o),
(173,103,cs),
(173,64,o),
(196,18,o),
(239,0,c),
(140,-162,l)
);
}
);
};
layerId = "60972605-F5BD-4F6B-BF23-CBE59F8EA585";
shapes = (
{
ref = comma;
}
);
width = 632;
}
);
unicode = 8218;
},
{
glyphname = quotedblbase;
kernLeft = period;
kernRight = period_2;
lastChange = "2024-11-01 12:01:51 +0000";
layers = (
{
layerId = "E15CF202-A01D-48E4-B2F5-B7F7AA5FDF32";
shapes = (
{
closed = 1;
nodes = (
(137,-138,l),
(225,6,ls),
(233,19,o),
(238,30,o),
(238,44,cs),
(238,67,o),
(221,92,o),
(187,92,cs),
(158,92,o),
(135,69,o),
(135,40,cs),
(135,15,o),
(150,-3,o),
(172,-12,c),
(94,-138,l)
);
},
{
closed = 1;
nodes = (
(310,-138,l),
(398,6,ls),
(406,19,o),
(411,30,o),
(411,44,cs),
(411,67,o),
(394,92,o),
(360,92,cs),
(331,92,o),
(308,69,o),
(308,40,cs),
(308,15,o),
(323,-3,o),
(345,-12,c),
(267,-138,l)
);
}
);
width = 632;
},
{
layerId = "60972605-F5BD-4F6B-BF23-CBE59F8EA585";
shapes = (
{
closed = 1;
nodes = (
(112,-164,l),
(233,20,ls),
(250,45,o),
(256,72,o),
(256,89,cs),
(256,148,o),
(207,197,o),
(146,197,cs),
(86,197,o),
(36,148,o),
(36,87,cs),
(36,43,o),
(65,4,o),
(103,-12,c),
(0,-164,l)
);
},
{
closed = 1;
nodes = (
(384,-164,l),
(505,20,ls),
(522,45,o),
(528,72,o),
(528,89,cs),
(528,148,o),
(479,197,o),
(418,197,cs),
(358,197,o),
(308,148,o),
(308,87,cs),
(308,43,o),
(337,4,o),
(375,-12,c),
(272,-164,l)
);
}
);
width = 632;
}
);
unicode = 8222;
},
{
glyphname = quotedblleft;
kernLeft = quoteleft;
kernRight = quoteleft_2;
lastChange = "2024-11-01 12:01:51 +0000";
layers = (
{
layerId = "E15CF202-A01D-48E4-B2F5-B7F7AA5FDF32";
shapes = (
{
closed = 1;
nodes = (
(481,438,o),
(504,461,o),
(504,490,cs),
(504,515,o),
(489,533,o),
(467,542,c),
(545,668,l),
(502,668,l),
(414,524,ls),
(406,511,o),
(401,500,o),
(401,486,cs),
(401,463,o),
(418,438,o),
(452,438,cs)
);
},
{
closed = 1;
nodes = (
(308,438,o),
(331,461,o),
(331,490,cs),
(331,515,o),
(316,533,o),
(294,542,c),
(372,668,l),
(329,668,l),
(241,524,ls),
(233,511,o),
(228,500,o),
(228,486,cs),
(228,463,o),
(245,438,o),
(279,438,cs)
);
}
);
width = 632;
},
{
layerId = "60972605-F5BD-4F6B-BF23-CBE59F8EA585";
shapes = (
{
closed = 1;
nodes = (
(547,307,o),
(597,356,o),
(597,417,cs),
(597,461,o),
(568,500,o),
(530,516,c),
(633,668,l),
(521,668,l),
(400,484,ls),
(383,459,o),
(377,432,o),
(377,415,cs),
(377,356,o),
(426,307,o),
(487,307,cs)
);
},
{
closed = 1;
nodes = (
(275,307,o),
(325,356,o),
(325,417,cs),
(325,461,o),
(296,500,o),
(258,516,c),
(361,668,l),
(249,668,l),
(128,484,ls),
(111,459,o),
(105,432,o),
(105,415,cs),
(105,356,o),
(154,307,o),
(215,307,cs)
);
}
);
width = 632;
}
);
unicode = 8220;
},
{
glyphname = quotedblright;
kernLeft = quoteright;
kernRight = quoteright_2;
lastChange = "2024-11-01 12:01:51 +0000";
layers = (
{
annotations = (
{
pos = (399.578,206.688);
type = Text;
}
);
layerId = "E15CF202-A01D-48E4-B2F5-B7F7AA5FDF32";
shapes = (
{
closed = 1;
nodes = (
(435,450,l),
(523,594,ls),
(531,607,o),
(536,618,o),
(536,632,cs),
(536,655,o),
(519,680,o),
(485,680,cs),
(456,680,o),
(433,657,o),
(433,628,cs),
(433,603,o),
(448,585,o),
(470,576,c),
(392,450,l)
);
},
{
closed = 1;
nodes = (
(262,450,l),
(350,594,ls),
(358,607,o),
(363,618,o),
(363,632,cs),
(363,655,o),
(346,680,o),
(312,680,cs),
(283,680,o),
(260,657,o),
(260,628,cs),
(260,603,o),
(275,585,o),
(297,576,c),
(219,450,l)
);
}
);
width = 632;
},
{
layerId = "60972605-F5BD-4F6B-BF23-CBE59F8EA585";
shapes = (
{
closed = 1;
nodes = (
(487,319,l),
(608,503,ls),
(625,528,o),
(631,555,o),
(631,572,cs),
(631,631,o),
(582,680,o),
(521,680,cs),
(461,680,o),
(411,631,o),
(411,570,cs),
(411,526,o),
(440,487,o),
(478,471,c),
(375,319,l)
);
},
{
closed = 1;
nodes = (
(215,319,l),
(336,503,ls),
(353,528,o),
(359,555,o),
(359,572,cs),
(359,631,o),
(310,680,o),
(249,680,cs),
(189,680,o),
(139,631,o),
(139,570,cs),
(139,526,o),
(168,487,o),
(206,471,c),
(103,319,l)
);
}
);
width = 632;
}
);
unicode = 8221;
},
{
glyphname = quoteleft;
kernLeft = quoteleft;
kernRight = quoteleft_2;
lastChange = "2024-11-01 12:01:51 +0000";
layers = (
{
layerId = "E15CF202-A01D-48E4-B2F5-B7F7AA5FDF32";
shapes = (
{
closed = 1;
nodes = (
(398,450,o),
(421,473,o),
(421,502,cs),
(421,527,o),
(406,545,o),
(384,554,c),
(462,680,l),
(419,680,l),
(331,536,ls),
(323,523,o),
(318,514,o),
(318,499,cs),
(318,477,o),
(336,450,o),
(369,450,cs)
);
}
);
width = 632;
},
{
layerId = "60972605-F5BD-4F6B-BF23-CBE59F8EA585";
shapes = (
{
closed = 1;
nodes = (
(410,288,o),
(462,339,o),
(462,403,cs),
(462,442,o),
(439,488,o),
(394,506,c),
(498,668,l),
(384,668,l),
(259,472,ls),
(243,447,o),
(233,425,o),
(233,396,cs),
(233,336,o),
(285,288,o),
(346,288,cs)
);
}
);
width = 632;
}
);
metricLeft = "=|quoteright";
metricRight = "=|quoteright";
unicode = 8216;
},
{
glyphname = quoteright;
kernLeft = quoteright;
kernRight = quoteright_2;
lastChange = "2024-11-01 12:01:51 +0000";
layers = (
{
layerId = "E15CF202-A01D-48E4-B2F5-B7F7AA5FDF32";
shapes = (
{
closed = 1;
nodes = (
(348,450,l),
(436,594,ls),
(444,607,o),
(449,616,o),
(449,631,cs),
(449,653,o),
(431,680,o),
(398,680,cs),
(369,680,o),
(346,657,o),
(346,628,cs),
(346,603,o),
(361,585,o),
(383,576,c),
(305,450,l)
);
}
);
width = 632;
},
{
layerId = "60972605-F5BD-4F6B-BF23-CBE59F8EA585";
shapes = (
{
closed = 1;
nodes = (
(348,300,l),
(473,496,ls),
(489,521,o),
(499,543,o),
(499,572,cs),
(499,632,o),
(447,680,o),
(386,680,cs),
(322,680,o),
(270,629,o),
(270,565,cs),
(270,526,o),
(293,480,o),
(338,462,c),
(234,300,l)
);
}
);
width = 632;
}
);
unicode = 8217;
},
{
glyphname = guillemetleft;
kernLeft = guilsinglleft;
kernRight = guilsinglleft_2;
lastChange = "2024-11-01 12:01:51 +0000";
layers = (
{
layerId = "E15CF202-A01D-48E4-B2F5-B7F7AA5FDF32";
shapes = (
{
closed = 1;
nodes = (
(471,40,l),
(365,240,l),
(561,460,l),
(498,460,l),
(308,245,l),
(416,40,l)
);
},
{
closed = 1;
nodes = (
(280,40,l),
(174,245,l),
(370,460,l),
(307,460,l),
(117,250,l),
(225,40,l)
);
}
);
width = 632;
},
{
layerId = "60972605-F5BD-4F6B-BF23-CBE59F8EA585";
shapes = (
{
closed = 1;
nodes = (
(563,40,l),
(456,234,l),
(652,460,l),
(460,460,l),
(272,242,l),
(385,40,l)
);
},
{
closed = 1;
nodes = (
(316,40,l),
(209,242,l),
(405,460,l),
(213,460,l),
(25,250,l),
(138,40,l)
);
}
);
width = 632;
}
);
unicode = 171;
},
{
glyphname = guillemetright;
kernLeft = guilsinglright;
kernRight = guilsinglright_2;
lastChange = "2024-11-01 12:01:51 +0000";
layers = (
{
layerId = "E15CF202-A01D-48E4-B2F5-B7F7AA5FDF32";
shapes = (
{
closed = 1;
nodes = (
(326,40,l),
(516,250,l),
(408,460,l),
(353,460,l),
(459,255,l),
(263,40,l)
);
},
{
closed = 1;
nodes = (
(135,40,l),
(325,255,l),
(217,460,l),
(162,460,l),
(268,260,l),
(72,40,l)
);
}
);
width = 632;
},
{
layerId = "60972605-F5BD-4F6B-BF23-CBE59F8EA585";
shapes = (
{
closed = 1;
nodes = (
(419,40,l),
(607,250,l),
(494,460,l),
(316,460,l),
(423,258,l),
(227,40,l)
);
},
{
closed = 1;
nodes = (
(172,40,l),
(360,258,l),
(247,460,l),
(69,460,l),
(176,266,l),
(-20,40,l)
);
}
);
width = 632;
}
);
unicode = 187;
},
{
glyphname = guilsinglleft;
kernLeft = guilsinglleft;
kernRight = guilsinglleft_2;
lastChange = "2024-11-01 12:01:51 +0000";
layers = (
{
layerId = "E15CF202-A01D-48E4-B2F5-B7F7AA5FDF32";
shapes = (
{
closed = 1;
nodes = (
(375,40,l),
(269,245,l),
(465,460,l),
(402,460,l),
(212,250,l),
(320,40,l)
);
}
);
width = 632;
},
{
layerId = "60972605-F5BD-4F6B-BF23-CBE59F8EA585";
shapes = (
{
closed = 1;
nodes = (
(440,40,l),
(333,242,l),
(529,460,l),
(337,460,l),
(149,250,l),
(262,40,l)
);
}
);
width = 632;
}
);
unicode = 8249;
},
{
glyphname = guilsinglright;
kernLeft = guilsinglright;
kernRight = guilsinglright_2;
lastChange = "2024-11-01 12:01:51 +0000";
layers = (
{
layerId = "E15CF202-A01D-48E4-B2F5-B7F7AA5FDF32";
shapes = (
{
closed = 1;
nodes = (
(231,40,l),
(421,250,l),
(313,460,l),
(258,460,l),
(364,255,l),
(168,40,l)
);
}
);
width = 632;
},
{
layerId = "60972605-F5BD-4F6B-BF23-CBE59F8EA585";
shapes = (
{
closed = 1;
nodes = (
(296,40,l),
(484,250,l),
(371,460,l),
(193,460,l),
(300,258,l),
(104,40,l)
);
}
);
width = 632;
}
);
unicode = 8250;
},
{
glyphname = quotedbl;
kernLeft = quotesingle;
kernRight = quotesingle_2;
lastChange = "2024-11-01 12:01:51 +0000";
layers = (
{
layerId = "E15CF202-A01D-48E4-B2F5-B7F7AA5FDF32";
shapes = (
{
closed = 1;
nodes = (
(284,432,l),
(351,668,l),
(294,668,l),
(261,432,l)
);
},
{
closed = 1;
nodes = (
(449,432,l),
(516,668,l),
(459,668,l),
(426,432,l)
);
}
);
width = 632;
},
{
layerId = "60972605-F5BD-4F6B-BF23-CBE59F8EA585";
shapes = (
{
closed = 1;
nodes = (
(304,420,l),
(371,668,l),
(209,668,l),
(172,420,l)
);
},
{
closed = 1;
nodes = (
(534,420,l),
(601,668,l),
(439,668,l),
(402,420,l)
);
}
);
width = 632;
}
);
unicode = 34;
},
{
glyphname = quotesingle;
kernLeft = quotesingle;
kernRight = quotesingle_2;
lastChange = "2024-11-01 12:01:51 +0000";
layers = (
{
layerId = "E15CF202-A01D-48E4-B2F5-B7F7AA5FDF32";
shapes = (
{
closed = 1;
nodes = (
(367,432,l),
(434,668,l),
(377,668,l),
(344,432,l)
);
}
);
width = 632;
},
{
layerId = "60972605-F5BD-4F6B-BF23-CBE59F8EA585";
shapes = (
{
closed = 1;
nodes = (
(419,420,l),
(486,668,l),
(324,668,l),
(287,420,l)
);
}
);
width = 632;
}
);
unicode = 39;
},
{
glyphname = florin;
kernLeft = florin;
kernRight = florin;
lastChange = "2024-11-01 12:01:51 +0000";
layers = (
{
layerId = "E15CF202-A01D-48E4-B2F5-B7F7AA5FDF32";
shapes = (
{
closed = 1;
nodes = (
(173,-172,o),
(253,-139,o),
(289,31,cs),
(379,455,l),
(579,455,l),
(588,496,l),
(388,496,l),
(410,598,ls),
(419,637,o),
(428,649,o),
(460,649,cs),
(620,649,l),
(630,694,l),
(462,694,ls),
(387,694,o),
(377,669,o),
(357,576,cs),
(340,496,l),
(155,496,l),
(146,455,l),
(331,455,l),
(236,10,ls),
(218,-80,o),
(171,-129,o),
(100,-129,cs),
(79,-129,o),
(42,-123,o),
(21,-106,c),
(11,-154,l),
(36,-168,o),
(66,-172,o),
(95,-172,cs)
);
}
);
width = 632;
},
{
layerId = "60972605-F5BD-4F6B-BF23-CBE59F8EA585";
shapes = (
{
closed = 1;
nodes = (
(237,-172,o),
(304,-117,o),
(332,17,cs),
(408,372,l),
(597,372,l),
(624,496,l),
(435,496,l),
(451,569,ls),
(457,596,o),
(469,603,o),
(497,603,cs),
(647,603,l),
(674,733,l),
(473,733,ls),
(366,733,o),
(313,699,o),
(292,598,cs),
(271,496,l),
(109,496,l),
(82,372,l),
(244,372,l),
(191,119,ls),
(169,15,o),
(153,-22,o),
(91,-22,cs),
(71,-22,o),
(29,-16,o),
(1,-8,c),
(-28,-146,l),
(23,-163,o),
(65,-172,o),
(121,-172,cs)
);
}
);
width = 632;
}
);
unicode = 402;
},
{
glyphname = "note-musical";
lastChange = "2024-11-01 12:01:51 +0000";
layers = (
{
layerId = "E15CF202-A01D-48E4-B2F5-B7F7AA5FDF32";
shapes = (
{
closed = 1;
nodes = (
(253,-10,o),
(299,31,o),
(299,111,cs),
(299,464,l),
(286,445,l),
(387,414,o),
(470,341,o),
(487,224,c),
(490,223,l),
(521,263,o),
(534,302,o),
(534,328,cs),
(534,407,o),
(478,458,o),
(418,506,cs),
(348,562,o),
(305,599,o),
(299,668,c),
(264,668,l),
(264,155,l),
(271,160,l),
(253,181,o),
(228,192,o),
(198,192,cs),
(142,192,o),
(97,147,o),
(97,91,cs),
(97,35,o),
(140,-10,o),
(195,-10,cs)
);
}
);
width = 632;
},
{
layerId = "60972605-F5BD-4F6B-BF23-CBE59F8EA585";
shapes = (
{
closed = 1;
nodes = (
(268,-10,o),
(339,45,o),
(339,176,cs),
(339,473,l),
(283,408,l),
(381,379,o),
(458,314,o),
(472,176,c),
(480,174,l),
(550,240,o),
(579,291,o),
(579,339,cs),
(579,420,o),
(513,479,o),
(451,529,cs),
(381,585,o),
(344,613,o),
(339,668,c),
(249,668,l),
(249,157,l),
(295,209,l),
(270,243,o),
(232,262,o),
(188,262,cs),
(113,262,o),
(52,201,o),
(52,126,cs),
(52,51,o),
(111,-10,o),
(185,-10,cs)
);
}
);
width = 632;
}
);
unicode = 9834;
},
{
glyphname = at;
kernLeft = at;
kernRight = at;
lastChange = "2024-11-01 12:01:51 +0000";
layers = (
{
layerId = "E15CF202-A01D-48E4-B2F5-B7F7AA5FDF32";
shapes = (
{
closed = 1;
nodes = (
(313,-93,o),
(343,-89,o),
(376,-79,c),
(387,-24,l),
(349,-40,o),
(311,-47,o),
(282,-47,cs),
(135,-47,o),
(58,59,o),
(58,195,cs),
(58,340,o),
(148,555,o),
(358,555,cs),
(521,555,o),
(584,449,o),
(584,333,cs),
(584,262,o),
(550,123,o),
(474,123,cs),
(431,123,o),
(424,159,o),
(430,193,cs),
(475,408,l),
(433,429,o),
(392,440,o),
(356,440,cs),
(230,440,o),
(159,310,o),
(159,204,cs),
(159,138,o),
(192,75,o),
(272,75,cs),
(307,75,o),
(345,88,o),
(384,133,c),
(397,98,o),
(431,78,o),
(464,78,cs),
(581,78,o),
(630,245,o),
(630,338,cs),
(630,474,o),
(545,601,o),
(363,601,cs),
(150,601,o),
(12,398,o),
(12,195,cs),
(12,32,o),
(110,-93,o),
(280,-93,cs)
);
},
{
closed = 1;
nodes = (
(230,118,o),
(209,154,o),
(209,203,cs),
(209,291,o),
(259,394,o),
(355,394,cs),
(370,394,o),
(396,391,o),
(418,381,c),
(385,219,ls),
(373,160,o),
(323,118,o),
(278,118,cs)
);
}
);
width = 632;
},
{
layerId = "60972605-F5BD-4F6B-BF23-CBE59F8EA585";
shapes = (
{
closed = 1;
nodes = (
(305,-103,o),
(338,-97,o),
(367,-86,c),
(385,-3,l),
(352,-20,o),
(321,-28,o),
(288,-28,cs),
(156,-28,o),
(93,70,o),
(93,195,cs),
(93,337,o),
(179,536,o),
(361,536,cs),
(487,536,o),
(553,452,o),
(553,338,cs),
(553,284,o),
(529,154,o),
(477,154,cs),
(440,154,o),
(447,207,o),
(452,234,cs),
(489,405,l),
(448,424,o),
(392,438,o),
(349,438,cs),
(225,438,o),
(150,322,o),
(150,217,cs),
(150,143,o),
(190,75,o),
(266,75,cs),
(296,75,o),
(330,87,o),
(366,130,c),
(381,92,o),
(419,72,o),
(454,72,cs),
(582,72,o),
(636,236,o),
(636,341,cs),
(636,492,o),
(543,611,o),
(369,611,cs),
(152,611,o),
(6,402,o),
(6,188,cs),
(6,25,o),
(102,-103,o),
(273,-103,cs)
);
},
{
closed = 1;
nodes = (
(265,170,o),
(252,196,o),
(252,227,cs),
(252,267,o),
(275,348,o),
(342,348,cs),
(354,348,o),
(369,345,o),
(387,339,c),
(368,248,ls),
(357,195,o),
(324,170,o),
(297,170,cs)
);
}
);
width = 632;
}
);
unicode = 64;
},
{
glyphname = ampersand;
kernLeft = ampersand;
kernRight = ampersand;
lastChange = "2024-11-01 12:01:51 +0000";
layers = (
{
layerId = "E15CF202-A01D-48E4-B2F5-B7F7AA5FDF32";
shapes = (
{
closed = 1;
nodes = (
(293,-11,o),
(368,17,o),
(440,94,c),
(502,0,l),
(565,0,l),
(471,138,l),
(506,189,o),
(532,252,o),
(547,338,c),
(492,338,l),
(480,269,o),
(469,223,o),
(443,180,c),
(313,372,l),
(406,398,o),
(493,460,o),
(493,557,cs),
(493,627,o),
(436,683,o),
(350,682,cs),
(254,681,o),
(188,605,o),
(188,527,cs),
(188,484,o),
(209,438,o),
(239,393,c),
(114,356,o),
(10,277,o),
(10,151,cs),
(10,48,o),
(98,-11,o),
(211,-11,cs)
);
},
{
closed = 1;
nodes = (
(129,37,o),
(64,84,o),
(64,159,cs),
(64,265,o),
(159,323,o),
(264,356,c),
(412,135,l),
(354,65,o),
(290,37,o),
(218,37,cs)
);
},
{
closed = 1;
nodes = (
(265,441,o),
(239,485,o),
(239,528,cs),
(239,580,o),
(280,635,o),
(350,635,cs),
(403,635,o),
(441,599,o),
(441,552,cs),
(441,475,o),
(368,428,o),
(290,406,c)
);
}
);
width = 632;
},
{
layerId = "60972605-F5BD-4F6B-BF23-CBE59F8EA585";
shapes = (
{
closed = 1;
nodes = (
(275,-13,o),
(331,-3,o),
(396,36,c),
(416,0,l),
(574,0,l),
(499,135,l),
(554,189,o),
(602,253,o),
(641,371,c),
(507,371,l),
(491,322,o),
(468,279,o),
(439,246,c),
(383,345,l),
(478,388,o),
(537,467,o),
(537,553,cs),
(537,635,o),
(474,709,o),
(370,709,cs),
(239,709,o),
(166,606,o),
(166,506,cs),
(166,469,o),
(175,430,o),
(192,397,c),
(85,357,o),
(10,282,o),
(10,174,cs),
(10,64,o),
(100,-13,o),
(226,-13,cs)
);
},
{
closed = 1;
nodes = (
(204,121,o),
(166,147,o),
(166,193,cs),
(166,245,o),
(203,280,o),
(252,296,c),
(336,146,l),
(304,127,o),
(278,121,o),
(252,121,cs)
);
},
{
closed = 1;
nodes = (
(313,468,o),
(299,496,o),
(299,523,cs),
(299,554,o),
(321,589,o),
(361,589,cs),
(390,589,o),
(411,569,o),
(411,539,cs),
(411,498,o),
(372,459,o),
(334,437,c)
);
}
);
width = 632;
}
);
unicode = 38;
},
{
glyphname = paragraph;
kernLeft = paragraph;
kernRight = paragraph;
lastChange = "2024-11-01 12:01:51 +0000";
layers = (
{
layerId = "E15CF202-A01D-48E4-B2F5-B7F7AA5FDF32";
shapes = (
{
closed = 1;
nodes = (
(250,-162,l),
(416,621,l),
(531,621,l),
(365,-162,l),
(418,-162,l),
(584,621,l),
(620,621,l),
(630,668,l),
(389,668,ls),
(271,668,o),
(177,604,o),
(155,500,cs),
(135,408,o),
(185,323,o),
(294,295,c),
(197,-162,l)
);
}
);
width = 632;
},
{
layerId = "60972605-F5BD-4F6B-BF23-CBE59F8EA585";
shapes = (
{
closed = 1;
nodes = (
(246,-162,l),
(408,601,l),
(499,601,l),
(337,-162,l),
(435,-162,l),
(597,601,l),
(645,601,l),
(659,668,l),
(352,668,ls),
(233,668,o),
(141,605,o),
(119,501,cs),
(100,413,o),
(145,332,o),
(247,302,c),
(148,-162,l)
);
}
);
width = 632;
}
);
unicode = 182;
},
{
glyphname = section;
kernLeft = section;
kernRight = section;
lastChange = "2024-11-01 12:01:51 +0000";
layers = (
{
layerId = "E15CF202-A01D-48E4-B2F5-B7F7AA5FDF32";
shapes = (
{
closed = 1;
nodes = (
(335,-173,o),
(423,-121,o),
(423,-33,cs),
(423,0,o),
(405,35,o),
(362,74,c),
(448,99,o),
(530,150,o),
(530,238,cs),
(530,288,o),
(499,325,o),
(432,375,cs),
(349,437,ls),
(281,488,o),
(260,513,o),
(260,546,cs),
(260,598,o),
(323,635,o),
(385,635,cs),
(441,635,o),
(494,612,o),
(503,543,c),
(561,555,l),
(548,639,o),
(470,680,o),
(389,680,cs),
(299,680,o),
(211,628,o),
(211,540,cs),
(211,507,o),
(229,472,o),
(272,433,c),
(186,408,o),
(104,357,o),
(104,269,cs),
(104,219,o),
(135,182,o),
(202,132,cs),
(285,70,ls),
(353,19,o),
(374,-7,o),
(374,-40,cs),
(374,-92,o),
(311,-128,o),
(249,-128,cs),
(193,-128,o),
(140,-105,o),
(131,-36,c),
(73,-48,l),
(86,-132,o),
(164,-173,o),
(245,-173,cs)
);
},
{
closed = 1;
nodes = (
(242,166,ls),
(186,207,o),
(155,239,o),
(155,280,cs),
(155,349,o),
(237,384,o),
(309,404,c),
(392,341,ls),
(448,300,o),
(479,268,o),
(479,227,cs),
(479,158,o),
(397,123,o),
(325,103,c)
);
}
);
width = 632;
},
{
layerId = "60972605-F5BD-4F6B-BF23-CBE59F8EA585";
shapes = (
{
closed = 1;
nodes = (
(382,-173,o),
(487,-103,o),
(487,13,cs),
(487,33,o),
(482,53,o),
(473,72,c),
(540,112,o),
(579,162,o),
(579,228,cs),
(579,293,o),
(538,342,o),
(465,389,cs),
(368,453,ls),
(323,482,o),
(307,497,o),
(307,515,cs),
(307,539,o),
(333,554,o),
(369,554,cs),
(411,554,o),
(446,537,o),
(451,488,c),
(591,536,l),
(566,637,o),
(485,680,o),
(382,680,cs),
(252,680,o),
(147,610,o),
(147,494,cs),
(147,474,o),
(152,454,o),
(161,435,c),
(94,395,o),
(55,345,o),
(55,279,cs),
(55,214,o),
(96,165,o),
(169,118,cs),
(266,54,ls),
(311,25,o),
(327,10,o),
(327,-8,cs),
(327,-32,o),
(301,-47,o),
(265,-47,cs),
(223,-47,o),
(188,-30,o),
(183,19,c),
(43,-29,l),
(68,-130,o),
(149,-173,o),
(252,-173,cs)
);
},
{
closed = 1;
nodes = (
(262,246,ls),
(234,264,o),
(218,280,o),
(218,304,cs),
(218,322,o),
(229,335,o),
(246,345,c),
(372,261,ls),
(400,243,o),
(416,227,o),
(416,203,cs),
(416,185,o),
(405,172,o),
(388,162,c)
);
}
);
width = 632;
}
);
unicode = 167;
},
{
glyphname = copyright;
kernLeft = copyright;
kernRight = copyright;
lastChange = "2024-11-01 12:01:51 +0000";
layers = (
{
layerId = "E15CF202-A01D-48E4-B2F5-B7F7AA5FDF32";
shapes = (
{
closed = 1;
nodes = (
(512,-13,o),
(630,142,o),
(630,334,cs),
(630,526,o),
(512,681,o),
(334,681,cs),
(156,681,o),
(38,526,o),
(38,334,cs),
(38,142,o),
(156,-13,o),
(334,-13,cs)
);
},
{
closed = 1;
nodes = (
(412,143,o),
(444,189,o),
(462,223,c),
(412,243,l),
(395,203,o),
(374,188,o),
(336,188,cs),
(286,188,o),
(243,240,o),
(243,335,cs),
(243,433,o),
(286,481,o),
(337,481,cs),
(368,481,o),
(392,466,o),
(409,426,c),
(459,446,l),
(441,483,o),
(407,526,o),
(340,526,cs),
(250,526,o),
(186,457,o),
(186,335,cs),
(186,214,o),
(248,143,o),
(339,143,cs)
);
},
{
closed = 1;
nodes = (
(184,35,o),
(87,169,o),
(87,334,cs),
(87,499,o),
(184,633,o),
(334,633,cs),
(484,633,o),
(581,499,o),
(581,334,cs),
(581,169,o),
(484,35,o),
(334,35,cs)
);
}
);
width = 632;
},
{
layerId = "60972605-F5BD-4F6B-BF23-CBE59F8EA585";
shapes = (
{
closed = 1;
nodes = (
(506,-13,o),
(630,142,o),
(630,333,cs),
(630,524,o),
(506,679,o),
(334,679,cs),
(162,679,o),
(38,524,o),
(38,333,cs),
(38,142,o),
(162,-13,o),
(334,-13,cs)
);
},
{
closed = 1;
nodes = (
(380,143,o),
(440,163,o),
(473,230,c),
(393,265,l),
(384,246,o),
(366,233,o),
(340,233,cs),
(310,233,o),
(276,256,o),
(276,335,cs),
(276,411,o),
(309,436,o),
(340,436,cs),
(363,436,o),
(382,425,o),
(392,394,c),
(474,430,l),
(445,504,o),
(385,526,o),
(333,526,cs),
(241,526,o),
(176,451,o),
(176,335,cs),
(176,220,o),
(232,143,o),
(333,143,cs)
);
},
{
closed = 1;
nodes = (
(204,47,o),
(104,166,o),
(104,333,cs),
(104,500,o),
(204,619,o),
(334,619,cs),
(464,619,o),
(564,500,o),
(564,333,cs),
(564,166,o),
(464,47,o),
(334,47,cs)
);
}
);
width = 632;
}
);
unicode = 169;
},
{
glyphname = registered;
kernLeft = registered;
kernRight = registered;
lastChange = "2024-11-01 12:01:51 +0000";
layers = (
{
layerId = "E15CF202-A01D-48E4-B2F5-B7F7AA5FDF32";
shapes = (
{
closed = 1;
nodes = (
(512,-13,o),
(630,142,o),
(630,334,cs),
(630,526,o),
(512,681,o),
(334,681,cs),
(156,681,o),
(38,526,o),
(38,334,cs),
(38,142,o),
(156,-13,o),
(334,-13,cs)
);
},
{
closed = 1;
nodes = (
(184,35,o),
(87,169,o),
(87,334,cs),
(87,499,o),
(184,633,o),
(334,633,cs),
(484,633,o),
(581,499,o),
(581,334,cs),
(581,169,o),
(484,35,o),
(334,35,cs)
);
},
{
closed = 1;
nodes = (
(280,162,l),
(280,302,l),
(330,302,l),
(415,162,l),
(477,162,l),
(385,311,l),
(438,330,o),
(460,370,o),
(460,417,cs),
(460,485,o),
(416,529,o),
(336,529,cs),
(226,529,l),
(226,162,l)
);
},
{
closed = 1;
nodes = (
(280,485,l),
(328,485,ls),
(375,485,o),
(404,467,o),
(404,417,cs),
(404,372,o),
(381,347,o),
(333,347,cs),
(280,347,l)
);
}
);
width = 632;
},
{
layerId = "60972605-F5BD-4F6B-BF23-CBE59F8EA585";
shapes = (
{
closed = 1;
nodes = (
(506,-13,o),
(630,142,o),
(630,333,cs),
(630,524,o),
(506,679,o),
(334,679,cs),
(162,679,o),
(38,524,o),
(38,333,cs),
(38,142,o),
(162,-13,o),
(334,-13,cs)
);
},
{
closed = 1;
nodes = (
(204,47,o),
(104,166,o),
(104,333,cs),
(104,500,o),
(204,619,o),
(334,619,cs),
(464,619,o),
(564,500,o),
(564,333,cs),
(564,166,o),
(464,47,o),
(334,47,cs)
);
},
{
closed = 1;
nodes = (
(281,162,l),
(281,300,l),
(309,300,l),
(393,162,l),
(490,162,l),
(397,310,l),
(457,328,o),
(473,373,o),
(473,415,cs),
(473,504,o),
(410,529,o),
(330,529,cs),
(195,529,l),
(195,162,l)
);
},
{
closed = 1;
nodes = (
(281,450,l),
(326,450,ls),
(357,450,o),
(381,444,o),
(381,414,cs),
(381,383,o),
(355,378,o),
(325,378,cs),
(281,378,l)
);
}
);
width = 632;
}
);
unicode = 174;
},
{
glyphname = trademark;
kernLeft = trademark;
kernRight = trademark;
lastChange = "2024-11-01 12:01:51 +0000";
layers = (
{
guides = (
{
pos = (438,343);
}
);
layerId = "E15CF202-A01D-48E4-B2F5-B7F7AA5FDF32";
shapes = (
{
closed = 1;
nodes = (
(166,343,l),
(228,631,l),
(319,631,l),
(327,668,l),
(101,668,l),
(93,631,l),
(184,631,l),
(122,343,l)
);
},
{
closed = 1;
nodes = (
(351,343,l),
(409,614,l),
(413,614,l),
(453,343,l),
(494,343,l),
(648,614,l),
(652,614,l),
(594,343,l),
(638,343,l),
(708,668,l),
(639,668,l),
(485,397,l),
(481,397,l),
(441,668,l),
(379,668,l),
(309,343,l)
);
}
);
width = 632;
},
{
guides = (
{
pos = (438,343);
}
);
layerId = "60972605-F5BD-4F6B-BF23-CBE59F8EA585";
shapes = (
{
closed = 1;
nodes = (
(187,343,l),
(240,588,l),
(321,588,l),
(338,668,l),
(93,668,l),
(76,588,l),
(157,588,l),
(104,343,l)
);
},
{
closed = 1;
nodes = (
(370,343,l),
(419,572,l),
(423,572,l),
(432,343,l),
(505,343,l),
(612,572,l),
(616,572,l),
(567,343,l),
(647,343,l),
(717,668,l),
(585,668,l),
(495,464,l),
(491,464,l),
(489,668,l),
(360,668,l),
(290,343,l)
);
}
);
width = 632;
}
);
unicode = 8482;
},
{
glyphname = degree;
kernLeft = degree;
kernRight = degree;
lastChange = "2024-11-01 12:01:51 +0000";
layers = (
{
layerId = "E15CF202-A01D-48E4-B2F5-B7F7AA5FDF32";
shapes = (
{
closed = 1;
nodes = (
(449,437,o),
(504,491,o),
(504,558,cs),
(504,626,o),
(449,681,o),
(382,681,cs),
(315,681,o),
(260,626,o),
(260,558,cs),
(260,491,o),
(315,437,o),
(382,437,cs)
);
},
{
closed = 1;
nodes = (
(339,479,o),
(303,515,o),
(303,558,cs),
(303,603,o),
(339,637,o),
(382,637,cs),
(426,637,o),
(461,603,o),
(461,558,cs),
(461,515,o),
(426,479,o),
(382,479,cs)
);
}
);
width = 632;
},
{
layerId = "60972605-F5BD-4F6B-BF23-CBE59F8EA585";
shapes = (
{
closed = 1;
nodes = (
(465,344,o),
(539,419,o),
(539,512,cs),
(539,604,o),
(465,679,o),
(372,679,cs),
(280,679,o),
(205,604,o),
(205,512,cs),
(205,419,o),
(280,344,o),
(372,344,cs)
);
},
{
closed = 1;
nodes = (
(332,439,o),
(299,472,o),
(299,512,cs),
(299,552,o),
(332,585,o),
(372,585,cs),
(413,585,o),
(445,552,o),
(445,512,cs),
(445,472,o),
(413,439,o),
(372,439,cs)
);
}
);
width = 632;
}
);
unicode = 176;
},
